sysex data=(126,127,9,1) time=2.928521563000686
sysex data=(67,16,76,0,0,126,0) time=3.1294400970000424
sysex data=(67,16,39,48,0,0,8,0,0) time=3.330425451999872
sysex data=(67,16,76,2,1,0,1,17) time=3.3334341620002306
sysex data=(67,16,76,2,1,32,66,17) time=3.3364055620004365
control_change channel=0 control=0 value=0 time=3.6274271150005006
control_change channel=0 control=32 value=113 time=3.6284121980006603
program_change channel=0 program=0 time=3.628501662000417
control_change channel=1 control=0 value=0 time=3.6293831540006067
control_change channel=1 control=32 value=112 time=3.6304123560003063
program_change channel=1 program=48 time=3.6313779930005694
control_change channel=2 control=0 value=0 time=3.631463542000347
control_change channel=2 control=32 value=0 time=3.6324030499999935
program_change channel=2 program=105 time=3.6334111920004943
control_change channel=0 control=7 value=110 time=3.6343856110006527
control_change channel=1 control=7 value=36 time=3.6353928260004977
control_change channel=2 control=7 value=100 time=3.636385006000637
control_change channel=0 control=10 value=64 time=3.6373792459999095
control_change channel=1 control=10 value=64 time=3.6383924660003686
control_change channel=2 control=10 value=64 time=3.638496801000656
control_change channel=0 control=91 value=20 time=3.640124673000173
control_change channel=1 control=91 value=50 time=3.6404914960003225
control_change channel=2 control=91 value=8 time=3.6413959390001764
control_change channel=0 control=93 value=0 time=3.64239051200002
control_change channel=1 control=93 value=0 time=3.643392879000203
control_change channel=2 control=93 value=0 time=3.6443947600000683
control_change channel=0 control=101 value=0 time=3.6453980690002936
control_change channel=0 control=100 value=0 time=3.6464344820005863
control_change channel=0 control=6 value=2 time=3.6465726209999048
control_change channel=1 control=101 value=0 time=3.648409967000589
control_change channel=1 control=100 value=0 time=3.6484995179998805
control_change channel=1 control=6 value=2 time=3.6493884290002825
control_change channel=2 control=101 value=0 time=3.650432677000026
control_change channel=2 control=100 value=0 time=3.6505485300003784
control_change channel=2 control=6 value=2 time=3.651382797000224
pitchwheel channel=0 pitch=0 time=3.652389186000619
pitchwheel channel=1 pitch=0 time=3.653380577000462
pitchwheel channel=2 pitch=0 time=3.6543895650002014
control_change channel=0 control=72 value=64 time=3.655416041000535
control_change channel=1 control=72 value=64 time=3.656400842000039
control_change channel=2 control=72 value=64 time=3.658347539000715
note_on channel=0 note=60 velocity=55 time=14.74811528400005
note_on channel=1 note=60 velocity=55 time=14.749111738000465
note_on channel=0 note=60 velocity=0 time=15.101115342999947
note_on channel=1 note=60 velocity=0 time=15.102098366000064
note_on channel=0 note=60 velocity=80 time=19.34100518300056
note_on channel=1 note=60 velocity=80 time=19.341971133000698
note_on channel=0 note=60 velocity=0 time=19.506031621000147
note_on channel=1 note=60 velocity=0 time=19.506988832999923
control_change channel=0 control=0 value=0 time=21.26297249000072
control_change channel=0 control=32 value=114 time=21.263938906000476
program_change channel=0 program=0 time=21.264901324000675
control_change channel=0 control=7 value=127 time=21.355957644000227
control_change channel=1 control=7 value=32 time=21.3569291470003
control_change channel=1 control=91 value=40 time=21.357901373999994
note_on channel=0 note=60 velocity=80 time=21.846924510000463
note_on channel=1 note=60 velocity=80 time=21.847921210000095
note_on channel=0 note=60 velocity=0 time=21.953925279000032
note_on channel=1 note=60 velocity=0 time=21.956176616999983
control_change channel=0 control=0 value=0 time=22.322918477000712
control_change channel=0 control=32 value=112 time=22.32390382199992
program_change channel=0 program=0 time=22.32399179999993
control_change channel=1 control=0 value=0 time=22.32487631999993
control_change channel=1 control=32 value=118 time=22.325903186000687
program_change channel=1 program=88 time=22.32599472000038
control_change channel=0 control=7 value=100 time=22.41595420200065
control_change channel=1 control=7 value=70 time=22.416913709000255
control_change channel=1 control=91 value=36 time=22.417076906000148
note_on channel=0 note=60 velocity=80 time=22.70891263900012
note_on channel=1 note=60 velocity=80 time=22.709892100000616
note_on channel=0 note=60 velocity=0 time=22.822932705000312
note_on channel=1 note=60 velocity=0 time=22.82389156699992
control_change channel=0 control=0 value=0 time=23.152889869999854
control_change channel=0 control=32 value=112 time=23.153882917000374
program_change channel=0 program=1 time=23.153973303000384
control_change channel=1 control=0 value=0 time=23.154855378999855
control_change channel=1 control=32 value=112 time=23.15585304800061
program_change channel=1 program=48 time=23.156856240000707
control_change channel=0 control=91 value=18 time=23.24492749900037
control_change channel=1 control=7 value=40 time=23.245878993000588
control_change channel=1 control=91 value=32 time=23.24685188100011
note_on channel=0 note=60 velocity=80 time=23.563880905000588
note_on channel=1 note=60 velocity=80 time=23.56487820500024
note_on channel=0 note=60 velocity=0 time=23.649921563000134
note_on channel=1 note=60 velocity=0 time=23.650847994000287
control_change channel=0 control=0 value=0 time=24.002872383000067
control_change channel=0 control=32 value=112 time=24.00386695100042
program_change channel=0 program=3 time=24.0048229490003
control_change channel=1 control=0 value=0 time=24.005917922000663
control_change channel=1 control=32 value=112 time=24.006515095000395
program_change channel=1 program=1 time=24.006924347000677
control_change channel=0 control=7 value=90 time=24.09491000700018
control_change channel=1 control=7 value=70 time=24.095851846000187
control_change channel=1 control=91 value=18 time=24.09690117700029
note_on channel=0 note=60 velocity=80 time=24.409888522000074
note_on channel=1 note=72 velocity=80 time=24.410830623000038
note_on channel=0 note=60 velocity=0 time=24.50289467699986
note_on channel=1 note=72 velocity=0 time=24.50510664600006
control_change channel=0 control=0 value=0 time=24.815887468000255
control_change channel=0 control=32 value=112 time=24.81682177499988
program_change channel=0 program=2 time=24.81690815500042
control_change channel=1 control=0 value=0 time=24.81781149100061
control_change channel=1 control=32 value=114 time=24.8188475500001
program_change channel=1 program=4 time=24.819819336000364
control_change channel=0 control=7 value=68 time=24.90588663000017
control_change channel=0 control=91 value=20 time=24.906838081999922
control_change channel=0 control=93 value=32 time=24.907815208000102
control_change channel=1 control=7 value=60 time=24.90793944000052
control_change channel=1 control=91 value=30 time=24.908817878000264
control_change channel=1 control=93 value=70 time=24.909808920000614
note_on channel=0 note=60 velocity=80 time=25.212841943000058
note_on channel=1 note=60 velocity=80 time=25.21383643900026
note_on channel=0 note=60 velocity=0 time=25.2938789990003
note_on channel=1 note=60 velocity=0 time=25.294849298999907
control_change channel=0 control=0 value=0 time=25.595834266000566
control_change channel=0 control=32 value=113 time=25.595941722000134
program_change channel=0 program=2 time=25.596816219000175
control_change channel=1 control=0 value=0 time=25.597791412000333
control_change channel=1 control=32 value=112 time=25.598809879999862
program_change channel=1 program=2 time=25.59889855000074
control_change channel=0 control=7 value=88 time=25.68486865200066
control_change channel=0 control=93 value=30 time=25.685818706000646
control_change channel=1 control=7 value=64 time=25.686798028999874
control_change channel=1 control=91 value=20 time=25.687810864999847
control_change channel=1 control=93 value=60 time=25.68790160000026
note_on channel=0 note=60 velocity=80 time=25.97481578299994
note_on channel=1 note=60 velocity=80 time=25.975810418000037
note_on channel=0 note=60 velocity=0 time=26.072852633000366
note_on channel=1 note=60 velocity=0 time=26.07380260500031
control_change channel=0 control=0 value=0 time=26.38482917500005
control_change channel=0 control=32 value=112 time=26.385796677000144
program_change channel=0 program=6 time=26.385888744000113
control_change channel=1 control=0 value=0 time=26.386769078000725
control_change channel=1 control=32 value=112 time=26.387773269000718
program_change channel=1 program=48 time=26.388777389000097
control_change channel=0 control=7 value=82 time=26.474844846999986
control_change channel=0 control=91 value=26 time=26.475777231999928
control_change channel=0 control=93 value=6 time=26.475860188000297
control_change channel=1 control=7 value=56 time=26.47682268400058
control_change channel=1 control=91 value=50 time=26.477771780000694
control_change channel=1 control=93 value=0 time=26.478791825999906
note_on channel=0 note=60 velocity=80 time=26.78679628000009
note_on channel=1 note=60 velocity=80 time=26.787775065999995
note_on channel=0 note=60 velocity=0 time=26.877831183000126
note_on channel=1 note=60 velocity=0 time=26.8787823749999
control_change channel=0 control=0 value=0 time=27.22478443199998
control_change channel=0 control=32 value=114 time=27.225775900999906
program_change channel=0 program=4 time=27.225865727999917
control_change channel=1 control=0 value=0 time=27.226745662000212
control_change channel=1 control=32 value=0 time=27.22775581299993
program_change channel=1 program=1 time=27.22874768100064
control_change channel=0 control=7 value=100 time=27.314826781000193
control_change channel=0 control=91 value=24 time=27.3157713720002
control_change channel=0 control=93 value=36 time=27.316752499999893
control_change channel=1 control=7 value=76 time=27.31775737299995
control_change channel=1 control=91 value=24 time=27.317844141000023
note_on channel=0 note=60 velocity=80 time=27.684796205000566
note_on channel=1 note=60 velocity=80 time=27.685745071000383
note_on channel=0 note=60 velocity=0 time=27.785810252000374
note_on channel=1 note=60 velocity=0 time=27.786750805000338
control_change channel=0 control=0 value=0 time=28.074771716000214
control_change channel=0 control=32 value=118 time=28.0757580290001
program_change channel=0 program=4 time=28.075905745000455
control_change channel=1 control=0 value=0 time=28.076713047999874
control_change channel=1 control=32 value=114 time=28.07771678300014
program_change channel=1 program=4 time=28.07873569700041
control_change channel=0 control=7 value=96 time=28.164796928000214
control_change channel=1 control=7 value=58 time=28.165745870000137
control_change channel=1 control=93 value=40 time=28.16672701800053
note_on channel=0 note=60 velocity=80 time=28.48778072100049
note_on channel=1 note=60 velocity=80 time=28.488740894999864
note_on channel=0 note=60 velocity=0 time=28.58378535400061
note_on channel=1 note=60 velocity=0 time=28.584738969000682
control_change channel=0 control=0 value=0 time=28.914777426
control_change channel=0 control=32 value=119 time=28.915733198999988
program_change channel=0 program=4 time=28.91582176600059
control_change channel=1 control=0 value=0 time=28.916708956000548
control_change channel=1 control=32 value=112 time=28.917762617000335
program_change channel=1 program=5 time=28.918913813000472
control_change channel=1 control=7 value=54 time=29.004775009000696
control_change channel=1 control=93 value=0 time=29.005731315000048
note_on channel=0 note=60 velocity=80 time=29.34973695500048
note_on channel=1 note=60 velocity=80 time=29.35071903000062
note_on channel=0 note=60 velocity=0 time=29.464766408000287
note_on channel=1 note=60 velocity=0 time=29.46570825800063
control_change channel=0 control=0 value=0 time=29.764715711000463
control_change channel=0 control=32 value=112 time=29.765710745999968
program_change channel=0 program=4 time=29.766684207000253
control_change channel=1 control=0 value=0 time=29.76770310000029
control_change channel=1 control=32 value=112 time=29.767790853000406
program_change channel=1 program=0 time=29.76866762999998
control_change channel=0 control=7 value=74 time=29.855756497000584
control_change channel=0 control=91 value=16 time=29.85670215400023
control_change channel=0 control=93 value=20 time=29.8567886360006
control_change channel=1 control=7 value=70 time=29.857680627000263
control_change channel=1 control=91 value=18 time=29.858705034000195
control_change channel=1 control=93 value=70 time=29.858797285000037
note_on channel=0 note=60 velocity=80 time=30.20570600500014
note_on channel=1 note=60 velocity=80 time=30.206702064000638
note_on channel=0 note=60 velocity=0 time=30.309743602000708
note_on channel=1 note=60 velocity=0 time=30.310697438000716
control_change channel=0 control=0 value=0 time=30.615698044000055
control_change channel=0 control=32 value=112 time=30.615806632000385
program_change channel=0 program=5 time=30.61665664500015
control_change channel=0 control=7 value=80 time=30.70472306300053
control_change channel=0 control=91 value=22 time=30.705684251000093
control_change channel=0 control=93 value=36 time=30.705772541999977
control_change channel=1 control=7 value=80 time=30.70665452100002
control_change channel=1 control=91 value=22 time=30.70766280600037
control_change channel=1 control=93 value=0 time=30.708662130000448
note_on channel=0 note=60 velocity=80 time=31.067688680000174
note_on channel=1 note=60 velocity=80 time=31.06865579800069
note_on channel=0 note=60 velocity=0 time=31.183682326000053
note_on channel=1 note=60 velocity=0 time=31.184661992000656
control_change channel=0 control=0 value=0 time=31.47469106600056
control_change channel=0 control=32 value=113 time=31.47479289400053
program_change channel=0 program=5 time=31.47564830400006
control_change channel=1 control=0 value=0 time=31.476637122000284
control_change channel=1 control=32 value=118 time=31.47764926200034
program_change channel=1 program=88 time=31.47773641999993
control_change channel=0 control=7 value=92 time=31.56471739600056
control_change channel=0 control=91 value=28 time=31.565654039000037
control_change channel=0 control=93 value=30 time=31.5666386769999
control_change channel=1 control=7 value=76 time=31.566770569000255
control_change channel=1 control=91 value=28 time=31.567648013000507
note_on channel=0 note=60 velocity=80 time=31.89069325499986
note_on channel=1 note=60 velocity=80 time=31.891646081000545
note_on channel=0 note=60 velocity=0 time=31.98768932100029
note_on channel=1 note=60 velocity=0 time=31.98864114800017
control_change channel=0 control=0 value=0 time=32.334648724000544
control_change channel=0 control=32 value=114 time=32.334758885000156
program_change channel=0 program=5 time=32.33563890100049
control_change channel=1 control=0 value=0 time=32.336613357000715
control_change channel=1 control=32 value=112 time=32.33768691500063
program_change channel=1 program=98 time=32.33785486200031
control_change channel=0 control=7 value=82 time=32.4246854310004
control_change channel=0 control=91 value=30 time=32.4256395070006
control_change channel=0 control=93 value=38 time=32.42661425999995
control_change channel=1 control=7 value=66 time=32.42762992000007
control_change channel=1 control=91 value=40 time=32.427716186
control_change channel=1 control=93 value=32 time=32.42859878000036
note_on channel=0 note=60 velocity=80 time=32.763629898000545
note_on channel=1 note=60 velocity=80 time=32.76464065400069
note_on channel=0 note=60 velocity=0 time=32.85667466999985
note_on channel=1 note=60 velocity=0 time=32.85762416500074
control_change channel=0 control=0 value=0 time=33.2446304060004
control_change channel=0 control=32 value=114 time=33.244739009000114
program_change channel=0 program=7 time=33.24561241500032
control_change channel=1 control=0 value=0 time=33.24659871299991
control_change channel=1 control=32 value=115 time=33.246726368000054
program_change channel=1 program=81 time=33.2475971190006
control_change channel=0 control=7 value=125 time=33.33462035899993
control_change channel=0 control=91 value=16 time=33.335605996000595
control_change channel=0 control=93 value=0 time=33.335693969000204
control_change channel=1 control=7 value=46 time=33.336580687000605
control_change channel=1 control=91 value=20 time=33.33761448600035
control_change channel=1 control=93 value=90 time=33.338636905000385
note_on channel=0 note=48 velocity=80 time=33.62362501500047
note_on channel=1 note=48 velocity=80 time=33.62460433400065
note_on channel=0 note=48 velocity=0 time=33.698657055000695
note_on channel=1 note=48 velocity=0 time=33.698766995999904
control_change channel=0 control=0 value=0 time=34.053607644000294
control_change channel=0 control=32 value=112 time=34.05460598399986
program_change channel=0 program=7 time=34.055561320999914
control_change channel=1 control=0 value=0 time=34.05658153100012
control_change channel=1 control=32 value=112 time=34.05666767999992
program_change channel=1 program=28 time=34.05759769799988
control_change channel=0 control=7 value=102 time=34.143601994000164
control_change channel=1 control=7 value=50 time=34.145599467000466
note_on channel=0 note=48 velocity=80 time=34.45662417800031
note_on channel=1 note=48 velocity=80 time=34.45756242000061
note_on channel=0 note=48 velocity=0 time=34.54859598100029
note_on channel=1 note=48 velocity=0 time=34.549578415000724
control_change channel=0 control=0 value=0 time=34.90357859699998
control_change channel=0 control=32 value=118 time=34.90456674899997
program_change channel=0 program=18 time=34.90553509200072
control_change channel=1 control=0 value=0 time=34.906583654000315
control_change channel=1 control=32 value=119 time=34.906677197000135
program_change channel=1 program=16 time=34.90754519600068
control_change channel=0 control=7 value=58 time=34.994622211000205
control_change channel=0 control=91 value=28 time=34.99556745800055
control_change channel=1 control=7 value=36 time=34.99654225700033
control_change channel=1 control=91 value=28 time=34.99662551000074
control_change channel=1 control=93 value=36 time=34.99755542599996
note_on channel=0 note=48 velocity=80 time=35.28957285600063
note_on channel=1 note=60 velocity=80 time=35.29057050400024
note_on channel=0 note=48 velocity=0 time=35.389605166000365
note_on channel=1 note=60 velocity=0 time=35.39056824599993
control_change channel=0 control=0 value=0 time=35.73355632000039
control_change channel=0 control=32 value=112 time=35.73456540500047
program_change channel=0 program=16 time=35.73551701100041
control_change channel=1 control=0 value=0 time=35.736539712000194
control_change channel=1 control=32 value=112 time=35.73662525600048
program_change channel=1 program=16 time=35.737510934000056
control_change channel=0 control=7 value=62 time=35.82458947000032
control_change channel=0 control=93 value=36 time=35.824697273999845
control_change channel=1 control=7 value=34 time=35.82554050199997
note_on channel=0 note=48 velocity=80 time=36.153544607000185
note_on channel=1 note=60 velocity=80 time=36.154550515000665
note_on channel=0 note=48 velocity=0 time=36.253584090000004
note_on channel=1 note=60 velocity=0 time=36.2545492600002
control_change channel=0 control=0 value=0 time=36.603537318000235
control_change channel=0 control=32 value=113 time=36.60452005500065
program_change channel=0 program=16 time=36.605507941000724
control_change channel=0 control=7 value=80 time=36.69357497300007
control_change channel=0 control=93 value=0 time=36.69453842200073
control_change channel=1 control=7 value=46 time=36.69549276500038
control_change channel=1 control=93 value=20 time=36.696509254000375
note_on channel=0 note=48 velocity=80 time=37.01352342900009
note_on channel=1 note=60 velocity=80 time=37.01452282900027
note_on channel=0 note=48 velocity=0 time=37.11356269099997
note_on channel=1 note=60 velocity=0 time=37.11452853800074
control_change channel=0 control=0 value=0 time=37.43352811300065
control_change channel=0 control=32 value=112 time=37.43452113400053
program_change channel=0 program=17 time=37.43461252999987
control_change channel=0 control=7 value=76 time=37.5235101140006
control_change channel=0 control=93 value=40 time=37.524498912000126
control_change channel=1 control=7 value=32 time=37.52547761599999
control_change channel=1 control=93 value=0 time=37.52652176599986
note_on channel=0 note=48 velocity=80 time=37.886507799000356
note_on channel=1 note=60 velocity=80 time=37.88749598200047
note_on channel=0 note=48 velocity=0 time=37.98553109000022
note_on channel=1 note=60 velocity=0 time=37.98650501700013
control_change channel=0 control=0 value=0 time=38.323503674000676
control_change channel=0 control=32 value=116 time=38.32447948200024
program_change channel=0 program=16 time=38.324566363000486
control_change channel=1 control=0 value=0 time=38.32544966900059
control_change channel=1 control=32 value=112 time=38.32646740900054
program_change channel=1 program=6 time=38.32744581499992
control_change channel=0 control=7 value=62 time=38.41352705200006
control_change channel=0 control=93 value=24 time=38.41447259100005
control_change channel=1 control=7 value=24 time=38.41545191000023
note_on channel=0 note=48 velocity=80 time=38.73947519500052
note_on channel=1 note=60 velocity=80 time=38.74046126700068
note_on channel=0 note=48 velocity=0 time=38.85751145799986
note_on channel=1 note=60 velocity=0 time=38.85846968500027
control_change channel=0 control=0 value=0 time=39.19346825899993
control_change channel=0 control=32 value=112 time=39.194446352999876
program_change channel=0 program=18 time=39.1945567140001
control_change channel=1 control=0 value=0 time=39.19542684499993
control_change channel=1 control=32 value=114 time=39.19644705000064
program_change channel=1 program=18 time=39.1974543160004
control_change channel=0 control=7 value=70 time=39.28350640100052
control_change channel=0 control=93 value=48 time=39.28445041900068
control_change channel=1 control=7 value=40 time=39.28542734400071
note_on channel=0 note=48 velocity=80 time=39.56445317999987
note_on channel=1 note=60 velocity=80 time=39.56544243400003
note_on channel=0 note=48 velocity=0 time=39.6705127969999
note_on channel=1 note=60 velocity=0 time=39.671448672000224
control_change channel=0 control=0 value=0 time=39.99344719800047
control_change channel=0 control=32 value=114 time=39.99444386699997
program_change channel=0 program=18 time=39.9954175339999
control_change channel=1 control=0 value=0 time=39.996430011000484
control_change channel=1 control=32 value=112 time=39.996528612000475
program_change channel=1 program=18 time=39.99741125700075
control_change channel=0 control=7 value=54 time=40.083486977000575
control_change channel=0 control=93 value=0 time=40.08443908500067
control_change channel=1 control=7 value=30 time=40.08540853000068
control_change channel=1 control=91 value=36 time=40.0864275820004
control_change channel=1 control=93 value=50 time=40.08653976700043
note_on channel=0 note=48 velocity=80 time=40.39245447900066
note_on channel=1 note=60 velocity=80 time=40.393430824999996
note_on channel=0 note=48 velocity=0 time=40.50647442800073
note_on channel=1 note=60 velocity=0 time=40.5074236370001
control_change channel=0 control=0 value=0 time=40.85342455099999
control_change channel=0 control=32 value=118 time=40.85442808700009
program_change channel=0 program=16 time=40.85454059499989
control_change channel=1 control=0 value=0 time=40.85538569400069
control_change channel=1 control=32 value=119 time=40.85641063900039
program_change channel=1 program=16 time=40.856497622999996
control_change channel=0 control=7 value=70 time=40.943424474000494
control_change channel=0 control=93 value=34 time=40.94442371000059
control_change channel=1 control=91 value=28 time=40.945396326000264
control_change channel=1 control=93 value=0 time=40.94548349500019
note_on channel=0 note=48 velocity=80 time=41.262415466000675
note_on channel=1 note=72 velocity=80 time=41.26340363899999
note_on channel=0 note=48 velocity=0 time=41.36242312700051
note_on channel=1 note=72 velocity=0 time=41.36340461800046
control_change channel=0 control=0 value=0 time=41.71341640599985
control_change channel=0 control=32 value=119 time=41.71438800300075
program_change channel=0 program=16 time=41.71537300900036
control_change channel=1 control=0 value=0 time=41.716412378000314
control_change channel=1 control=32 value=118 time=41.71651199400003
program_change channel=1 program=16 time=41.717401116000474
control_change channel=0 control=7 value=64 time=41.803450723000424
control_change channel=1 control=7 value=38 time=41.80439343299986
control_change channel=1 control=91 value=32 time=41.80537086700042
control_change channel=1 control=93 value=30 time=41.80545474000064
note_on channel=0 note=48 velocity=80 time=42.15438853200067
note_on channel=1 note=60 velocity=80 time=42.15538483199998
note_on channel=0 note=48 velocity=0 time=42.285429814000054
note_on channel=1 note=60 velocity=0 time=42.28637563600023
control_change channel=0 control=0 value=0 time=42.58338206700046
control_change channel=0 control=32 value=114 time=42.58436759600045
program_change channel=0 program=16 time=42.58534116999999
control_change channel=1 control=0 value=0 time=42.58542496700011
control_change channel=1 control=32 value=112 time=42.586362846000156
program_change channel=1 program=13 time=42.587338854000336
control_change channel=0 control=7 value=78 time=42.67442202500024
control_change channel=0 control=93 value=0 time=42.67455031500049
control_change channel=1 control=7 value=60 time=42.67536492999989
control_change channel=1 control=91 value=30 time=42.67634580699996
control_change channel=1 control=93 value=0 time=42.67642989000069
note_on channel=0 note=48 velocity=80 time=42.97936561700044
note_on channel=1 note=60 velocity=80 time=42.98036023700024
note_on channel=0 note=48 velocity=0 time=43.1054030410005
note_on channel=1 note=60 velocity=0 time=43.10635596500015
control_change channel=0 control=0 value=0 time=43.414378486000714
control_change channel=0 control=32 value=112 time=43.41449914600071
program_change channel=0 program=19 time=43.41532969800028
control_change channel=1 control=0 value=0 time=43.4163341200001
control_change channel=1 control=32 value=113 time=43.417354033000265
program_change channel=1 program=52 time=43.41744239000036
control_change channel=0 control=7 value=70 time=43.50339711700053
control_change channel=0 control=91 value=40 time=43.50434193900037
control_change channel=1 control=7 value=62 time=43.505320171000676
control_change channel=1 control=91 value=70 time=43.50541218700073
note_on channel=0 note=60 velocity=80 time=43.835371881000356
note_on channel=1 note=60 velocity=80 time=43.836330196000745
note_on channel=0 note=60 velocity=0 time=43.98234167100054
note_on channel=1 note=60 velocity=0 time=43.98245219599994
control_change channel=0 control=0 value=0 time=44.253342423000504
control_change channel=0 control=32 value=113 time=44.25434250000035
program_change channel=0 program=19 time=44.25445027200021
control_change channel=1 control=0 value=0 time=44.25530796700059
control_change channel=1 control=32 value=112 time=44.25629702700007
program_change channel=1 program=53 time=44.25638201299989
control_change channel=0 control=91 value=32 time=44.343336820999866
control_change channel=1 control=7 value=60 time=44.34483951400034
control_change channel=1 control=91 value=50 time=44.34527544299999
note_on channel=0 note=60 velocity=80 time=44.67132907500036
note_on channel=1 note=60 velocity=80 time=44.6723078089999
note_on channel=0 note=60 velocity=0 time=44.795355809000284
note_on channel=1 note=60 velocity=0 time=44.79630573000031
control_change channel=0 control=0 value=0 time=45.08231394300037
control_change channel=0 control=32 value=112 time=45.083296838000024
program_change channel=0 program=20 time=45.08427528100037
control_change channel=1 control=0 value=0 time=45.08529702800024
control_change channel=1 control=32 value=112 time=45.085391272999914
program_change channel=1 program=21 time=45.0862634340001
control_change channel=0 control=7 value=76 time=45.17335209200064
control_change channel=0 control=91 value=24 time=45.1742965200001
control_change channel=0 control=93 value=20 time=45.175278047000575
control_change channel=1 control=91 value=32 time=45.17537517200071
control_change channel=1 control=93 value=50 time=45.17632428900015
note_on channel=0 note=60 velocity=80 time=45.50032272699991
note_on channel=1 note=60 velocity=80 time=45.501302229999965
note_on channel=0 note=60 velocity=0 time=45.651340131000325
note_on channel=1 note=60 velocity=0 time=45.65226437399997
control_change channel=0 control=0 value=0 time=45.9233222820003
control_change channel=0 control=32 value=113 time=45.92343185300069
program_change channel=0 program=21 time=45.92425198700039
control_change channel=0 control=7 value=106 time=46.0133293480003
control_change channel=0 control=91 value=22 time=46.014275236000685
control_change channel=0 control=93 value=0 time=46.01525038300042
control_change channel=1 control=7 value=64 time=46.0162679390005
control_change channel=1 control=91 value=22 time=46.0163622099999
control_change channel=1 control=93 value=40 time=46.01724650400047
note_on channel=0 note=60 velocity=80 time=46.321283942000264
note_on channel=1 note=48 velocity=80 time=46.322263988000486
note_on channel=0 note=60 velocity=0 time=46.4503132180007
note_on channel=1 note=48 velocity=0 time=46.451265824000075
control_change channel=0 control=0 value=0 time=46.73226626900032
control_change channel=0 control=32 value=112 time=46.733252140999866
program_change channel=0 program=21 time=46.73423249500047
control_change channel=1 control=0 value=0 time=46.73528414700013
control_change channel=1 control=32 value=112 time=46.73540508400038
program_change channel=1 program=48 time=46.73623040400071
control_change channel=0 control=7 value=86 time=46.823300160000144
control_change channel=1 control=7 value=70 time=46.82425433900062
control_change channel=1 control=91 value=60 time=46.82434339300016
control_change channel=1 control=93 value=0 time=46.82523205899997
note_on channel=0 note=60 velocity=80 time=47.13725121900006
note_on channel=1 note=60 velocity=80 time=47.13824807200035
note_on channel=0 note=60 velocity=0 time=47.24629654799992
note_on channel=1 note=60 velocity=0 time=47.24724820600022
control_change channel=0 control=0 value=0 time=47.59328527700018
control_change channel=0 control=32 value=113 time=47.59339368000019
program_change channel=0 program=23 time=47.59420731699993
control_change channel=1 control=0 value=0 time=47.59522057899994
control_change channel=1 control=32 value=112 time=47.59623546500006
program_change channel=1 program=21 time=47.596323606000624
control_change channel=0 control=7 value=94 time=47.68330523500026
control_change channel=1 control=91 value=22 time=47.684224949000054
note_on channel=0 note=48 velocity=80 time=47.96523177800009
note_on channel=1 note=60 velocity=80 time=47.96621723099997
note_on channel=0 note=48 velocity=0 time=48.093270478000704
note_on channel=1 note=60 velocity=0 time=48.09420158800003
control_change channel=0 control=0 value=0 time=48.432252217000496
control_change channel=0 control=32 value=112 time=48.43322650400023
program_change channel=0 program=22 time=48.43332439200003
control_change channel=1 control=0 value=0 time=48.4341830809999
control_change channel=1 control=32 value=112 time=48.4352093790003
program_change channel=1 program=48 time=48.43618022700048
control_change channel=0 control=7 value=92 time=48.52221886799998
control_change channel=0 control=91 value=26 time=48.523208711000734
control_change channel=1 control=91 value=50 time=48.52417900100045
note_on channel=0 note=60 velocity=80 time=48.80921852300071
note_on channel=1 note=60 velocity=80 time=48.8102028330004
note_on channel=0 note=60 velocity=0 time=48.94320651399994
note_on channel=1 note=60 velocity=0 time=48.94418794900048
control_change channel=0 control=0 value=0 time=49.263204737000706
control_change channel=0 control=32 value=112 time=49.26418243600074
program_change channel=0 program=24 time=49.26427056800003
control_change channel=0 control=91 value=32 time=49.35321392900005
control_change channel=1 control=7 value=44 time=49.35332047200063
control_change channel=1 control=91 value=70 time=49.35418584800027
note_on channel=0 note=48 velocity=80 time=49.678202498000246
note_on channel=1 note=48 velocity=80 time=49.679182534000574
note_on channel=0 note=48 velocity=0 time=49.80922166400069
note_on channel=1 note=48 velocity=0 time=49.81017441899985
control_change channel=0 control=0 value=0 time=50.092182774999856
control_change channel=0 control=32 value=112 time=50.09316642900012
program_change channel=0 program=25 time=50.09326303099988
control_change channel=0 control=7 value=100 time=50.18321511400063
control_change channel=0 control=91 value=28 time=50.18332942500001
note_on channel=0 note=48 velocity=80 time=50.496193859000414
note_on channel=1 note=48 velocity=80 time=50.49715514000036
note_on channel=0 note=48 velocity=0 time=50.601203231
note_on channel=1 note=48 velocity=0 time=50.60215030800009
control_change channel=0 control=0 value=0 time=50.892161268000564
control_change channel=0 control=32 value=113 time=50.89315217800049
program_change channel=0 program=25 time=50.89324190900061
control_change channel=0 control=7 value=78 time=50.98219324799993
control_change channel=0 control=91 value=26 time=50.98315227000057
control_change channel=0 control=93 value=24 time=50.983242799000436
control_change channel=1 control=91 value=50 time=50.984114554999906
note_on channel=0 note=48 velocity=80 time=51.300174325000626
note_on channel=1 note=48 velocity=80 time=51.30114689000038
note_on channel=0 note=48 velocity=0 time=51.418182417000025
note_on channel=1 note=48 velocity=0 time=51.41911408500073
control_change channel=0 control=0 value=0 time=51.72214733100009
control_change channel=0 control=32 value=112 time=51.72312888400029
program_change channel=0 program=26 time=51.72321975200066
control_change channel=1 control=0 value=0 time=51.7240898630007
control_change channel=1 control=32 value=114 time=51.72509313200044
program_change channel=1 program=73 time=51.725167008000426
control_change channel=0 control=7 value=120 time=51.812173280000025
control_change channel=0 control=91 value=24 time=51.81311511500007
control_change channel=0 control=93 value=0 time=51.814102914000614
control_change channel=1 control=7 value=62 time=51.815136498000356
control_change channel=1 control=91 value=40 time=51.81522954400043
note_on channel=0 note=48 velocity=80 time=52.1321222280003
note_on channel=1 note=60 velocity=80 time=52.133117037000375
note_on channel=0 note=48 velocity=0 time=52.26615850899998
note_on channel=1 note=60 velocity=0 time=52.2671164960002
control_change channel=0 control=0 value=0 time=52.542111370000384
control_change channel=0 control=32 value=113 time=52.5431329740004
program_change channel=0 program=26 time=52.54324310900029
control_change channel=1 control=0 value=0 time=52.544085698000345
control_change channel=1 control=32 value=117 time=52.54507634099991
program_change channel=1 program=27 time=52.545156709000366
control_change channel=0 control=7 value=92 time=52.63315471500027
control_change channel=1 control=7 value=90 time=52.634103381000386
control_change channel=1 control=91 value=32 time=52.63419114899989
control_change channel=1 control=93 value=20 time=52.63507105700046
note_on channel=0 note=48 velocity=80 time=53.00409921800019
note_on channel=1 note=48 velocity=80 time=53.00509421700008
note_on channel=0 note=48 velocity=0 time=53.143097611000485
note_on channel=1 note=48 velocity=0 time=53.14408706500035
control_change channel=0 control=0 value=0 time=53.42211238800064
control_change channel=0 control=32 value=112 time=53.4230635290005
program_change channel=0 program=27 time=53.42314789900047
control_change channel=0 control=7 value=79 time=53.51212558200041
control_change channel=0 control=91 value=30 time=53.51308357900052
control_change channel=0 control=93 value=20 time=53.51405270000032
control_change channel=1 control=7 value=48 time=53.514136593999865
control_change channel=1 control=91 value=38 time=53.515076759000294
control_change channel=1 control=93 value=60 time=53.51604445000066
note_on channel=0 note=48 velocity=80 time=53.8280725730001
note_on channel=1 note=48 velocity=80 time=53.82907935700041
note_on channel=0 note=48 velocity=0 time=53.952070663000086
note_on channel=1 note=48 velocity=0 time=53.953074516000015
control_change channel=0 control=0 value=0 time=54.263077114000225
control_change channel=0 control=32 value=117 time=54.263188724999964
program_change channel=0 program=27 time=54.26405981500011
control_change channel=1 control=0 value=0 time=54.265031390999866
control_change channel=1 control=32 value=112 time=54.26605165199999
program_change channel=1 program=28 time=54.26613852800074
control_change channel=0 control=7 value=98 time=54.35207842
control_change channel=0 control=91 value=32 time=54.35306317600043
control_change channel=0 control=93 value=30 time=54.35315355700004
control_change channel=1 control=7 value=60 time=54.35402339100074
control_change channel=1 control=93 value=50 time=54.35502637399986
note_on channel=0 note=48 velocity=80 time=54.656060788000104
note_on channel=1 note=48 velocity=80 time=54.65704202300003
note_on channel=0 note=48 velocity=0 time=54.77405308700054
note_on channel=1 note=48 velocity=0 time=54.77504319200034
control_change channel=0 control=0 value=0 time=55.05206796099992
control_change channel=0 control=32 value=112 time=55.052176574999976
program_change channel=0 program=28 time=55.0530137830001
control_change channel=1 control=0 value=0 time=55.054045927000516
control_change channel=1 control=32 value=112 time=55.05505039499985
program_change channel=1 program=34 time=55.055155781000394
control_change channel=0 control=7 value=70 time=55.14204733600036
control_change channel=0 control=93 value=20 time=55.14215625700035
control_change channel=1 control=7 value=80 time=55.143030902000646
control_change channel=1 control=91 value=18 time=55.144014868999875
control_change channel=1 control=93 value=40 time=55.145028304000334
note_on channel=0 note=48 velocity=80 time=55.442058727000585
note_on channel=1 note=48 velocity=80 time=55.44301140400057
note_on channel=0 note=48 velocity=0 time=55.56303292700068
note_on channel=1 note=48 velocity=0 time=55.56402102900029
control_change channel=0 control=0 value=0 time=55.862026198999956
control_change channel=0 control=32 value=112 time=55.86213474500073
program_change channel=0 program=29 time=55.86299439800041
control_change channel=1 control=0 value=0 time=55.86399949099996
control_change channel=1 control=32 value=112 time=55.865014290000545
program_change channel=1 program=81 time=55.865106086000196
control_change channel=0 control=7 value=82 time=55.9530270690002
control_change channel=0 control=91 value=36 time=55.95313556000019
control_change channel=0 control=93 value=64 time=55.95399299300061
control_change channel=1 control=91 value=36 time=55.95500289300071
control_change channel=1 control=93 value=90 time=55.95509343899994
note_on channel=0 note=48 velocity=80 time=56.28801829800068
note_on channel=1 note=48 velocity=80 time=56.28900722000071
note_on channel=0 note=48 velocity=0 time=56.404053170000225
note_on channel=1 note=48 velocity=0 time=56.40416103999996
control_change channel=0 control=0 value=0 time=56.7120101090004
control_change channel=0 control=32 value=112 time=56.71299748799993
program_change channel=0 program=30 time=56.713085901999875
control_change channel=0 control=7 value=86 time=56.80204282400064
control_change channel=0 control=91 value=34 time=56.80299263800043
control_change channel=0 control=93 value=80 time=56.803969020000295
control_change channel=1 control=7 value=64 time=56.80405782300022
control_change channel=1 control=91 value=34 time=56.80497698900035
control_change channel=1 control=93 value=100 time=56.80596008900011
note_on channel=0 note=48 velocity=80 time=57.10701091900046
note_on channel=1 note=48 velocity=80 time=57.10798048600009
note_on channel=0 note=48 velocity=0 time=57.23702814100034
note_on channel=1 note=48 velocity=0 time=57.2379834430003
control_change channel=0 control=0 value=0 time=57.51200230199993
control_change channel=0 control=32 value=112 time=57.512977142000636
program_change channel=0 program=32 time=57.513064546999885
control_change channel=1 control=0 value=0 time=57.51394400400022
control_change channel=1 control=32 value=112 time=57.51498312300009
program_change channel=1 program=28 time=57.515087939000296
control_change channel=0 control=7 value=94 time=57.60202353400018
control_change channel=0 control=91 value=8 time=57.6021336950007
control_change channel=0 control=93 value=0 time=57.602948254000694
control_change channel=1 control=91 value=28 time=57.60395467500075
control_change channel=1 control=93 value=0 time=57.604972411000745
note_on channel=0 note=48 velocity=80 time=57.917005420999885
note_on channel=1 note=48 velocity=80 time=57.91794324800048
note_on channel=0 note=48 velocity=0 time=58.05400971100062
note_on channel=1 note=48 velocity=0 time=58.05494804600039
control_change channel=0 control=0 value=0 time=58.30096946200047
control_change channel=0 control=32 value=112 time=58.301949652000076
program_change channel=0 program=33 time=58.30292840200036
control_change channel=0 control=7 value=104 time=58.391999749000206
control_change channel=1 control=91 value=30 time=58.392956828000024
control_change channel=1 control=93 value=40 time=58.39392771800067
note_on channel=0 note=48 velocity=80 time=58.690958219000095
note_on channel=1 note=48 velocity=80 time=58.69196141100019
note_on channel=0 note=48 velocity=0 time=58.83997613200063
note_on channel=1 note=48 velocity=0 time=58.840935435000574
control_change channel=0 control=0 value=0 time=59.08094434200029
control_change channel=0 control=32 value=112 time=59.08193360699988
program_change channel=0 program=34 time=59.08290848300021
control_change channel=0 control=7 value=90 time=59.1709775140007
control_change channel=1 control=7 value=70 time=59.171926661000725
control_change channel=1 control=91 value=28 time=59.172906851000334
control_change channel=1 control=93 value=60 time=59.17391486999986
note_on channel=0 note=48 velocity=80 time=59.4740351800001
note_on channel=1 note=48 velocity=80 time=59.47415959099999
note_on channel=0 note=48 velocity=0 time=59.61898457500047
note_on channel=1 note=48 velocity=0 time=59.61989594700026
control_change channel=0 control=0 value=0 time=59.88092071200026
control_change channel=0 control=32 value=112 time=59.881909951000125
program_change channel=0 program=35 time=59.88288834300056
control_change channel=1 control=0 value=0 time=59.882974374000696
control_change channel=1 control=32 value=112 time=59.88390683099988
program_change channel=1 program=26 time=59.88490390000061
control_change channel=0 control=7 value=88 time=59.97195626700068
control_change channel=0 control=93 value=12 time=59.972066504000395
control_change channel=1 control=7 value=90 time=59.972882744000344
control_change channel=1 control=91 value=24 time=59.97388518900061
control_change channel=1 control=93 value=30 time=59.97489130200029
note_on channel=0 note=48 velocity=80 time=60.26190942700032
note_on channel=1 note=48 velocity=80 time=60.26291204500012
note_on channel=0 note=48 velocity=0 time=60.39192394300062
note_on channel=1 note=48 velocity=0 time=60.39290399000038
control_change channel=0 control=0 value=0 time=60.70090304099995
control_change channel=0 control=32 value=112 time=60.70188516200051
program_change channel=0 program=36 time=60.702861355000096
control_change channel=1 control=0 value=0 time=60.70294558200021
control_change channel=1 control=32 value=112 time=60.703877558000386
program_change channel=1 program=27 time=60.70485553400067
control_change channel=0 control=7 value=98 time=60.79193592000047
control_change channel=0 control=93 value=0 time=60.7920461270005
control_change channel=1 control=7 value=60 time=60.79288405300031
control_change channel=1 control=93 value=70 time=60.793861552000635
note_on channel=0 note=48 velocity=80 time=61.11889739400067
note_on channel=1 note=48 velocity=80 time=61.119873433000066
note_on channel=0 note=48 velocity=0 time=61.25492253900029
note_on channel=1 note=48 velocity=0 time=61.25587532500049
control_change channel=0 control=0 value=0 time=61.52189816400005
control_change channel=0 control=32 value=112 time=61.52200582500063
program_change channel=0 program=38 time=61.522864795000714
control_change channel=1 control=0 value=0 time=61.52384664600049
control_change channel=1 control=32 value=115 time=61.52393223099989
program_change channel=1 program=81 time=61.52485145800074
control_change channel=0 control=7 value=85 time=61.61191319600039
control_change channel=0 control=93 value=12 time=61.61286047300018
control_change channel=1 control=7 value=62 time=61.61384023200026
control_change channel=1 control=91 value=20 time=61.61391972999991
control_change channel=1 control=93 value=60 time=61.61485184899993
note_on channel=0 note=48 velocity=80 time=61.903870251000626
note_on channel=1 note=48 velocity=80 time=61.90485117300068
note_on channel=0 note=48 velocity=0 time=62.03390162600044
note_on channel=1 note=48 velocity=0 time=62.03400945000067
control_change channel=0 control=0 value=0 time=62.34085234500071
control_change channel=0 control=32 value=113 time=62.34186067200062
program_change channel=0 program=38 time=62.34282630400048
control_change channel=0 control=7 value=92 time=62.43189055400035
control_change channel=0 control=93 value=0 time=62.43286319000072
control_change channel=1 control=7 value=58 time=62.43296567000016
control_change channel=1 control=93 value=80 time=62.43381614000009
note_on channel=0 note=48 velocity=80 time=62.71185538500049
note_on channel=1 note=48 velocity=80 time=62.71283967900035
note_on channel=0 note=48 velocity=0 time=62.83087635100037
note_on channel=1 note=48 velocity=0 time=62.83183091899991
control_change channel=0 control=0 value=0 time=63.140833009000744
control_change channel=0 control=32 value=113 time=63.14184026500061
program_change channel=0 program=39 time=63.14193081600024
control_change channel=1 control=0 value=0 time=63.142793906000406
control_change channel=1 control=32 value=119 time=63.1437924210004
program_change channel=1 program=16 time=63.14480474500033
control_change channel=0 control=7 value=84 time=63.230874185000175
control_change channel=1 control=7 value=70 time=63.23182722599995
control_change channel=1 control=91 value=26 time=63.232796895999854
control_change channel=1 control=93 value=20 time=63.233817014000124
note_on channel=0 note=48 velocity=80 time=63.54382556100063
note_on channel=1 note=48 velocity=80 time=63.54481674700037
note_on channel=0 note=48 velocity=0 time=63.6658558070003
note_on channel=1 note=48 velocity=0 time=63.66682035300073
control_change channel=0 control=0 value=0 time=63.980847071000426
control_change channel=0 control=32 value=116 time=63.9809553820005
program_change channel=0 program=49 time=63.98180538999986
control_change channel=1 control=0 value=0 time=63.982780020000064
control_change channel=1 control=32 value=112 time=63.98379479899995
program_change channel=1 program=48 time=63.983883151000555
control_change channel=0 control=7 value=127 time=64.07085148500028
control_change channel=0 control=91 value=40 time=64.07179975100007
control_change channel=1 control=91 value=40 time=64.0727751860004
control_change channel=1 control=93 value=0 time=64.07286096000007
note_on channel=0 note=60 velocity=80 time=64.36881170800007
note_on channel=1 note=60 velocity=80 time=64.36979028299993
note_on channel=0 note=60 velocity=0 time=64.48489850900023
note_on channel=1 note=60 velocity=0 time=64.48580258900074
control_change channel=0 control=0 value=0 time=64.83082316400032
control_change channel=0 control=32 value=112 time=64.83283795300031
program_change channel=0 program=48 time=64.83294366600057
control_change channel=1 control=0 value=0 time=64.83335944100054
control_change channel=1 control=32 value=113 time=64.83373469400067
program_change channel=1 program=89 time=64.83474390300034
control_change channel=0 control=7 value=86 time=64.92078864900031
control_change channel=1 control=7 value=80 time=64.92178106000028
control_change channel=1 control=93 value=30 time=64.92275580800015
note_on channel=0 note=60 velocity=80 time=65.23178238700075
note_on channel=1 note=60 velocity=80 time=65.23274393500014
note_on channel=0 note=60 velocity=0 time=65.34377483500066
note_on channel=1 note=60 velocity=0 time=65.34579411800041
control_change channel=0 control=0 value=0 time=65.68077513200024
control_change channel=0 control=32 value=112 time=65.68175889800023
program_change channel=0 program=49 time=65.68184723500053
control_change channel=1 control=0 value=0 time=65.68273648000013
control_change channel=1 control=32 value=112 time=65.68375365700012
program_change channel=1 program=48 time=65.68384303400035
control_change channel=0 control=7 value=90 time=65.77082210300068
control_change channel=1 control=7 value=50 time=65.77173519600001
control_change channel=1 control=91 value=44 time=65.77181659400048
control_change channel=1 control=93 value=0 time=65.77273225499994
note_on channel=0 note=60 velocity=80 time=66.07179257900043
note_on channel=1 note=60 velocity=80 time=66.07272564200048
note_on channel=0 note=60 velocity=0 time=66.17778861900024
note_on channel=1 note=60 velocity=0 time=66.17875118600023
control_change channel=0 control=0 value=0 time=66.49078149100023
control_change channel=0 control=32 value=112 time=66.4908890430006
program_change channel=0 program=50 time=66.49170939800024
control_change channel=1 control=0 value=0 time=66.49273196500053
control_change channel=1 control=32 value=0 time=66.49373825300063
program_change channel=1 program=51 time=66.49383105300058
control_change channel=0 control=7 value=96 time=66.58078320999994
control_change channel=1 control=7 value=80 time=66.58174064300056
control_change channel=1 control=91 value=48 time=66.58182792900061
control_change channel=1 control=93 value=50 time=66.58270713000002
note_on channel=0 note=60 velocity=80 time=66.86374358800003
note_on channel=1 note=60 velocity=80 time=66.86473447700064
note_on channel=0 note=60 velocity=0 time=66.98573644800035
note_on channel=1 note=60 velocity=0 time=66.98672631800036
control_change channel=0 control=0 value=0 time=67.3107355330003
control_change channel=0 control=32 value=113 time=67.31172119100029
program_change channel=0 program=49 time=67.31181108500004
control_change channel=1 control=0 value=0 time=67.3126845730003
control_change channel=1 control=32 value=112 time=67.31369596400054
program_change channel=1 program=48 time=67.31377660500038
control_change channel=0 control=7 value=98 time=67.4007608030006
control_change channel=1 control=7 value=62 time=67.40172618399993
control_change channel=1 control=91 value=40 time=67.40181779000068
control_change channel=1 control=93 value=36 time=67.40269302500019
note_on channel=0 note=60 velocity=80 time=67.68172406100075
note_on channel=1 note=60 velocity=80 time=67.68270816099994
note_on channel=0 note=60 velocity=0 time=67.78574942600062
note_on channel=1 note=60 velocity=0 time=67.78670232400054
control_change channel=0 control=0 value=0 time=68.10074373299994
control_change channel=0 control=32 value=112 time=68.10085379200063
program_change channel=0 program=44 time=68.10170489200027
control_change channel=1 control=0 value=0 time=68.10267928100075
control_change channel=1 control=32 value=112 time=68.10276645900012
program_change channel=1 program=45 time=68.10368263200053
control_change channel=0 control=7 value=112 time=68.19073828799992
control_change channel=1 control=7 value=80 time=68.19168906499999
control_change channel=1 control=93 value=0 time=68.19266373600021
note_on channel=0 note=60 velocity=80 time=68.48072234700066
note_on channel=1 note=60 velocity=80 time=68.48168540200004
note_on channel=0 note=60 velocity=0 time=68.60272792100022
note_on channel=1 note=60 velocity=0 time=68.60367915900042
control_change channel=0 control=0 value=0 time=68.9107004080006
control_change channel=0 control=32 value=112 time=68.91080615600004
program_change channel=0 program=45 time=68.91167179900003
control_change channel=0 control=7 value=104 time=69.00072123000064
control_change channel=0 control=91 value=34 time=69.00083191800059
control_change channel=1 control=7 value=104 time=69.00164853700062
control_change channel=1 control=91 value=35 time=69.00265367700013
note_on channel=0 note=60 velocity=80 time=69.28068016799989
note_on channel=1 note=48 velocity=80 time=69.28164514900072
note_on channel=0 note=60 velocity=0 time=69.40370462900046
note_on channel=1 note=48 velocity=0 time=69.40466533700055
control_change channel=0 control=0 value=0 time=69.71067589599988
control_change channel=0 control=32 value=112 time=69.71165245800057
program_change channel=0 program=40 time=69.71262584800024
control_change channel=1 control=0 value=0 time=69.71270976800042
control_change channel=1 control=32 value=112 time=69.71364299400011
program_change channel=1 program=48 time=69.71462485400025
control_change channel=0 control=7 value=96 time=69.80070281600001
control_change channel=0 control=91 value=40 time=69.80081293600051
control_change channel=1 control=7 value=80 time=69.80164261700065
control_change channel=1 control=91 value=42 time=69.8026222690005
note_on channel=0 note=60 velocity=80 time=70.0866889859999
note_on channel=1 note=60 velocity=80 time=70.08764246800001
note_on channel=0 note=60 velocity=0 time=70.20769097199991
note_on channel=1 note=60 velocity=0 time=70.20779882199986
control_change channel=0 control=0 value=0 time=70.50066844200046
control_change channel=0 control=32 value=112 time=70.50077590199999
program_change channel=0 program=42 time=70.50163797300047
control_change channel=0 control=7 value=112 time=70.59067833400059
control_change channel=0 control=91 value=36 time=70.59162773200023
control_change channel=1 control=91 value=40 time=70.59260352000001
note_on channel=0 note=48 velocity=80 time=70.8916322390005
note_on channel=1 note=48 velocity=80 time=70.89261595400058
note_on channel=0 note=48 velocity=0 time=71.0106645599999
note_on channel=1 note=48 velocity=0 time=71.0116217220002
control_change channel=0 control=0 value=0 time=71.31063952000022
control_change channel=0 control=32 value=112 time=71.31075269400026
program_change channel=0 program=43 time=71.31158292300006
control_change channel=0 control=7 value=118 time=71.40066034300071
control_change channel=0 control=91 value=32 time=71.40076949400009
note_on channel=0 note=36 velocity=80 time=71.70665013300004
note_on channel=1 note=48 velocity=80 time=71.70863258300051
note_on channel=0 note=36 velocity=0 time=71.80864860600013
note_on channel=1 note=48 velocity=0 time=71.80960450200018
control_change channel=0 control=0 value=0 time=72.13060714200037
control_change channel=0 control=32 value=112 time=72.13071767700058
program_change channel=0 program=105 time=72.13156009100021
control_change channel=1 control=0 value=0 time=72.13256748100048
control_change channel=1 control=32 value=112 time=72.13265161600066
program_change channel=1 program=25 time=72.13355409199994
control_change channel=0 control=7 value=100 time=72.21963827900072
control_change channel=0 control=91 value=30 time=72.2205876930002
control_change channel=1 control=7 value=64 time=72.22156319400074
control_change channel=1 control=93 value=64 time=72.22260728800029
note_on channel=0 note=48 velocity=80 time=72.53758457799995
note_on channel=1 note=48 velocity=80 time=72.53858635100005
note_on channel=0 note=48 velocity=0 time=72.65162448699994
note_on channel=1 note=48 velocity=0 time=72.65257830300015
control_change channel=0 control=0 value=0 time=72.94957572200019
control_change channel=0 control=32 value=112 time=72.95058652399985
program_change channel=0 program=46 time=72.95067703400036
control_change channel=1 control=0 value=0 time=72.95157261700024
control_change channel=1 control=32 value=40 time=72.95254674500029
program_change channel=1 program=46 time=72.95355251500041
control_change channel=0 control=7 value=95 time=73.04061970100065
control_change channel=0 control=91 value=34 time=73.04072978000022
control_change channel=0 control=93 value=10 time=73.04153932200006
control_change channel=1 control=7 value=86 time=73.04257315700033
control_change channel=1 control=91 value=32 time=73.04357887700007
control_change channel=1 control=93 value=34 time=73.04367134899985
note_on channel=0 note=60 velocity=80 time=73.35956660400007
note_on channel=1 note=60 velocity=80 time=73.3605619050004
note_on channel=0 note=60 velocity=0 time=73.46860684100011
note_on channel=1 note=60 velocity=0 time=73.46955616200012
control_change channel=0 control=0 value=0 time=73.76955668700066
control_change channel=0 control=32 value=112 time=73.77056616700065
program_change channel=0 program=55 time=73.77065780900011
control_change channel=1 control=0 value=0 time=73.7715164780002
control_change channel=1 control=32 value=112 time=73.7725295350001
program_change channel=1 program=47 time=73.77352365700062
control_change channel=0 control=7 value=98 time=73.86058699500063
control_change channel=0 control=91 value=50 time=73.86069620700073
control_change channel=0 control=93 value=0 time=73.86154064099992
control_change channel=1 control=7 value=80 time=73.86256069200044
control_change channel=1 control=91 value=50 time=73.86356171700027
control_change channel=1 control=93 value=0 time=73.86366162400009
note_on channel=0 note=60 velocity=80 time=74.15954413800046
note_on channel=1 note=48 velocity=80 time=74.16052759700051
note_on channel=0 note=60 velocity=0 time=74.27459131900014
note_on channel=1 note=48 velocity=0 time=74.27655266700003
control_change channel=0 control=0 value=0 time=74.58953471099994
control_change channel=0 control=32 value=112 time=74.5905452320003
program_change channel=0 program=52 time=74.59063650500048
control_change channel=1 control=0 value=0 time=74.59149325100043
control_change channel=1 control=32 value=112 time=74.59252847000062
program_change channel=1 program=53 time=74.59261736100052
control_change channel=0 control=7 value=94 time=74.6795739070003
control_change channel=0 control=91 value=46 time=74.68052381800044
control_change channel=1 control=7 value=70 time=74.68149608100066
note_on channel=0 note=60 velocity=80 time=75.00851953900019
note_on channel=1 note=60 velocity=80 time=75.0095096290006
note_on channel=0 note=60 velocity=0 time=75.11155743700056
note_on channel=1 note=60 velocity=0 time=75.1125108060005
control_change channel=0 control=0 value=0 time=75.44952695000029
control_change channel=0 control=32 value=113 time=75.45053057400037
program_change channel=0 program=52 time=75.45062336800038
control_change channel=1 control=0 value=0 time=75.45147078900027
control_change channel=1 control=32 value=112 time=75.45250365599986
program_change channel=1 program=52 time=75.45259422700019
control_change channel=0 control=7 value=100 time=75.53950885199993
control_change channel=0 control=91 value=40 time=75.54049759900045
control_change channel=1 control=7 value=50 time=75.54147843999999
control_change channel=1 control=91 value=40 time=75.54156693000004
note_on channel=0 note=60 velocity=80 time=75.84449875300015
note_on channel=1 note=60 velocity=80 time=75.84548754700063
note_on channel=0 note=60 velocity=0 time=75.96052639200025
note_on channel=1 note=60 velocity=0 time=75.96149604600032
control_change channel=0 control=0 value=0 time=76.27149138700042
control_change channel=0 control=32 value=112 time=76.27247897600046
program_change channel=0 program=53 time=76.2734449059999
control_change channel=0 control=7 value=96 time=76.36952305200066
control_change channel=1 control=7 value=64 time=76.37052329300059
control_change channel=1 control=91 value=55 time=76.37146421600028
note_on channel=0 note=60 velocity=80 time=76.65148649000002
note_on channel=1 note=60 velocity=80 time=76.65246918000048
note_on channel=0 note=60 velocity=0 time=76.75547720900067
note_on channel=1 note=60 velocity=0 time=76.75646954400054
control_change channel=0 control=0 value=0 time=77.12146104900057
control_change channel=0 control=32 value=112 time=77.1224618340002
program_change channel=0 program=54 time=77.1225775339999
control_change channel=1 control=0 value=0 time=77.12343106800017
control_change channel=1 control=32 value=118 time=77.12445688500065
program_change channel=1 program=88 time=77.12542172700068
control_change channel=0 control=7 value=90 time=77.21950427000047
control_change channel=0 control=91 value=50 time=77.22045628700016
control_change channel=1 control=7 value=90 time=77.22142680700017
control_change channel=1 control=91 value=50 time=77.22151174700048
control_change channel=1 control=93 value=40 time=77.22244600800059
note_on channel=0 note=60 velocity=80 time=77.49747377299991
note_on channel=1 note=60 velocity=80 time=77.49844661000043
note_on channel=0 note=60 velocity=0 time=77.59850594199997
note_on channel=1 note=60 velocity=0 time=77.59943927600034
control_change channel=0 control=0 value=0 time=77.96147493600074
control_change channel=0 control=32 value=117 time=77.96242976600024
program_change channel=0 program=66 time=77.96253019600044
control_change channel=1 control=0 value=0 time=77.96340913099993
control_change channel=1 control=32 value=113 time=77.96441833400058
program_change channel=1 program=57 time=77.96540954200009
control_change channel=0 control=7 value=80 time=78.0594826659999
control_change channel=0 control=91 value=36 time=78.06041774200003
control_change channel=1 control=7 value=88 time=78.06140595200031
control_change channel=1 control=91 value=40 time=78.06148756499988
control_change channel=1 control=93 value=24 time=78.06245538500025
note_on channel=0 note=48 velocity=80 time=78.34643521599992
note_on channel=1 note=48 velocity=80 time=78.34741120400031
note_on channel=0 note=48 velocity=0 time=78.46447144900048
note_on channel=1 note=48 velocity=0 time=78.46542572100043
control_change channel=0 control=0 value=0 time=78.75142851400051
control_change channel=0 control=32 value=113 time=78.75241667699993
program_change channel=0 program=64 time=78.75250641799994
control_change channel=1 control=0 value=0 time=78.75338849900072
control_change channel=1 control=32 value=112 time=78.75441345900072
program_change channel=1 program=48 time=78.75538770000003
control_change channel=0 control=7 value=125 time=78.84945585900005
control_change channel=0 control=91 value=38 time=78.84956062400033
control_change channel=1 control=7 value=40 time=78.85041299000022
control_change channel=1 control=91 value=36 time=78.85142973700022
control_change channel=1 control=93 value=0 time=78.85241331399993
note_on channel=0 note=60 velocity=80 time=79.13641646500037
note_on channel=1 note=60 velocity=80 time=79.13741014200059
note_on channel=0 note=60 velocity=0 time=79.23945505000029
note_on channel=1 note=60 velocity=0 time=79.24039923200053
control_change channel=0 control=0 value=0 time=79.56140586400033
control_change channel=0 control=32 value=112 time=79.56240246200014
program_change channel=0 program=66 time=79.56336979000025
control_change channel=1 control=0 value=0 time=79.56439037500058
control_change channel=1 control=32 value=112 time=79.56447562199992
program_change channel=1 program=71 time=79.56536796700038
control_change channel=0 control=7 value=94 time=79.6604460160006
control_change channel=0 control=91 value=36 time=79.66055361899998
control_change channel=1 control=7 value=78 time=79.66139356400072
note_on channel=0 note=48 velocity=80 time=79.93942786400021
note_on channel=1 note=60 velocity=80 time=79.94038321100015
note_on channel=0 note=48 velocity=0 time=80.04442489100074
note_on channel=1 note=60 velocity=0 time=80.04538173000037
control_change channel=0 control=0 value=0 time=80.35138553900015
control_change channel=0 control=32 value=112 time=80.35237790500014
program_change channel=0 program=65 time=80.35246684100002
control_change channel=1 control=0 value=0 time=80.35335379000026
control_change channel=1 control=32 value=112 time=80.35437339600048
program_change channel=1 program=66 time=80.3544590219999
control_change channel=0 control=7 value=95 time=80.4494253060002
control_change channel=0 control=91 value=40 time=80.44953405800061
control_change channel=1 control=7 value=60 time=80.45035218400062
control_change channel=1 control=91 value=40 time=80.45136314000047
note_on channel=0 note=60 velocity=80 time=80.75437511100063
note_on channel=1 note=48 velocity=80 time=80.75536762000047
note_on channel=0 note=60 velocity=0 time=80.87740118900001
note_on channel=1 note=48 velocity=0 time=80.87836087200048
control_change channel=0 control=0 value=0 time=81.1813960770005
control_change channel=0 control=32 value=112 time=81.18233723499998
program_change channel=0 program=64 time=81.18241833100001
control_change channel=1 control=0 value=0 time=81.18333476600037
control_change channel=1 control=32 value=112 time=81.1843492880007
program_change channel=1 program=52 time=81.18532617300025
control_change channel=0 control=7 value=101 time=81.27940436000063
control_change channel=0 control=91 value=42 time=81.27951435700015
control_change channel=1 control=7 value=54 time=81.28035204200023
control_change channel=1 control=91 value=30 time=81.28132943400033
note_on channel=0 note=60 velocity=80 time=81.56935265300035
note_on channel=1 note=60 velocity=80 time=81.57031948400072
note_on channel=0 note=60 velocity=0 time=81.6793930950007
note_on channel=1 note=60 velocity=0 time=81.68136089000018
control_change channel=0 control=0 value=0 time=82.00137939500019
control_change channel=0 control=32 value=112 time=82.0023336410004
program_change channel=0 program=67 time=82.00241772500067
control_change channel=1 control=0 value=0 time=82.00330976800069
control_change channel=1 control=32 value=112 time=82.00433044900001
program_change channel=1 program=61 time=82.00529618400014
control_change channel=0 control=7 value=112 time=82.09938340500048
control_change channel=0 control=91 value=28 time=82.09949337099988
control_change channel=1 control=7 value=100 time=82.10031891200015
control_change channel=1 control=91 value=24 time=82.10131656000067
note_on channel=0 note=36 velocity=80 time=82.4203658260003
note_on channel=1 note=48 velocity=80 time=82.42134365900074
note_on channel=0 note=36 velocity=0 time=82.5423218599999
note_on channel=1 note=48 velocity=0 time=82.54331112
control_change channel=0 control=0 value=0 time=82.83132310700057
control_change channel=0 control=32 value=114 time=82.83233254600054
program_change channel=0 program=66 time=82.83243149999998
control_change channel=1 control=0 value=0 time=82.83328438900026
control_change channel=1 control=32 value=113 time=82.83430278500055
program_change channel=1 program=57 time=82.8352850400006
control_change channel=0 control=7 value=98 time=82.92931734000013
control_change channel=0 control=91 value=40 time=82.93030827500024
control_change channel=1 control=7 value=82 time=82.930404232
control_change channel=1 control=91 value=40 time=82.93128126600004
control_change channel=1 control=93 value=24 time=82.93230293700071
note_on channel=0 note=48 velocity=80 time=83.20830956900045
note_on channel=1 note=48 velocity=80 time=83.20929521700054
note_on channel=0 note=48 velocity=0 time=83.33130656200046
note_on channel=1 note=48 velocity=0 time=83.33228774600047
control_change channel=0 control=0 value=0 time=83.6113014420007
control_change channel=0 control=32 value=112 time=83.61141507699995
program_change channel=0 program=68 time=83.61228802599999
control_change channel=1 control=0 value=0 time=83.61330689900024
control_change channel=1 control=32 value=112 time=83.61427243400067
program_change channel=1 program=48 time=83.6143610120007
control_change channel=0 control=7 value=100 time=83.70934342200053
control_change channel=0 control=91 value=38 time=83.70945430500069
control_change channel=1 control=7 value=64 time=83.71028576400022
control_change channel=1 control=93 value=0 time=83.71125976400072
note_on channel=0 note=60 velocity=80 time=83.98832124199998
note_on channel=1 note=60 velocity=80 time=83.9892749290002
note_on channel=0 note=60 velocity=0 time=84.09532854500048
note_on channel=1 note=60 velocity=0 time=84.09626898600072
control_change channel=0 control=0 value=0 time=84.41130205300033
control_change channel=0 control=32 value=112 time=84.41141467299985
program_change channel=0 program=71 time=84.4122712870003
control_change channel=1 control=0 value=0 time=84.41324656300003
control_change channel=1 control=32 value=114 time=84.41426080400015
program_change channel=1 program=66 time=84.41435774399997
control_change channel=0 control=7 value=80 time=84.5093155630002
control_change channel=0 control=91 value=40 time=84.510258454
control_change channel=1 control=7 value=66 time=84.51125040900024
control_change channel=1 control=93 value=20 time=84.5113430600004
note_on channel=0 note=60 velocity=80 time=84.8122697280005
note_on channel=1 note=48 velocity=80 time=84.81325840299996
note_on channel=0 note=60 velocity=0 time=84.93125977100044
note_on channel=1 note=48 velocity=0 time=84.93225514900041
control_change channel=0 control=0 value=0 time=85.22025794799993
control_change channel=0 control=32 value=112 time=85.22124829899985
program_change channel=0 program=69 time=85.22222308300024
control_change channel=1 control=0 value=0 time=85.22325436700066
control_change channel=1 control=32 value=112 time=85.22335218399985
program_change channel=1 program=48 time=85.22421075000057
control_change channel=0 control=7 value=60 time=85.31925271900036
control_change channel=1 control=7 value=50 time=85.32127326800037
control_change channel=1 control=93 value=0 time=85.32137494300059
note_on channel=0 note=60 velocity=80 time=85.62424791900048
note_on channel=1 note=60 velocity=80 time=85.62436309200075
note_on channel=0 note=60 velocity=0 time=85.75624118999986
note_on channel=1 note=60 velocity=0 time=85.757270178
control_change channel=0 control=0 value=0 time=86.0412670880005
control_change channel=0 control=32 value=112 time=86.04137334400002
program_change channel=0 program=70 time=86.04221773200061
control_change channel=0 control=7 value=80 time=86.1382301399999
control_change channel=0 control=91 value=32 time=86.13921604300049
control_change channel=1 control=91 value=42 time=86.14018878800016
note_on channel=0 note=48 velocity=80 time=86.39325035999991
note_on channel=1 note=48 velocity=80 time=86.39420174099996
note_on channel=0 note=48 velocity=0 time=86.52522147299987
note_on channel=1 note=48 velocity=0 time=86.52620794500035
control_change channel=0 control=0 value=0 time=86.84022954400007
control_change channel=0 control=32 value=115 time=86.84120350800004
program_change channel=0 program=56 time=86.84217755400005
control_change channel=1 control=0 value=0 time=86.84320469200065
control_change channel=1 control=32 value=112 time=86.84329595000054
program_change channel=1 program=61 time=86.84417011400001
control_change channel=0 control=7 value=115 time=86.93821044900051
control_change channel=0 control=91 value=40 time=86.93920392600012
control_change channel=1 control=7 value=90 time=86.94016951699996
control_change channel=1 control=91 value=40 time=86.94024819400056
note_on channel=0 note=60 velocity=80 time=87.20720445799998
note_on channel=1 note=60 velocity=80 time=87.20822438100004
note_on channel=0 note=60 velocity=0 time=87.34019667900066
note_on channel=1 note=60 velocity=0 time=87.34118207000029
control_change channel=0 control=0 value=0 time=87.6412138450005
control_change channel=0 control=32 value=112 time=87.64132338099989
program_change channel=0 program=56 time=87.64217793500029
control_change channel=0 control=7 value=100 time=87.73819146500045
control_change channel=0 control=91 value=36 time=87.7391834300006
control_change channel=1 control=7 value=80 time=87.73927291000018
note_on channel=0 note=60 velocity=80 time=87.99121367299995
note_on channel=1 note=60 velocity=80 time=87.99218753400055
note_on channel=0 note=60 velocity=0 time=88.11522147300002
note_on channel=1 note=60 velocity=0 time=88.11616950300049
control_change channel=0 control=0 value=0 time=88.44120034900061
control_change channel=0 control=32 value=112 time=88.44130580100045
program_change channel=0 program=59 time=88.44216549400062
control_change channel=1 control=0 value=0 time=88.44314439800019
control_change channel=1 control=32 value=114 time=88.44415651300005
program_change channel=1 program=73 time=88.44424344500021
control_change channel=0 control=7 value=104 time=88.53817023700049
control_change channel=0 control=91 value=40 time=88.53915903000052
control_change channel=1 control=91 value=36 time=88.54012792600042
note_on channel=0 note=60 velocity=80 time=88.81220565700005
note_on channel=1 note=60 velocity=80 time=88.81315179100056
note_on channel=0 note=60 velocity=0 time=88.91319891200055
note_on channel=1 note=60 velocity=0 time=88.91520915599995
control_change channel=0 control=0 value=0 time=89.21015226500003
control_change channel=0 control=32 value=112 time=89.21113669700026
program_change channel=0 program=57 time=89.21122811900022
control_change channel=1 control=0 value=0 time=89.21210442600022
control_change channel=1 control=32 value=112 time=89.21313059000022
program_change channel=1 program=61 time=89.21411560200067
control_change channel=0 control=7 value=127 time=89.30818923400057
control_change channel=0 control=91 value=34 time=89.30913593200057
control_change channel=1 control=7 value=90 time=89.31011016699995
control_change channel=1 control=91 value=32 time=89.31019328300044
note_on channel=0 note=48 velocity=80 time=89.60614333500052
note_on channel=1 note=48 velocity=80 time=89.60713726300037
note_on channel=0 note=48 velocity=0 time=89.72814173200004
note_on channel=1 note=48 velocity=0 time=89.72825269199984
control_change channel=0 control=0 value=0 time=90.03016232200025
control_change channel=0 control=32 value=113 time=90.03111260200058
program_change channel=0 program=57 time=90.03120840400061
control_change channel=0 control=7 value=110 time=90.12812601400037
note_on channel=0 note=48 velocity=80 time=90.40614440199988
note_on channel=1 note=48 velocity=80 time=90.40710328100067
note_on channel=0 note=48 velocity=0 time=90.5191161090006
note_on channel=1 note=48 velocity=0 time=90.52010270400024
control_change channel=0 control=0 value=0 time=90.78111690600053
control_change channel=0 control=32 value=112 time=90.7812260210003
program_change channel=0 program=60 time=90.7821029530005
control_change channel=1 control=0 value=0 time=90.78308368600028
control_change channel=1 control=32 value=112 time=90.7831696660005
program_change channel=1 program=57 time=90.78408596100053
control_change channel=0 control=7 value=80 time=90.87814607000018
control_change channel=0 control=91 value=40 time=90.87825470900043
control_change channel=1 control=7 value=70 time=90.87909634500011
control_change channel=1 control=91 value=36 time=90.88007526900037
note_on channel=0 note=60 velocity=80 time=91.18609944200034
note_on channel=1 note=60 velocity=80 time=91.1870946150002
note_on channel=0 note=60 velocity=0 time=91.30513929300014
note_on channel=1 note=60 velocity=0 time=91.30609304200061
control_change channel=0 control=0 value=0 time=91.59009315900039
control_change channel=0 control=32 value=112 time=91.59107862200017
program_change channel=0 program=58 time=91.59117187800075
control_change channel=1 control=0 value=0 time=91.59205235600075
control_change channel=1 control=32 value=112 time=91.59307049600011
program_change channel=1 program=32 time=91.5940474680001
control_change channel=0 control=7 value=127 time=91.68812764300037
control_change channel=0 control=91 value=18 time=91.68823714800055
control_change channel=1 control=7 value=84 time=91.68905379800071
control_change channel=1 control=91 value=0 time=91.69006007600001
note_on channel=0 note=36 velocity=80 time=91.96411504000025
note_on channel=1 note=36 velocity=80 time=91.96504954700049
note_on channel=0 note=36 velocity=0 time=92.09011716300029
note_on channel=1 note=36 velocity=0 time=92.09106869800053
control_change channel=0 control=0 value=0 time=92.38008389300012
control_change channel=0 control=32 value=112 time=92.38106885900015
program_change channel=0 program=61 time=92.38203554600022
control_change channel=1 control=0 value=0 time=92.38305429600041
control_change channel=1 control=32 value=113 time=92.38314245400034
program_change channel=1 program=57 time=92.38402514500012
control_change channel=0 control=7 value=100 time=92.47810689300059
control_change channel=0 control=91 value=30 time=92.47821560400007
control_change channel=1 control=7 value=90 time=92.47905760400045
control_change channel=1 control=91 value=34 time=92.48003150600016
note_on channel=0 note=60 velocity=80 time=92.73005952899985
note_on channel=1 note=48 velocity=80 time=92.73105297000075
note_on channel=0 note=60 velocity=0 time=92.87408416400012
note_on channel=1 note=48 velocity=0 time=92.87504575300045
control_change channel=0 control=0 value=0 time=93.1600459629999
control_change channel=0 control=32 value=113 time=93.16103168200061
program_change channel=0 program=61 time=93.16112062899992
control_change channel=1 control=0 value=0 time=93.16201319900028
control_change channel=1 control=32 value=117 time=93.16302975100007
program_change channel=1 program=66 time=93.16401362500073
control_change channel=0 control=7 value=90 time=93.25808949100065
control_change channel=0 control=91 value=32 time=93.2581995290002
control_change channel=1 control=7 value=60 time=93.26005439100027
control_change channel=1 control=91 value=38 time=93.2601519509999
note_on channel=0 note=60 velocity=80 time=93.5080586310005
note_on channel=1 note=48 velocity=80 time=93.50903912900048
note_on channel=0 note=60 velocity=0 time=93.63907537100022
note_on channel=1 note=48 velocity=0 time=93.64105216400003
control_change channel=0 control=0 value=0 time=93.9300224080007
control_change channel=0 control=32 value=119 time=93.93013153799984
program_change channel=0 program=61 time=93.93099925200022
control_change channel=1 control=0 value=0 time=93.9319920779999
control_change channel=1 control=32 value=113 time=93.93300329500016
program_change channel=1 program=61 time=93.93308611900011
control_change channel=0 control=7 value=80 time=94.02807039800064
control_change channel=0 control=91 value=40 time=94.02817931300069
control_change channel=1 control=7 value=71 time=94.02898897900013
control_change channel=1 control=91 value=36 time=94.03000060100021
note_on channel=0 note=60 velocity=80 time=94.28602665000017
note_on channel=1 note=60 velocity=80 time=94.28700322200075
note_on channel=0 note=60 velocity=0 time=94.40405602800001
note_on channel=1 note=60 velocity=0 time=94.40500821900059
control_change channel=0 control=0 value=0 time=94.73000712700014
control_change channel=0 control=32 value=112 time=94.73011790300006
program_change channel=0 program=62 time=94.73100615400017
control_change channel=1 control=0 value=0 time=94.73197495800014
control_change channel=1 control=32 value=112 time=94.73298954700022
program_change channel=1 program=81 time=94.73307733000001
control_change channel=0 control=7 value=100 time=94.82704911600013
control_change channel=0 control=91 value=32 time=94.8279882300003
control_change channel=0 control=93 value=54 time=94.82896727800016
control_change channel=1 control=7 value=40 time=94.82999217199995
control_change channel=1 control=91 value=90 time=94.8300776189999
control_change channel=1 control=93 value=80 time=94.83097230600015
note_on channel=0 note=60 velocity=80 time=95.0860149150003
note_on channel=1 note=48 velocity=80 time=95.08696895100002
note_on channel=0 note=60 velocity=0 time=95.20703275000051
note_on channel=1 note=48 velocity=0 time=95.20797693200075
control_change channel=0 control=0 value=0 time=95.51000815200041
control_change channel=0 control=32 value=113 time=95.51011646300049
program_change channel=0 program=62 time=95.51098843
control_change channel=1 control=0 value=0 time=95.51195504000043
control_change channel=1 control=32 value=119 time=95.51297106000038
program_change channel=1 program=81 time=95.51305996000065
control_change channel=0 control=7 value=73 time=95.60802486400007
control_change channel=0 control=91 value=50 time=95.60897848000059
control_change channel=0 control=93 value=110 time=95.60906498700024
control_change channel=1 control=7 value=70 time=95.60994888799996
control_change channel=1 control=91 value=40 time=95.6109768209999
control_change channel=1 control=93 value=127 time=95.61106603400003
note_on channel=0 note=60 velocity=80 time=95.89498507100052
note_on channel=1 note=48 velocity=80 time=95.89596903200072
note_on channel=0 note=60 velocity=0 time=96.03101173699997
note_on channel=1 note=48 velocity=0 time=96.03196163200028
control_change channel=0 control=0 value=0 time=96.3199675270007
control_change channel=0 control=32 value=114 time=96.3200758590001
program_change channel=0 program=62 time=96.32095573700008
control_change channel=1 control=0 value=0 time=96.32193095599996
control_change channel=1 control=32 value=112 time=96.32201679800073
program_change channel=1 program=81 time=96.32294134400036
control_change channel=0 control=7 value=85 time=96.4180015640004
control_change channel=0 control=93 value=40 time=96.41810768699997
control_change channel=1 control=7 value=64 time=96.4189333660006
note_on channel=0 note=60 velocity=80 time=96.7129608109999
note_on channel=1 note=48 velocity=80 time=96.71394411700021
note_on channel=0 note=60 velocity=0 time=96.85997957100062
note_on channel=1 note=48 velocity=0 time=96.86094293299993
control_change channel=0 control=0 value=0 time=97.13994192600057
control_change channel=0 control=32 value=114 time=97.14093882599991
program_change channel=0 program=73 time=97.14102869999988
control_change channel=1 control=0 value=0 time=97.14190398700066
control_change channel=1 control=32 value=112 time=97.14258477800013
program_change channel=1 program=11 time=97.14288323900018
control_change channel=0 control=91 value=34 time=97.23698656400029
control_change channel=0 control=93 value=0 time=97.23791073600023
control_change channel=1 control=7 value=66 time=97.23891759300022
control_change channel=1 control=91 value=30 time=97.23993622500075
control_change channel=1 control=93 value=20 time=97.24002478200055
note_on channel=0 note=60 velocity=80 time=97.48195847500028
note_on channel=1 note=60 velocity=80 time=97.48292681200019
note_on channel=0 note=60 velocity=0 time=97.6189702040001
note_on channel=1 note=60 velocity=0 time=97.6199162820003
control_change channel=0 control=0 value=0 time=97.89892360200065
control_change channel=0 control=32 value=113 time=97.89990746600051
program_change channel=0 program=75 time=97.900927959
control_change channel=1 control=0 value=0 time=97.90189786500014
control_change channel=1 control=32 value=112 time=97.90197888400053
program_change channel=1 program=48 time=97.90289702500013
control_change channel=0 control=7 value=104 time=97.99696027800019
control_change channel=0 control=91 value=38 time=97.99791174100028
control_change channel=1 control=7 value=46 time=97.9988880990004
control_change channel=1 control=91 value=42 time=97.9999056810002
control_change channel=1 control=93 value=0 time=97.9999930390004
note_on channel=0 note=60 velocity=80 time=98.23192032600036
note_on channel=1 note=60 velocity=80 time=98.23291302899997
note_on channel=0 note=60 velocity=0 time=98.38493601400023
note_on channel=1 note=60 velocity=0 time=98.38590193300024
control_change channel=0 control=0 value=0 time=98.67991051100034
control_change channel=0 control=32 value=112 time=98.68002024599991
program_change channel=0 program=73 time=98.6808860580004
control_change channel=1 control=0 value=0 time=98.68186427599994
control_change channel=1 control=32 value=112 time=98.68288621300053
program_change channel=1 program=12 time=98.68297662500026
control_change channel=0 control=7 value=103 time=98.77694043700012
control_change channel=0 control=91 value=34 time=98.77788640800009
control_change channel=1 control=7 value=71 time=98.77886790499997
control_change channel=1 control=91 value=30 time=98.77895355600049
control_change channel=1 control=93 value=40 time=98.77988076200018
note_on channel=0 note=60 velocity=80 time=99.01593314900038
note_on channel=1 note=60 velocity=80 time=99.01686474600046
note_on channel=0 note=60 velocity=0 time=99.14889315800065
note_on channel=1 note=60 velocity=0 time=99.14987554100026
control_change channel=0 control=0 value=0 time=99.44890972200028
control_change channel=0 control=32 value=112 time=99.45007520400031
program_change channel=0 program=72 time=99.45084633100032
control_change channel=1 control=0 value=0 time=99.45185044600021
control_change channel=1 control=32 value=0 time=99.45193113799996
program_change channel=1 program=9 time=99.45285303900073
control_change channel=0 control=7 value=90 time=99.54688575700038
control_change channel=0 control=91 value=32 time=99.54787086700071
control_change channel=1 control=7 value=44 time=99.54884808499992
control_change channel=1 control=91 value=36 time=99.54893216800065
control_change channel=1 control=93 value=0 time=99.54985743199995
note_on channel=0 note=72 velocity=80 time=99.81890895900051
note_on channel=1 note=72 velocity=80 time=99.81984426600047
note_on channel=0 note=72 velocity=0 time=99.94187105400033
note_on channel=1 note=72 velocity=0 time=99.94286193300013
control_change channel=0 control=0 value=0 time=100.27888082000027
control_change channel=0 control=32 value=112 time=100.2798554760002
program_change channel=0 program=75 time=100.28083002499989
control_change channel=1 control=0 value=0 time=100.28186926200033
control_change channel=1 control=32 value=118 time=100.28196603800006
program_change channel=1 program=88 time=100.28284263600017
control_change channel=0 control=7 value=104 time=100.37690945600025
control_change channel=0 control=91 value=38 time=100.37790052000037
control_change channel=1 control=7 value=62 time=100.37884699799997
control_change channel=1 control=91 value=48 time=100.3789387730003
note_on channel=0 note=60 velocity=80 time=100.59985822500039
note_on channel=1 note=60 velocity=80 time=100.6008439289999
note_on channel=0 note=60 velocity=0 time=100.73284802600028
note_on channel=1 note=60 velocity=0 time=100.73383447800006
control_change channel=0 control=0 value=0 time=101.0598536940006
control_change channel=0 control=32 value=112 time=101.05995745400014
program_change channel=0 program=74 time=101.06082158500067
control_change channel=1 control=0 value=0 time=101.06181220899998
control_change channel=1 control=32 value=112 time=101.06283321400042
program_change channel=1 program=48 time=101.06292223700075
control_change channel=0 control=7 value=70 time=101.15684285200041
control_change channel=1 control=7 value=48 time=101.15783511000063
control_change channel=1 control=91 value=42 time=101.1588136800001
note_on channel=0 note=72 velocity=80 time=101.43585739199989
note_on channel=1 note=60 velocity=80 time=101.43681929900049
note_on channel=0 note=72 velocity=0 time=101.5448284060003
note_on channel=1 note=60 velocity=0 time=101.54581510900061
control_change channel=0 control=0 value=0 time=101.83883760900062
control_change channel=0 control=32 value=112 time=101.8398282420003
program_change channel=0 program=79 time=101.83992323000075
control_change channel=1 control=0 value=0 time=101.84078620299988
control_change channel=1 control=32 value=113 time=101.84181089200047
program_change channel=1 program=75 time=101.84278960700067
control_change channel=0 control=7 value=80 time=101.93681878900043
control_change channel=1 control=7 value=60 time=101.93780930400044
control_change channel=1 control=91 value=44 time=101.93789927600028
note_on channel=0 note=72 velocity=80 time=102.17581229999996
note_on channel=1 note=72 velocity=80 time=102.17681236699991
note_on channel=0 note=72 velocity=0 time=102.29385157800061
note_on channel=1 note=72 velocity=0 time=102.29584505599996
control_change channel=0 control=0 value=0 time=102.59862129500016
control_change channel=0 control=32 value=112 time=102.59979100500004
program_change channel=0 program=80 time=102.59988590600005
control_change channel=1 control=0 value=0 time=102.6007655580006
control_change channel=1 control=32 value=0 time=102.60183686800065
program_change channel=1 program=78 time=102.60276118900038
control_change channel=0 control=7 value=106 time=102.6968436420002
control_change channel=0 control=91 value=36 time=102.6977886550003
control_change channel=1 control=7 value=100 time=102.69876353100062
control_change channel=1 control=91 value=40 time=102.69884912100042
note_on channel=0 note=60 velocity=80 time=102.9817893720001
note_on channel=1 note=72 velocity=80 time=102.9827814350001
note_on channel=0 note=60 velocity=0 time=103.09982653899988
note_on channel=1 note=72 velocity=0 time=103.10078108200014
control_change channel=0 control=0 value=0 time=103.38880084300035
control_change channel=0 control=32 value=112 time=103.38977111800068
program_change channel=0 program=81 time=103.38985821000006
control_change channel=1 control=0 value=0 time=103.39075179500014
control_change channel=1 control=32 value=20 time=103.39175964100014
program_change channel=1 program=62 time=103.39274373100034
control_change channel=0 control=7 value=102 time=103.48682367400033
control_change channel=0 control=93 value=30 time=103.48693283000011
control_change channel=1 control=7 value=60 time=103.48776706700028
control_change channel=1 control=91 value=36 time=103.48874616000012
control_change channel=1 control=93 value=127 time=103.48976404400037
note_on channel=0 note=60 velocity=80 time=103.74876992500049
note_on channel=1 note=60 velocity=80 time=103.74976413000059
note_on channel=0 note=60 velocity=0 time=103.87680447300045
note_on channel=1 note=60 velocity=0 time=103.87691230200016
control_change channel=0 control=0 value=0 time=104.18876619799994
control_change channel=0 control=32 value=112 time=104.18975042700004
program_change channel=0 program=85 time=104.18983964400013
control_change channel=1 control=0 value=0 time=104.19072370899994
control_change channel=1 control=32 value=118 time=104.19174505699993
program_change channel=1 program=88 time=104.19271536300039
control_change channel=0 control=7 value=94 time=104.28679914400072
control_change channel=0 control=91 value=40 time=104.28775183200014
control_change channel=0 control=93 value=24 time=104.28784398600055
control_change channel=1 control=7 value=86 time=104.28871821800021
control_change channel=1 control=91 value=38 time=104.28974368000036
control_change channel=1 control=93 value=0 time=104.290719136
note_on channel=0 note=60 velocity=80 time=104.52775096000005
note_on channel=1 note=60 velocity=80 time=104.52874740900006
note_on channel=0 note=60 velocity=0 time=104.63979070700043
note_on channel=1 note=60 velocity=0 time=104.6407464190006
control_change channel=0 control=0 value=0 time=104.93873521900059
control_change channel=0 control=32 value=112 time=104.93972996100001
program_change channel=0 program=98 time=104.9398204550007
control_change channel=0 control=7 value=92 time=105.03578040499997
control_change channel=0 control=93 value=30 time=105.03672999900027
control_change channel=1 control=7 value=70 time=105.03770509500009
control_change channel=1 control=91 value=40 time=105.03872547500032
note_on channel=0 note=60 velocity=80 time=105.36372627299988
note_on channel=1 note=60 velocity=80 time=105.36472520300049
note_on channel=0 note=60 velocity=0 time=105.47277001600014
note_on channel=1 note=60 velocity=0 time=105.47372110000015
control_change channel=0 control=0 value=0 time=105.77872084899991
control_change channel=0 control=32 value=112 time=105.77883100500003
program_change channel=0 program=100 time=105.7797043340006
control_change channel=1 control=0 value=0 time=105.78069226700063
control_change channel=1 control=32 value=112 time=105.78171650500008
program_change channel=1 program=48 time=105.78180450900072
control_change channel=0 control=7 value=88 time=105.87675808899985
control_change channel=0 control=91 value=50 time=105.87771161700039
control_change channel=0 control=93 value=40 time=105.87779877499997
control_change channel=1 control=7 value=42 time=105.87867819200073
note_on channel=0 note=60 velocity=80 time=106.16070875700007
note_on channel=1 note=60 velocity=80 time=106.16170191200035
note_on channel=0 note=60 velocity=0 time=106.26774919400032
note_on channel=1 note=60 velocity=0 time=106.26869477400032
control_change channel=0 control=0 value=0 time=106.5786994959999
control_change channel=0 control=32 value=115 time=106.5796859380007
program_change channel=0 program=81 time=106.58066685100039
control_change channel=1 control=0 value=0 time=106.58075153900063
control_change channel=1 control=32 value=112 time=106.58168183399994
program_change channel=1 program=81 time=106.58266323400039
control_change channel=0 control=7 value=70 time=106.67674187000011
control_change channel=0 control=91 value=32 time=106.67685080699994
control_change channel=0 control=93 value=50 time=106.67768772799991
control_change channel=1 control=7 value=70 time=106.67866564300039
control_change channel=1 control=93 value=90 time=106.67875289400035
note_on channel=0 note=48 velocity=80 time=106.93468801200015
note_on channel=1 note=48 velocity=80 time=106.93567583700042
note_on channel=0 note=48 velocity=0 time=107.04472697900019
note_on channel=1 note=48 velocity=0 time=107.04567954899994
control_change channel=0 control=0 value=0 time=107.34867868299989
control_change channel=0 control=32 value=119 time=107.34967453700028
program_change channel=0 program=81 time=107.34976241300046
control_change channel=0 control=7 value=95 time=107.44571902700045
control_change channel=0 control=91 value=30 time=107.44667871500042
control_change channel=0 control=93 value=80 time=107.4476433939999
control_change channel=1 control=91 value=30 time=107.44866404999993
control_change channel=1 control=93 value=127 time=107.44875589700041
note_on channel=0 note=48 velocity=80 time=107.71468240700051
note_on channel=1 note=48 velocity=80 time=107.71565430100054
note_on channel=0 note=48 velocity=0 time=107.818705486
note_on channel=1 note=48 velocity=0 time=107.8196632879999
control_change channel=0 control=0 value=0 time=108.12865208800031
control_change channel=0 control=32 value=118 time=108.12965260100009
program_change channel=0 program=88 time=108.12974238800052
control_change channel=1 control=0 value=0 time=108.13062034999984
control_change channel=1 control=32 value=112 time=108.13162807200024
program_change channel=1 program=48 time=108.13263213100072
control_change channel=0 control=7 value=120 time=108.22569768500034
control_change channel=0 control=91 value=42 time=108.22665007600062
control_change channel=0 control=93 value=0 time=108.22762618700017
control_change channel=1 control=91 value=42 time=108.22771175700018
control_change channel=1 control=93 value=0 time=108.2286329160006
note_on channel=0 note=60 velocity=80 time=108.49967927299986
note_on channel=1 note=60 velocity=80 time=108.50063181299993
note_on channel=0 note=60 velocity=0 time=108.62868113000059
note_on channel=1 note=60 velocity=0 time=108.6296417399999
control_change channel=0 control=0 value=0 time=108.91863230900071
control_change channel=0 control=32 value=112 time=108.91873819600005
program_change channel=0 program=88 time=108.91962600100032
control_change channel=0 control=7 value=78 time=109.01566844100034
control_change channel=0 control=91 value=40 time=109.01662611500069
control_change channel=0 control=93 value=32 time=109.01671562000047
control_change channel=1 control=91 value=40 time=109.01759057900017
note_on channel=0 note=60 velocity=80 time=109.29463678100001
note_on channel=1 note=60 velocity=80 time=109.2956125440005
note_on channel=0 note=60 velocity=0 time=109.40666383999996
note_on channel=1 note=60 velocity=0 time=109.40762351300054
control_change channel=0 control=0 value=0 time=109.76762626600066
control_change channel=0 control=32 value=113 time=109.76860314500027
program_change channel=0 program=100 time=109.7695805530002
control_change channel=1 control=0 value=0 time=109.77060978700047
control_change channel=1 control=32 value=112 time=109.77070137800001
program_change channel=1 program=1 time=109.77156694400037
control_change channel=0 control=7 value=112 time=109.86565597200024
control_change channel=0 control=93 value=34 time=109.86660996699993
control_change channel=1 control=91 value=36 time=109.86758195900074
note_on channel=0 note=60 velocity=80 time=110.08264574200075
note_on channel=1 note=60 velocity=80 time=110.0835980360007
note_on channel=0 note=60 velocity=0 time=110.20264169100028
note_on channel=1 note=60 velocity=0 time=110.20359432300029
control_change channel=0 control=0 value=0 time=110.5175931900003
control_change channel=0 control=32 value=112 time=110.51858974200059
program_change channel=0 program=91 time=110.51955920700038
control_change channel=1 control=0 value=0 time=110.52057985800002
control_change channel=1 control=32 value=118 time=110.52066854800069
program_change channel=1 program=88 time=110.52155351500005
control_change channel=0 control=7 value=88 time=110.61563114700039
control_change channel=0 control=93 value=0 time=110.61658083200018
control_change channel=1 control=7 value=72 time=110.617565388
control_change channel=1 control=91 value=44 time=110.61764848800067
note_on channel=0 note=60 velocity=80 time=110.88459045299987
note_on channel=1 note=60 velocity=80 time=110.88557284099988
note_on channel=0 note=60 velocity=0 time=111.00962156100013
note_on channel=1 note=60 velocity=0 time=111.00972895999985
control_change channel=0 control=0 value=0 time=111.29760817400074
control_change channel=0 control=32 value=112 time=111.29858281399993
program_change channel=0 program=94 time=111.29954385000019
control_change channel=1 control=0 value=0 time=111.30056001200046
control_change channel=1 control=32 value=112 time=111.30064811900047
program_change channel=1 program=48 time=111.30154267200032
control_change channel=0 control=7 value=90 time=111.39561194199996
control_change channel=0 control=91 value=42 time=111.39655947000028
control_change channel=1 control=7 value=48 time=111.39754171500044
control_change channel=1 control=91 value=42 time=111.39762769900062
note_on channel=0 note=60 velocity=80 time=111.65758129799997
note_on channel=1 note=60 velocity=80 time=111.65769068500049
note_on channel=0 note=60 velocity=0 time=111.7686096840007
note_on channel=1 note=60 velocity=0 time=111.76955806300066
control_change channel=0 control=0 value=0 time=112.10759047900046
control_change channel=0 control=32 value=113 time=112.10855811500005
program_change channel=0 program=89 time=112.10951772099997
control_change channel=1 control=0 value=0 time=112.11056994299997
control_change channel=1 control=32 value=119 time=112.11066289600058
program_change channel=1 program=61 time=112.11150953900051
control_change channel=0 control=7 value=100 time=112.20559744500042
control_change channel=0 control=91 value=38 time=112.20656197000062
control_change channel=0 control=93 value=40 time=112.20752364100008
control_change channel=1 control=7 value=82 time=112.20760989800056
control_change channel=1 control=91 value=38 time=112.2085315230006
note_on channel=0 note=60 velocity=80 time=112.46057065600053
note_on channel=1 note=60 velocity=80 time=112.4615517330003
note_on channel=0 note=60 velocity=0 time=112.57855893300075
note_on channel=1 note=60 velocity=0 time=112.57953553600055
control_change channel=0 control=0 value=0 time=112.88753883100071
control_change channel=0 control=32 value=112 time=112.8885219370004
program_change channel=0 program=11 time=112.8894939540005
control_change channel=1 control=0 value=0 time=112.8905430650002
control_change channel=1 control=32 value=0 time=112.89063066400013
program_change channel=1 program=26 time=112.89148948100046
control_change channel=0 control=7 value=104 time=112.98556994000046
control_change channel=0 control=91 value=22 time=112.98567937900043
control_change channel=0 control=93 value=0 time=112.98653611600002
control_change channel=1 control=7 value=94 time=112.98750324400044
control_change channel=1 control=91 value=30 time=112.98851702899992
control_change channel=1 control=93 value=50 time=112.98860548399989
note_on channel=0 note=60 velocity=80 time=113.22753307099993
note_on channel=1 note=48 velocity=80 time=113.22851585900025
note_on channel=0 note=60 velocity=0 time=113.35454090400071
note_on channel=1 note=48 velocity=0 time=113.3555077760002
control_change channel=0 control=0 value=0 time=113.66752704600003
control_change channel=0 control=32 value=112 time=113.66850146100023
program_change channel=0 program=12 time=113.66858583200064
control_change channel=1 control=0 value=0 time=113.66948688299999
control_change channel=1 control=32 value=118 time=113.6705322329999
program_change channel=1 program=88 time=113.67147853700044
control_change channel=0 control=7 value=100 time=113.76555144800022
control_change channel=0 control=91 value=24 time=113.76566151099996
control_change channel=1 control=7 value=66 time=113.76653031600017
control_change channel=1 control=91 value=36 time=113.76748227700045
control_change channel=1 control=93 value=0 time=113.76849451900034
note_on channel=0 note=60 velocity=80 time=114.01253905500016
note_on channel=1 note=60 velocity=80 time=114.01349912700061
note_on channel=0 note=60 velocity=0 time=114.13350287699996
note_on channel=1 note=60 velocity=0 time=114.13450723900041
control_change channel=0 control=0 value=0 time=114.397515742
control_change channel=0 control=32 value=112 time=114.39850416700028
program_change channel=0 program=13 time=114.39859760299987
control_change channel=1 control=0 value=0 time=114.39946053499989
control_change channel=1 control=32 value=112 time=114.40047268000035
program_change channel=1 program=45 time=114.40146714100047
control_change channel=0 control=7 value=90 time=114.49553901700074
control_change channel=0 control=91 value=26 time=114.496485613
control_change channel=1 control=7 value=80 time=114.49746307700025
control_change channel=1 control=91 value=30 time=114.49754950199986
control_change channel=1 control=93 value=30 time=114.498543144
note_on channel=0 note=60 velocity=80 time=114.76748522000071
note_on channel=1 note=60 velocity=80 time=114.76847082200038
note_on channel=0 note=60 velocity=0 time=114.88252614900011
note_on channel=1 note=60 velocity=0 time=114.88346121999984
control_change channel=0 control=0 value=0 time=115.14747639100005
control_change channel=0 control=32 value=112 time=115.14846882300026
program_change channel=0 program=114 time=115.14855737500056
control_change channel=1 control=0 value=0 time=115.14943832900008
control_change channel=1 control=32 value=112 time=115.15045980000014
program_change channel=1 program=114 time=115.15143484100008
control_change channel=0 control=7 value=100 time=115.24551834300019
control_change channel=0 control=91 value=20 time=115.24562758200045
control_change channel=1 control=7 value=66 time=115.24646083000061
control_change channel=1 control=91 value=28 time=115.2474408349999
control_change channel=1 control=93 value=0 time=115.24845251900024
note_on channel=0 note=48 velocity=80 time=115.49850135799988
note_on channel=1 note=60 velocity=80 time=115.49947119700028
note_on channel=0 note=48 velocity=0 time=115.61350395699992
note_on channel=1 note=60 velocity=0 time=115.61446422400059
control_change channel=0 control=0 value=0 time=115.91744859200026
control_change channel=0 control=32 value=112 time=115.91844593800033
program_change channel=0 program=8 time=115.9194456109999
control_change channel=1 control=0 value=0 time=115.92043993900006
control_change channel=1 control=32 value=118 time=115.92052653800056
program_change channel=1 program=88 time=115.92142465400048
control_change channel=0 control=7 value=112 time=116.01549681100005
control_change channel=1 control=7 value=76 time=116.01645297400046
control_change channel=1 control=91 value=26 time=116.01654530300038
note_on channel=0 note=60 velocity=80 time=116.25345391800056
note_on channel=1 note=60 velocity=80 time=116.25443742900006
note_on channel=0 note=60 velocity=0 time=116.38445445700017
note_on channel=1 note=60 velocity=0 time=116.38456321900048
control_change channel=0 control=0 value=0 time=116.64744047000022
control_change channel=0 control=32 value=112 time=116.64842982700065
program_change channel=0 program=10 time=116.6485308930005
control_change channel=0 control=7 value=100 time=116.74543648899999
control_change channel=1 control=7 value=60 time=116.74642582600063
control_change channel=1 control=91 value=42 time=116.74654656800067
note_on channel=0 note=72 velocity=80 time=117.01643123400027
note_on channel=1 note=60 velocity=80 time=117.01742162600021
note_on channel=0 note=72 velocity=0 time=117.14142478400026
note_on channel=1 note=60 velocity=0 time=117.14241444900017
control_change channel=0 control=0 value=0 time=117.40744728900063
control_change channel=0 control=32 value=112 time=117.40841479200026
program_change channel=0 program=14 time=117.40850189899993
control_change channel=1 control=0 value=0 time=117.40939259400056
control_change channel=1 control=32 value=96 time=117.41041096000026
program_change channel=1 program=14 time=117.4113805070001
control_change channel=0 control=7 value=114 time=117.50545729700025
control_change channel=0 control=93 value=30 time=117.50556597200011
control_change channel=1 control=7 value=80 time=117.50640278100036
control_change channel=1 control=91 value=30 time=117.50738698400073
note_on channel=0 note=60 velocity=80 time=117.77340966300017
note_on channel=1 note=60 velocity=80 time=117.7744002190002
note_on channel=0 note=60 velocity=0 time=117.907443393
note_on channel=1 note=60 velocity=0 time=117.90839531800066
control_change channel=0 control=0 value=0 time=118.18739830300001
control_change channel=0 control=32 value=112 time=118.18750480500057
program_change channel=0 program=47 time=118.18838717300059
control_change channel=1 control=0 value=0 time=118.18936824000048
control_change channel=1 control=32 value=112 time=118.19038996200015
program_change channel=1 program=55 time=118.19049791500038
control_change channel=0 control=7 value=102 time=118.28543864099993
control_change channel=0 control=91 value=40 time=118.28638904400032
control_change channel=0 control=93 value=0 time=118.28649508499984
control_change channel=1 control=7 value=70 time=118.2873622140005
control_change channel=1 control=91 value=54 time=118.28839927800072
note_on channel=0 note=48 velocity=80 time=118.54639484500058
note_on channel=1 note=48 velocity=80 time=118.54738220400031
note_on channel=0 note=48 velocity=0 time=118.67042237900023
note_on channel=1 note=48 velocity=0 time=118.67139013799988
control_change channel=0 control=0 value=127 time=118.94738143199993
control_change channel=0 control=32 value=0 time=118.94837909099988
program_change channel=0 program=0 time=118.94846932900055
control_change channel=1 control=0 value=0 time=118.94934853599989
control_change channel=1 control=32 value=112 time=118.95034370900066
program_change channel=1 program=48 time=118.95041608400061
control_change channel=0 control=7 value=104 time=119.04542164800023
control_change channel=0 control=91 value=28 time=119.04637074400034
control_change channel=1 control=7 value=100 time=119.0473570740005
control_change channel=1 control=91 value=40 time=119.04744417000074
note_on channel=0 note=48 velocity=80 time=119.31537377899986
note_on channel=1 note=60 velocity=80 time=119.31636230100048
note_on channel=0 note=48 velocity=0 time=119.43841040300049
note_on channel=1 note=60 velocity=0 time=119.43933884299986
control_change channel=0 control=0 value=127 time=119.69740473000002
control_change channel=0 control=32 value=0 time=119.69751270800043
program_change channel=0 program=1 time=119.69835593700009
control_change channel=0 control=91 value=26 time=119.79439731500042
note_on channel=0 note=48 velocity=80 time=120.06239134600037
note_on channel=1 note=60 velocity=80 time=120.06347765900045
note_on channel=0 note=48 velocity=0 time=120.18438595000043
note_on channel=1 note=60 velocity=0 time=120.18534419300067
control_change channel=0 control=0 value=127 time=120.45737133400053
control_change channel=0 control=32 value=0 time=120.45835478800018
program_change channel=0 program=8 time=120.45844419100013
control_change channel=0 control=91 value=20 time=120.55534251100016
note_on channel=0 note=48 velocity=80 time=120.82933968599991
note_on channel=1 note=60 velocity=80 time=120.83032993500001
note_on channel=0 note=48 velocity=0 time=120.93932008899992
note_on channel=1 note=60 velocity=0 time=120.94135453499985
control_change channel=0 control=0 value=127 time=121.20732645800035
control_change channel=0 control=32 value=0 time=121.20743633800066
program_change channel=0 program=16 time=121.20829648700055
control_change channel=0 control=91 value=40 time=121.30436141600057
note_on channel=0 note=48 velocity=80 time=121.56830468299995
note_on channel=1 note=60 velocity=80 time=121.56930399700013
note_on channel=0 note=48 velocity=0 time=121.70234488599999
note_on channel=1 note=60 velocity=0 time=121.70330438400015
control_change channel=0 control=0 value=127 time=121.96629824299998
control_change channel=0 control=32 value=0 time=121.96729166900059
program_change channel=0 program=24 time=121.96826405000047
control_change channel=0 control=91 value=28 time=122.06434278800043
note_on channel=0 note=48 velocity=80 time=122.31133037400014
note_on channel=1 note=60 velocity=80 time=122.31228823800029
note_on channel=0 note=48 velocity=0 time=122.44632841500061
note_on channel=1 note=60 velocity=0 time=122.4472824000004
control_change channel=0 control=0 value=127 time=122.73727856599999
control_change channel=0 control=32 value=0 time=122.73739213499994
program_change channel=0 program=25 time=122.73826866700074
control_change channel=0 control=91 value=20 time=122.83431998500055
note_on channel=0 note=48 velocity=80 time=123.08927523300008
note_on channel=1 note=60 velocity=80 time=123.09025926600043
note_on channel=0 note=48 velocity=0 time=123.23230646299999
note_on channel=1 note=60 velocity=0 time=123.23242093800036
control_change channel=0 control=0 value=127 time=123.48628398500023
control_change channel=0 control=32 value=0 time=123.48726538900064
program_change channel=0 program=27 time=123.48822757800008
control_change channel=0 control=91 value=18 time=123.58429843500016
note_on channel=0 note=48 velocity=80 time=123.87825653100026
note_on channel=1 note=60 velocity=80 time=123.87923184800002
note_on channel=0 note=48 velocity=0 time=124.00428604399985
note_on channel=1 note=60 velocity=0 time=124.00521822500014
control_change channel=0 control=0 value=127 time=124.2962418420002
control_change channel=0 control=32 value=0 time=124.29723253200063
program_change channel=0 program=32 time=124.29820609200033
control_change channel=0 control=91 value=28 time=124.39427817400065
note_on channel=0 note=48 velocity=80 time=124.65423652400023
note_on channel=1 note=60 velocity=80 time=124.65434919100062
note_on channel=0 note=48 velocity=0 time=124.77622555400012
note_on channel=1 note=60 velocity=0 time=124.77724730099999
control_change channel=0 control=0 value=127 time=125.04723674700017
control_change channel=0 control=32 value=0 time=125.04735186300059
program_change channel=0 program=40 time=125.04820818999997
note_on channel=0 note=48 velocity=80 time=125.41923217600015
note_on channel=1 note=60 velocity=80 time=125.4202025680006
note_on channel=0 note=48 velocity=0 time=125.54920647800009
note_on channel=1 note=60 velocity=0 time=125.55018936900069
control_change channel=0 control=0 value=127 time=125.84620229000029
control_change channel=0 control=32 value=0 time=125.8471967660007
program_change channel=0 program=48 time=125.84728994000034
control_change channel=0 control=91 value=40 time=125.94419457300046
note_on channel=0 note=48 velocity=80 time=126.21519401600017
note_on channel=1 note=60 velocity=80 time=126.21617953100031
note_on channel=0 note=48 velocity=0 time=126.34718504600005
note_on channel=1 note=60 velocity=0 time=126.34817808700063
control_change channel=0 control=0 value=126 time=126.6261887010005
control_change channel=0 control=32 value=0 time=126.62718506400051
program_change channel=0 program=0 time=126.62728331100061
control_change channel=0 control=91 value=28 time=126.72417757200037
note_on channel=0 note=48 velocity=80 time=126.96516207000059
note_on channel=1 note=60 velocity=80 time=126.9661565360002
note_on channel=0 note=48 velocity=0 time=127.09720786100024
note_on channel=1 note=60 velocity=0 time=127.09816016500008
control_change channel=0 control=0 value=126 time=127.40617721400031
control_change channel=0 control=32 value=0 time=127.40715471900057
program_change channel=0 program=1 time=127.40724536200014
note_on channel=0 note=48 velocity=80 time=127.72914874800063
note_on channel=1 note=60 velocity=80 time=127.7301460790004
note_on channel=0 note=48 velocity=0 time=127.84619257300074
note_on channel=1 note=60 velocity=0 time=127.84714525600066
control_change channel=0 control=0 value=0 time=128.17613668600006
control_change channel=0 control=32 value=0 time=128.177138301
program_change channel=0 program=0 time=128.17724288699992
control_change channel=0 control=7 value=127 time=128.2741842810001
control_change channel=1 control=7 value=70 time=128.27512698700048
control_change channel=1 control=91 value=32 time=128.2761047640006
note_on channel=0 note=60 velocity=80 time=128.5401294660005
note_on channel=1 note=60 velocity=80 time=128.54112349700063
note_on channel=0 note=60 velocity=0 time=128.6851656580002
note_on channel=1 note=60 velocity=0 time=128.686112546
control_change channel=0 control=0 value=0 time=128.92611359900002
control_change channel=0 control=32 value=1 time=128.92622099300024
program_change channel=0 program=0 time=128.92709773500064
note_on channel=0 note=60 velocity=80 time=129.2781213799999
note_on channel=1 note=60 velocity=80 time=129.27823246800017
note_on channel=0 note=60 velocity=0 time=129.40514433499993
note_on channel=1 note=60 velocity=0 time=129.40610747100072
control_change channel=0 control=0 value=0 time=129.70610968500023
control_change channel=0 control=32 value=40 time=129.70710604800024
program_change channel=0 program=0 time=129.70719860200006
control_change channel=0 control=7 value=104 time=129.80413888400017
note_on channel=0 note=60 velocity=80 time=130.05113008300032
note_on channel=1 note=60 velocity=80 time=130.0512349090004
note_on channel=0 note=60 velocity=0 time=130.18208900800073
note_on channel=1 note=60 velocity=0 time=130.18308034800066
control_change channel=0 control=0 value=0 time=130.4661075570002
control_change channel=0 control=32 value=41 time=130.46621447000052
program_change channel=0 program=0 time=130.46707527000035
note_on channel=0 note=60 velocity=80 time=130.8110793980004
note_on channel=1 note=60 velocity=80 time=130.8120595320006
note_on channel=0 note=60 velocity=0 time=130.93406682400018
note_on channel=1 note=60 velocity=0 time=130.9350606650005
control_change channel=0 control=0 value=0 time=131.19606424300036
control_change channel=0 control=32 value=0 time=131.1970616610006
program_change channel=0 program=1 time=131.19714999200005
note_on channel=0 note=60 velocity=80 time=131.5460516840003
note_on channel=1 note=60 velocity=80 time=131.54704473600032
note_on channel=0 note=60 velocity=0 time=131.67707983200035
note_on channel=1 note=60 velocity=0 time=131.6780465870006
control_change channel=0 control=0 value=0 time=131.96603406600025
control_change channel=0 control=32 value=1 time=131.96703322100075
program_change channel=0 program=1 time=131.96712260300046
control_change channel=0 control=7 value=127 time=132.06308317100047
note_on channel=0 note=60 velocity=80 time=132.30807255000036
note_on channel=1 note=60 velocity=80 time=132.30902221500037
note_on channel=0 note=60 velocity=0 time=132.44506911100052
note_on channel=1 note=60 velocity=0 time=132.4460256729999
control_change channel=0 control=0 value=0 time=132.6950303980002
control_change channel=0 control=32 value=0 time=132.6960111369999
program_change channel=0 program=2 time=132.69698326700018
note_on channel=0 note=60 velocity=80 time=133.05201283800034
note_on channel=1 note=60 velocity=80 time=133.05300039200029
note_on channel=0 note=60 velocity=0 time=133.1690095110007
note_on channel=1 note=60 velocity=0 time=133.17000023700075
control_change channel=0 control=0 value=0 time=133.46602454599997
control_change channel=0 control=32 value=1 time=133.46613054099998
program_change channel=0 program=2 time=133.46697172600034
control_change channel=0 control=7 value=104 time=133.56303832899994
note_on channel=0 note=60 velocity=80 time=133.85799667800075
note_on channel=1 note=60 velocity=80 time=133.8589842219999
note_on channel=0 note=60 velocity=0 time=133.97299680300057
note_on channel=1 note=60 velocity=0 time=133.97397389300022
control_change channel=0 control=0 value=0 time=134.24799535200054
control_change channel=0 control=32 value=32 time=134.24896676900062
program_change channel=0 program=2 time=134.2499409130005
note_on channel=0 note=60 velocity=80 time=134.57297719300004
note_on channel=1 note=60 velocity=80 time=134.5739632140003
note_on channel=0 note=60 velocity=0 time=134.69800814800055
note_on channel=1 note=60 velocity=0 time=134.69896246100052
control_change channel=0 control=0 value=0 time=135.02796511999986
control_change channel=0 control=32 value=0 time=135.02807297000072
program_change channel=0 program=3 time=135.02895068100042
note_on channel=0 note=60 velocity=80 time=135.37594725600047
note_on channel=1 note=60 velocity=80 time=135.3769414670005
note_on channel=0 note=60 velocity=0 time=135.48799001800035
note_on channel=1 note=60 velocity=0 time=135.4889387660005
control_change channel=0 control=0 value=0 time=135.777946231
control_change channel=0 control=32 value=1 time=135.77893845900053
program_change channel=0 program=3 time=135.77902955199988
control_change channel=0 control=7 value=119 time=135.87298184200063
note_on channel=0 note=60 velocity=80 time=136.1179374050007
note_on channel=1 note=60 velocity=80 time=136.1180453880006
note_on channel=0 note=60 velocity=0 time=136.2419719260006
note_on channel=1 note=60 velocity=0 time=136.24293220900017
control_change channel=0 control=0 value=0 time=136.5579245680001
control_change channel=0 control=32 value=0 time=136.55803525700048
program_change channel=0 program=4 time=136.55891510900074
control_change channel=0 control=7 value=104 time=136.6539624699999
note_on channel=0 note=60 velocity=80 time=136.89693040200018
note_on channel=1 note=60 velocity=80 time=136.89703794400066
note_on channel=0 note=60 velocity=0 time=137.02594670500002
note_on channel=1 note=60 velocity=0 time=137.0269008080004
control_change channel=0 control=0 value=0 time=137.29790851000052
control_change channel=0 control=32 value=1 time=137.2989018850003
program_change channel=0 program=4 time=137.29899925100017
control_change channel=0 control=7 value=113 time=137.39294412100026
note_on channel=0 note=60 velocity=80 time=137.6739070399999
note_on channel=1 note=60 velocity=80 time=137.6748955310004
note_on channel=0 note=60 velocity=0 time=137.8029242190005
note_on channel=1 note=60 velocity=0 time=137.80388505000064
control_change channel=0 control=0 value=0 time=138.05692176200046
control_change channel=0 control=32 value=32 time=138.05786795800032
program_change channel=0 program=4 time=138.05885408300037
control_change channel=0 control=7 value=104 time=138.1528858440006
note_on channel=0 note=60 velocity=80 time=138.40990565500033
note_on channel=1 note=60 velocity=80 time=138.41088885299996
note_on channel=0 note=60 velocity=0 time=138.53786975100047
note_on channel=1 note=60 velocity=0 time=138.53885614200044
control_change channel=0 control=0 value=0 time=138.81687566100027
control_change channel=0 control=32 value=0 time=138.81786505499986
program_change channel=0 program=5 time=138.81883705700056
control_change channel=0 control=7 value=127 time=138.91285608399994
note_on channel=0 note=60 velocity=80 time=139.13085785800013
note_on channel=1 note=60 velocity=80 time=139.13184357699993
note_on channel=0 note=60 velocity=0 time=139.25689613099985
note_on channel=1 note=60 velocity=0 time=139.25890140499996
control_change channel=0 control=0 value=0 time=139.56684575500003
control_change channel=0 control=32 value=1 time=139.56784556599996
program_change channel=0 program=5 time=139.56881279800018
control_change channel=0 control=7 value=104 time=139.6618876070006
note_on channel=0 note=60 velocity=80 time=139.89187822400072
note_on channel=1 note=60 velocity=80 time=139.89198888200008
note_on channel=0 note=60 velocity=0 time=140.022876086
note_on channel=1 note=60 velocity=0 time=140.02298293700005
control_change channel=0 control=0 value=0 time=140.306836277
control_change channel=0 control=32 value=32 time=140.3078088580005
program_change channel=0 program=5 time=140.30879871200068
note_on channel=0 note=60 velocity=80 time=140.64882317899992
note_on channel=1 note=60 velocity=80 time=140.64981269000054
note_on channel=0 note=60 velocity=0 time=140.77881761200024
note_on channel=1 note=60 velocity=0 time=140.7798071140005
control_change channel=0 control=0 value=0 time=141.09780929800036
control_change channel=0 control=32 value=41 time=141.09791446800045
program_change channel=0 program=5 time=141.09879668200028
note_on channel=0 note=60 velocity=80 time=141.4418236470001
note_on channel=1 note=60 velocity=80 time=141.44276969400016
note_on channel=0 note=60 velocity=0 time=141.55479769800058
note_on channel=1 note=60 velocity=0 time=141.55578538999998
control_change channel=0 control=0 value=0 time=141.83779635500014
control_change channel=0 control=32 value=0 time=141.83790195000074
program_change channel=0 program=6 time=141.83878028100025
control_change channel=0 control=7 value=100 time=141.9327785510004
note_on channel=0 note=60 velocity=80 time=142.18878252600007
note_on channel=1 note=60 velocity=80 time=142.1897655970006
note_on channel=0 note=60 velocity=0 time=142.31081397100024
note_on channel=1 note=60 velocity=0 time=142.31176846400012
control_change channel=0 control=0 value=0 time=142.58677149600044
control_change channel=0 control=32 value=1 time=142.5877715480001
program_change channel=0 program=6 time=142.5878599050002
control_change channel=0 control=7 value=127 time=142.682809592
note_on channel=0 note=60 velocity=80 time=142.91178582500015
note_on channel=1 note=60 velocity=80 time=142.91275136000058
note_on channel=0 note=60 velocity=0 time=143.04479434699988
note_on channel=1 note=60 velocity=0 time=143.04575298500004
control_change channel=0 control=0 value=0 time=143.32675042700066
control_change channel=0 control=32 value=35 time=143.3277372729999
program_change channel=0 program=6 time=143.32870691800053
control_change channel=0 control=7 value=104 time=143.4227906040005
note_on channel=0 note=60 velocity=80 time=143.67175180699996
note_on channel=1 note=60 velocity=80 time=143.67273274499985
note_on channel=0 note=60 velocity=0 time=143.8067716860005
note_on channel=1 note=60 velocity=0 time=143.80773664200024
control_change channel=0 control=0 value=0 time=144.09676762800063
control_change channel=0 control=32 value=0 time=144.09772839700054
program_change channel=0 program=7 time=144.0978172720006
control_change channel=0 control=7 value=113 time=144.19276582700058
note_on channel=0 note=60 velocity=80 time=144.401725359
note_on channel=1 note=60 velocity=80 time=144.40183392700055
note_on channel=0 note=60 velocity=0 time=144.53571714200007
note_on channel=1 note=60 velocity=0 time=144.53670650999993
control_change channel=0 control=0 value=0 time=144.7967171549999
control_change channel=0 control=32 value=1 time=144.79771178600004
program_change channel=0 program=7 time=144.79780158799986
control_change channel=0 control=7 value=104 time=144.89274471600038
note_on channel=0 note=60 velocity=80 time=145.17570119100037
note_on channel=1 note=60 velocity=80 time=145.1766889090004
note_on channel=0 note=60 velocity=0 time=145.30173594900043
note_on channel=1 note=60 velocity=0 time=145.30371273800029
control_change channel=0 control=0 value=0 time=145.5566916329999
control_change channel=0 control=32 value=0 time=145.55768770300074
program_change channel=0 program=8 time=145.55865300300047
note_on channel=0 note=60 velocity=80 time=145.86669472300036
note_on channel=1 note=60 velocity=80 time=145.86767001000044
note_on channel=0 note=60 velocity=0 time=145.99471847099994
note_on channel=1 note=60 velocity=0 time=145.99567841499993
control_change channel=0 control=0 value=0 time=146.28668092200041
control_change channel=0 control=32 value=0 time=146.2867918259999
program_change channel=0 program=9 time=146.28766987500057
control_change channel=0 control=7 value=127 time=146.38171034800052
note_on channel=0 note=60 velocity=80 time=146.60167014000035
note_on channel=1 note=60 velocity=80 time=146.60266477000005
note_on channel=0 note=60 velocity=0 time=146.71666072400058
note_on channel=1 note=60 velocity=0 time=146.71775776699997
control_change channel=0 control=0 value=0 time=146.97665490000054
control_change channel=0 control=32 value=0 time=146.97676278000017
program_change channel=0 program=10 time=146.9776516060001
control_change channel=0 control=7 value=104 time=147.07169622400033
note_on channel=0 note=60 velocity=80 time=147.3376464440007
note_on channel=1 note=60 velocity=80 time=147.33862987800057
note_on channel=0 note=60 velocity=0 time=147.44568428300045
note_on channel=1 note=60 velocity=0 time=147.4466173970004
control_change channel=0 control=0 value=0 time=147.71663897500002
control_change channel=0 control=32 value=64 time=147.71674278699993
program_change channel=0 program=10 time=147.717602189
note_on channel=0 note=60 velocity=80 time=148.03566716600017
note_on channel=1 note=60 velocity=80 time=148.03660054600005
note_on channel=0 note=60 velocity=0 time=148.17662317099985
note_on channel=1 note=60 velocity=0 time=148.17761379400054
control_change channel=0 control=0 value=0 time=148.44665063699995
control_change channel=0 control=32 value=0 time=148.44675783100047
program_change channel=0 program=11 time=148.4476114830004
note_on channel=0 note=60 velocity=80 time=148.78261212300004
note_on channel=1 note=60 velocity=80 time=148.78359937999994
note_on channel=0 note=60 velocity=0 time=148.90264492900042
note_on channel=1 note=60 velocity=0 time=148.90359466100017
control_change channel=0 control=0 value=0 time=149.1566020420005
control_change channel=0 control=32 value=1 time=149.15670893400056
program_change channel=0 program=11 time=149.15759343399986
note_on channel=0 note=60 velocity=80 time=149.49162496700046
note_on channel=1 note=60 velocity=80 time=149.49259264400007
note_on channel=0 note=60 velocity=0 time=149.60162870100066
note_on channel=1 note=60 velocity=0 time=149.60259339599997
control_change channel=0 control=0 value=0 time=149.89659336300065
control_change channel=0 control=32 value=0 time=149.89689717400051
program_change channel=0 program=12 time=149.89754793200063
control_change channel=0 control=7 value=100 time=149.9916183360001
note_on channel=0 note=60 velocity=80 time=150.22157492800034
note_on channel=1 note=60 velocity=80 time=150.2225760300007
note_on channel=0 note=60 velocity=0 time=150.34556759899988
note_on channel=1 note=60 velocity=0 time=150.3465794370004
control_change channel=0 control=0 value=0 time=150.6365693530006
control_change channel=0 control=32 value=1 time=150.63698582000052
program_change channel=0 program=12 time=150.637533094
control_change channel=0 control=7 value=94 time=150.73155804500038
note_on channel=0 note=60 velocity=80 time=150.94454602099995
note_on channel=1 note=60 velocity=80 time=150.94554997200066
note_on channel=0 note=60 velocity=0 time=151.07358735600064
note_on channel=1 note=60 velocity=0 time=151.0745539970003
control_change channel=0 control=0 value=0 time=151.31554203999985
control_change channel=0 control=32 value=64 time=151.31654617700042
program_change channel=0 program=12 time=151.31751093300045
control_change channel=0 control=7 value=127 time=151.41059206000045
note_on channel=0 note=60 velocity=80 time=151.66554704700047
note_on channel=1 note=60 velocity=80 time=151.66654336400006
note_on channel=0 note=60 velocity=0 time=151.7855675970004
note_on channel=1 note=60 velocity=0 time=151.7865437290002
control_change channel=0 control=0 value=0 time=152.02556219800044
control_change channel=0 control=32 value=97 time=152.0265414250007
program_change channel=0 program=12 time=152.027490511
control_change channel=0 control=7 value=97 time=152.12152245700054
note_on channel=0 note=60 velocity=80 time=152.34152082499986
note_on channel=1 note=60 velocity=80 time=152.34253062300013
note_on channel=0 note=60 velocity=0 time=152.4635518640007
note_on channel=1 note=60 velocity=0 time=152.46451496600002
control_change channel=0 control=0 value=0 time=152.7365080540003
control_change channel=0 control=32 value=98 time=152.736618205
program_change channel=0 program=12 time=152.73750325400033
control_change channel=0 control=7 value=104 time=152.83154814299996
note_on channel=0 note=60 velocity=80 time=153.08050446400011
note_on channel=1 note=60 velocity=80 time=153.08149881200006
note_on channel=0 note=60 velocity=0 time=153.20953209100026
note_on channel=1 note=60 velocity=0 time=153.21049852800024
control_change channel=0 control=0 value=0 time=153.45551570000043
control_change channel=0 control=32 value=0 time=153.45648213200002
program_change channel=0 program=13 time=153.4565763110004
control_change channel=0 control=7 value=99 time=153.55150926199985
note_on channel=0 note=60 velocity=80 time=153.8174895910006
note_on channel=1 note=60 velocity=80 time=153.81846812599997
note_on channel=0 note=60 velocity=0 time=153.95746856700043
note_on channel=1 note=60 velocity=0 time=153.95845687400015
control_change channel=0 control=0 value=0 time=154.19547524300015
control_change channel=0 control=32 value=0 time=154.19646361200012
program_change channel=0 program=14 time=154.1965511340004
control_change channel=0 control=7 value=104 time=154.2915089369999
note_on channel=0 note=60 velocity=80 time=154.5264611040002
note_on channel=1 note=60 velocity=80 time=154.52658561200042
note_on channel=0 note=60 velocity=0 time=154.65450896900074
note_on channel=1 note=60 velocity=0 time=154.6546192169999
control_change channel=0 control=0 value=0 time=154.9354570280002
control_change channel=0 control=32 value=96 time=154.93645032600034
program_change channel=0 program=14 time=154.93741960199986
control_change channel=0 control=7 value=80 time=155.03149254600066
note_on channel=0 note=60 velocity=80 time=155.26644833000046
note_on channel=1 note=60 velocity=80 time=155.26743749800062
note_on channel=0 note=60 velocity=0 time=155.39147960599985
note_on channel=1 note=60 velocity=0 time=155.3924325150001
control_change channel=0 control=0 value=0 time=155.66544960600004
control_change channel=0 control=32 value=97 time=155.66643040100007
program_change channel=0 program=14 time=155.6665348790002
note_on channel=0 note=60 velocity=80 time=155.99242472200058
note_on channel=1 note=60 velocity=80 time=155.9934265210004
note_on channel=0 note=60 velocity=0 time=156.11046358000021
note_on channel=1 note=60 velocity=0 time=156.1114110110002
control_change channel=0 control=0 value=0 time=156.3954252880003
control_change channel=0 control=32 value=0 time=156.39639418000024
program_change channel=0 program=15 time=156.39647800700004
control_change channel=0 control=7 value=99 time=156.49045872500028
note_on channel=0 note=60 velocity=80 time=156.72840772200016
note_on channel=1 note=60 velocity=80 time=156.7293801650003
note_on channel=0 note=60 velocity=0 time=156.8404424549999
note_on channel=1 note=60 velocity=0 time=156.841375641
control_change channel=0 control=0 value=0 time=157.10541091400046
control_change channel=0 control=32 value=35 time=157.1063903310005
program_change channel=0 program=15 time=157.1065036380005
note_on channel=0 note=60 velocity=80 time=157.43441671600067
note_on channel=1 note=60 velocity=80 time=157.43536579200008
note_on channel=0 note=60 velocity=0 time=157.548385348
note_on channel=1 note=60 velocity=0 time=157.5493786830002
control_change channel=0 control=0 value=0 time=157.79539135600044
control_change channel=0 control=32 value=96 time=157.79635893600062
program_change channel=0 program=15 time=157.79735123499995
note_on channel=0 note=60 velocity=80 time=158.1413708250002
note_on channel=1 note=60 velocity=80 time=158.14236894600072
note_on channel=0 note=60 velocity=0 time=158.25141267900017
note_on channel=1 note=60 velocity=0 time=158.25234185800036
control_change channel=0 control=0 value=0 time=158.52536229399993
control_change channel=0 control=32 value=97 time=158.5263845140007
program_change channel=0 program=15 time=158.52736744100002
control_change channel=0 control=7 value=90 time=158.6204072340006
note_on channel=0 note=60 velocity=80 time=158.8433775809999
note_on channel=1 note=60 velocity=80 time=158.84434682100073
note_on channel=0 note=60 velocity=0 time=158.96434704500007
note_on channel=1 note=60 velocity=0 time=158.96636155299984
control_change channel=0 control=0 value=0 time=159.21535298000072
control_change channel=0 control=32 value=0 time=159.21633245800058
program_change channel=0 program=16 time=159.21642330600025
control_change channel=0 control=7 value=104 time=159.3103417580005
note_on channel=0 note=60 velocity=80 time=159.56734085300013
note_on channel=1 note=60 velocity=80 time=159.56832931900044
note_on channel=0 note=60 velocity=0 time=159.6823732160001
note_on channel=1 note=60 velocity=0 time=159.683331618
control_change channel=0 control=0 value=0 time=159.92532227500033
control_change channel=0 control=32 value=32 time=159.9254335630003
program_change channel=0 program=16 time=159.9262977970002
control_change channel=0 control=7 value=85 time=160.02037365600063
note_on channel=0 note=60 velocity=80 time=160.24532050000016
note_on channel=1 note=60 velocity=80 time=160.24631226100064
note_on channel=0 note=60 velocity=0 time=160.368311661
note_on channel=1 note=60 velocity=0 time=160.37059843099996
control_change channel=0 control=0 value=0 time=160.61531647599986
control_change channel=0 control=32 value=33 time=160.61543077199985
program_change channel=0 program=16 time=160.61628226700032
control_change channel=0 control=7 value=104 time=160.71030141100073
note_on channel=0 note=60 velocity=80 time=160.94230436100042
note_on channel=1 note=60 velocity=80 time=160.9432908960007
note_on channel=0 note=60 velocity=0 time=161.0713299120007
note_on channel=1 note=60 velocity=0 time=161.072293188
control_change channel=0 control=0 value=0 time=161.3053281299999
control_change channel=0 control=32 value=34 time=161.30543803900036
program_change channel=0 program=16 time=161.306268843
note_on channel=0 note=60 velocity=80 time=161.67929337900023
note_on channel=1 note=60 velocity=80 time=161.68027372300003
note_on channel=0 note=60 velocity=0 time=161.81931431800058
note_on channel=1 note=60 velocity=0 time=161.82025460000023
control_change channel=0 control=0 value=0 time=162.04430661900005
control_change channel=0 control=32 value=35 time=162.0452613410007
program_change channel=0 program=16 time=162.04623583900047
note_on channel=0 note=60 velocity=80 time=162.39626170700012
note_on channel=1 note=60 velocity=80 time=162.39724844600005
note_on channel=0 note=60 velocity=0 time=162.50930210800016
note_on channel=1 note=60 velocity=0 time=162.51024304700059
control_change channel=0 control=0 value=0 time=162.7652550319999
control_change channel=0 control=32 value=37 time=162.76536319500065
program_change channel=0 program=16 time=162.76623347500026
note_on channel=0 note=60 velocity=80 time=163.09324715100047
note_on channel=1 note=60 velocity=80 time=163.0942334649999
note_on channel=0 note=60 velocity=0 time=163.22728129500047
note_on channel=1 note=60 velocity=0 time=163.22822353500032
control_change channel=0 control=0 value=0 time=163.4752621130001
control_change channel=0 control=32 value=40 time=163.47536928699992
program_change channel=0 program=16 time=163.4762221860001
control_change channel=0 control=7 value=97 time=163.56926727300015
note_on channel=0 note=60 velocity=80 time=163.79723183900023
note_on channel=1 note=60 velocity=80 time=163.79822403100025
note_on channel=0 note=60 velocity=0 time=163.9332204250004
note_on channel=1 note=60 velocity=0 time=163.93421218100048
control_change channel=0 control=0 value=0 time=164.17522482999993
control_change channel=0 control=32 value=64 time=164.17534031500054
program_change channel=0 program=16 time=164.176216457
control_change channel=0 control=7 value=104 time=164.26925852100067
note_on channel=0 note=60 velocity=80 time=164.50125088999994
note_on channel=1 note=60 velocity=80 time=164.50136316200042
note_on channel=0 note=60 velocity=0 time=164.6172411739999
note_on channel=1 note=60 velocity=0 time=164.61819325800025
control_change channel=0 control=0 value=0 time=164.895214313
control_change channel=0 control=32 value=65 time=164.89532314200005
program_change channel=0 program=16 time=164.89616556700003
note_on channel=0 note=60 velocity=80 time=165.21820473700063
note_on channel=1 note=60 velocity=80 time=165.21918763300073
note_on channel=0 note=60 velocity=0 time=165.33417977600038
note_on channel=1 note=60 velocity=0 time=165.33517534900056
control_change channel=0 control=0 value=0 time=165.57417984400035
control_change channel=0 control=32 value=66 time=165.57517759500024
program_change channel=0 program=16 time=165.57526708000023
control_change channel=0 control=7 value=114 time=165.66921155799992
note_on channel=0 note=60 velocity=80 time=165.91716751400054
note_on channel=1 note=60 velocity=80 time=165.9181557030006
note_on channel=0 note=60 velocity=0 time=166.05720530100007
note_on channel=1 note=60 velocity=0 time=166.05815532500037
control_change channel=0 control=0 value=0 time=166.29419082300046
control_change channel=0 control=32 value=67 time=166.2951610680002
program_change channel=0 program=16 time=166.2961275309999
control_change channel=0 control=7 value=104 time=166.39019671799997
note_on channel=0 note=60 velocity=80 time=166.6391588030001
note_on channel=1 note=60 velocity=80 time=166.64013170700036
note_on channel=0 note=60 velocity=0 time=166.76314862300023
note_on channel=1 note=60 velocity=0 time=166.7641417620007
control_change channel=0 control=0 value=0 time=167.00415106400033
control_change channel=0 control=32 value=0 time=167.00514383500013
program_change channel=0 program=17 time=167.0061096620002
note_on channel=0 note=60 velocity=80 time=167.33713346700006
note_on channel=1 note=60 velocity=80 time=167.33812717599994
note_on channel=0 note=60 velocity=0 time=167.4781727770005
note_on channel=1 note=60 velocity=0 time=167.47911266000028
control_change channel=0 control=0 value=0 time=167.70416194800055
control_change channel=0 control=32 value=24 time=167.70513260799999
program_change channel=0 program=17 time=167.70522960500057
note_on channel=0 note=60 velocity=80 time=168.04915230000006
note_on channel=1 note=60 velocity=80 time=168.0501063620004
note_on channel=0 note=60 velocity=0 time=168.14610978100063
note_on channel=1 note=60 velocity=0 time=168.14709886299988
control_change channel=0 control=0 value=0 time=168.444138629
control_change channel=0 control=32 value=32 time=168.4451021040004
program_change channel=0 program=17 time=168.44519145100003
control_change channel=0 control=7 value=95 time=168.5391027960004
note_on channel=0 note=60 velocity=80 time=168.75609822100068
note_on channel=1 note=60 velocity=80 time=168.75708421700074
note_on channel=0 note=60 velocity=0 time=168.8811317310001
note_on channel=1 note=60 velocity=0 time=168.88208706800015
control_change channel=0 control=0 value=0 time=169.15409315099987
control_change channel=0 control=32 value=33 time=169.15420331699988
program_change channel=0 program=17 time=169.1550746740004
control_change channel=0 control=7 value=114 time=169.24913000000015
note_on channel=0 note=60 velocity=80 time=169.46012397899995
note_on channel=1 note=60 velocity=80 time=169.46107179000046
note_on channel=0 note=60 velocity=0 time=169.5831099090001
note_on channel=1 note=60 velocity=0 time=169.5840617419999
control_change channel=0 control=0 value=0 time=169.83407922600054
control_change channel=0 control=32 value=37 time=169.83418919700034
program_change channel=0 program=17 time=169.8350583450001
control_change channel=0 control=7 value=85 time=169.92907004900007
note_on channel=0 note=60 velocity=80 time=170.1410650380003
note_on channel=1 note=60 velocity=80 time=170.1431109740006
note_on channel=0 note=60 velocity=0 time=170.2900998210007
note_on channel=1 note=60 velocity=0 time=170.29102952700032
control_change channel=0 control=0 value=0 time=170.5340533440003
control_change channel=0 control=32 value=0 time=170.53415970200058
program_change channel=0 program=18 time=170.53503264200026
control_change channel=0 control=7 value=104 time=170.6290928110002
note_on channel=0 note=60 velocity=80 time=170.91004102400075
note_on channel=1 note=60 velocity=80 time=170.9110293980002
note_on channel=0 note=60 velocity=0 time=171.03107857800023
note_on channel=1 note=60 velocity=0 time=171.03203339300035
control_change channel=0 control=0 value=0 time=171.26407015899986
control_change channel=0 control=32 value=64 time=171.26417854700048
program_change channel=0 program=18 time=171.26500356500037
control_change channel=0 control=7 value=96 time=171.35906858599992
note_on channel=0 note=60 velocity=80 time=171.59303890200044
note_on channel=1 note=60 velocity=80 time=171.593143006
note_on channel=0 note=60 velocity=0 time=171.70901874800074
note_on channel=1 note=60 velocity=0 time=171.71001452600012
control_change channel=0 control=0 value=0 time=171.97401171100046
control_change channel=0 control=32 value=65 time=171.97500589599986
program_change channel=0 program=18 time=171.97509684099987
control_change channel=0 control=7 value=104 time=172.0690512199999
note_on channel=0 note=60 velocity=80 time=172.29204346700044
note_on channel=1 note=60 velocity=80 time=172.29299435700068
note_on channel=0 note=60 velocity=0 time=172.4250445380003
note_on channel=1 note=60 velocity=0 time=172.42600362700068
control_change channel=0 control=0 value=0 time=172.66400664000048
control_change channel=0 control=32 value=66 time=172.66498352500003
program_change channel=0 program=18 time=172.66507010900023
note_on channel=0 note=60 velocity=80 time=172.98499515500043
note_on channel=1 note=60 velocity=80 time=172.98597326000072
note_on channel=0 note=60 velocity=0 time=173.13398145200063
note_on channel=1 note=60 velocity=0 time=173.13497759500024
control_change channel=0 control=0 value=0 time=173.38398248200065
control_change channel=0 control=32 value=0 time=173.38496316500004
program_change channel=0 program=19 time=173.38504877000014
note_on channel=0 note=60 velocity=80 time=173.7269710390001
note_on channel=1 note=60 velocity=80 time=173.72795978200065
note_on channel=0 note=60 velocity=0 time=173.8800089920005
note_on channel=1 note=60 velocity=0 time=173.8809594100003
control_change channel=0 control=0 value=0 time=174.14396499300074
control_change channel=0 control=32 value=32 time=174.14407752600073
program_change channel=0 program=19 time=174.1449413350001
note_on channel=0 note=60 velocity=80 time=174.43997873199987
note_on channel=1 note=60 velocity=80 time=174.44094636800037
note_on channel=0 note=60 velocity=0 time=174.58994550199986
note_on channel=1 note=60 velocity=0 time=174.5909356279999
control_change channel=0 control=0 value=0 time=174.82298989300034
control_change channel=0 control=32 value=35 time=174.82391076000022
program_change channel=0 program=19 time=174.82491644400034
note_on channel=0 note=60 velocity=80 time=175.09595972199986
note_on channel=1 note=60 velocity=80 time=175.09692949500004
note_on channel=0 note=60 velocity=0 time=175.277968417
note_on channel=1 note=60 velocity=0 time=175.27892104900002
control_change channel=0 control=0 value=0 time=175.54292716000054
control_change channel=0 control=32 value=40 time=175.54391599600058
program_change channel=0 program=19 time=175.5448934650003
note_on channel=0 note=60 velocity=80 time=175.86292694300028
note_on channel=1 note=60 velocity=80 time=175.8639171980003
note_on channel=0 note=60 velocity=0 time=175.9949465360005
note_on channel=1 note=60 velocity=0 time=175.99589885100067
control_change channel=0 control=0 value=0 time=176.2529113010005
control_change channel=0 control=32 value=64 time=176.25389945400002
program_change channel=0 program=19 time=176.25398956900062
control_change channel=0 control=7 value=92 time=176.34890692499994
note_on channel=0 note=60 velocity=80 time=176.5768964480003
note_on channel=1 note=60 velocity=80 time=176.57789503999993
note_on channel=0 note=60 velocity=0 time=176.71989380800005
note_on channel=1 note=60 velocity=0 time=176.72088968900061
control_change channel=0 control=0 value=0 time=176.94288456699996
control_change channel=0 control=32 value=65 time=176.94388807799987
program_change channel=0 program=19 time=176.9439766860005
control_change channel=0 control=7 value=94 time=177.0389253200001
note_on channel=0 note=60 velocity=80 time=177.2938903740005
note_on channel=1 note=60 velocity=80 time=177.29487758400046
note_on channel=0 note=60 velocity=0 time=177.41691698200066
note_on channel=1 note=60 velocity=0 time=177.41787331400064
control_change channel=0 control=0 value=0 time=177.67289537500073
control_change channel=0 control=32 value=0 time=177.67387633399994
program_change channel=0 program=20 time=177.67396649500006
control_change channel=0 control=7 value=104 time=177.7679030240006
note_on channel=0 note=60 velocity=80 time=178.01586446800047
note_on channel=1 note=60 velocity=80 time=178.01688018500045
note_on channel=0 note=60 velocity=0 time=178.1248618640002
note_on channel=1 note=60 velocity=0 time=178.1258521690006
control_change channel=0 control=0 value=0 time=178.4228828840005
control_change channel=0 control=32 value=40 time=178.42385674600064
program_change channel=0 program=20 time=178.42481809499986
note_on channel=0 note=60 velocity=80 time=178.73684339400006
note_on channel=1 note=60 velocity=80 time=178.7378356930003
note_on channel=0 note=60 velocity=0 time=178.8638783590004
note_on channel=1 note=60 velocity=0 time=178.86483442000008
control_change channel=0 control=0 value=0 time=179.11282767500052
control_change channel=0 control=32 value=0 time=179.11382706099994
program_change channel=0 program=21 time=179.11391522300073
note_on channel=0 note=60 velocity=80 time=179.44185494400062
note_on channel=1 note=60 velocity=80 time=179.44280740200065
note_on channel=0 note=60 velocity=0 time=179.56786261600064
note_on channel=1 note=60 velocity=0 time=179.56881384999997
control_change channel=0 control=0 value=0 time=179.8428215670001
control_change channel=0 control=32 value=0 time=179.84380103000058
program_change channel=0 program=22 time=179.84389091000048
note_on channel=0 note=60 velocity=80 time=180.163815162
note_on channel=1 note=60 velocity=80 time=180.16480350000074
note_on channel=0 note=60 velocity=0 time=180.29584421900017
note_on channel=1 note=60 velocity=0 time=180.29677818900018
control_change channel=0 control=0 value=0 time=180.56279606000044
control_change channel=0 control=32 value=32 time=180.56379863800066
program_change channel=0 program=22 time=180.56389666999985
note_on channel=0 note=60 velocity=80 time=180.86479857500035
note_on channel=1 note=60 velocity=80 time=180.86577511300038
note_on channel=0 note=60 velocity=0 time=180.9988140610003
note_on channel=1 note=60 velocity=0 time=180.99977120200037
control_change channel=0 control=0 value=0 time=181.25279277400023
control_change channel=0 control=32 value=0 time=181.25290259700068
program_change channel=0 program=23 time=181.25377567600026
note_on channel=0 note=60 velocity=80 time=181.57977909300007
note_on channel=1 note=60 velocity=80 time=181.5807544320005
note_on channel=0 note=60 velocity=0 time=181.7167677360003
note_on channel=1 note=60 velocity=0 time=181.71776054200018
control_change channel=0 control=0 value=0 time=181.98279045400068
control_change channel=0 control=32 value=64 time=181.9837638810004
program_change channel=0 program=23 time=181.98385672200038
note_on channel=0 note=60 velocity=80 time=182.28976621099991
note_on channel=1 note=60 velocity=80 time=182.2907472730003
note_on channel=0 note=60 velocity=0 time=182.422785062
note_on channel=1 note=60 velocity=0 time=182.42429786600042
control_change channel=0 control=0 value=0 time=182.68275058700056
control_change channel=0 control=32 value=0 time=182.68286179799998
program_change channel=0 program=24 time=182.68372737500067
control_change channel=0 control=7 value=99 time=182.77778010700058
note_on channel=0 note=60 velocity=80 time=182.97673057800057
note_on channel=1 note=60 velocity=80 time=182.97774907800067
note_on channel=0 note=60 velocity=0 time=183.10973163800008
note_on channel=1 note=60 velocity=0 time=183.11072098600016
control_change channel=0 control=0 value=0 time=183.40273154600072
control_change channel=0 control=32 value=43 time=183.40283821699995
program_change channel=0 program=24 time=183.4037146110004
control_change channel=0 control=7 value=104 time=183.49776526799997
note_on channel=0 note=60 velocity=80 time=183.7067563950004
note_on channel=1 note=60 velocity=80 time=183.70771993200015
note_on channel=0 note=60 velocity=0 time=183.8327558130004
note_on channel=1 note=60 velocity=0 time=183.83370765600012
control_change channel=0 control=0 value=0 time=184.09274772800018
control_change channel=0 control=32 value=96 time=184.092854988
program_change channel=0 program=24 time=184.09370029900037
note_on channel=0 note=60 velocity=80 time=184.41470657599984
note_on channel=1 note=60 velocity=80 time=184.4156922130005
note_on channel=0 note=60 velocity=0 time=184.5436991760007
note_on channel=1 note=60 velocity=0 time=184.5446846949999
control_change channel=0 control=0 value=0 time=184.80270071799987
control_change channel=0 control=32 value=0 time=184.80280573400069
program_change channel=0 program=25 time=184.80367174599996
note_on channel=0 note=60 velocity=80 time=185.11667580100038
note_on channel=1 note=60 velocity=80 time=185.11766867900042
note_on channel=0 note=60 velocity=0 time=185.25671419800074
note_on channel=1 note=60 velocity=0 time=185.25767119600005
control_change channel=0 control=0 value=0 time=185.492710515
control_change channel=0 control=32 value=35 time=185.49365958599992
program_change channel=0 program=25 time=185.49374787700071
note_on channel=0 note=60 velocity=80 time=185.80366571800005
note_on channel=1 note=60 velocity=80 time=185.80377588400006
note_on channel=0 note=60 velocity=0 time=185.94265842599998
note_on channel=1 note=60 velocity=0 time=185.9436391600002
control_change channel=0 control=0 value=0 time=186.19265919999998
control_change channel=0 control=32 value=40 time=186.19364813300035
program_change channel=0 program=25 time=186.19373645399992
note_on channel=0 note=60 velocity=80 time=186.54964590500003
note_on channel=1 note=60 velocity=80 time=186.55064482000034
note_on channel=0 note=60 velocity=0 time=186.66768353000043
note_on channel=1 note=60 velocity=0 time=186.66862883500016
control_change channel=0 control=0 value=0 time=186.9216362390007
control_change channel=0 control=32 value=41 time=186.9226386170003
program_change channel=0 program=25 time=186.92360041700067
note_on channel=0 note=60 velocity=80 time=187.25664381700062
note_on channel=1 note=60 velocity=80 time=187.25675323399992
note_on channel=0 note=60 velocity=0 time=187.39166239299993
note_on channel=1 note=60 velocity=0 time=187.3926135290003
control_change channel=0 control=0 value=0 time=187.64162933199987
control_change channel=0 control=32 value=96 time=187.64261036300013
program_change channel=0 program=25 time=187.643584122
control_change channel=0 control=7 value=127 time=187.736615152
note_on channel=0 note=60 velocity=80 time=187.95661465900048
note_on channel=1 note=60 velocity=80 time=187.9575964380001
note_on channel=0 note=60 velocity=0 time=188.09164760400017
note_on channel=1 note=60 velocity=0 time=188.09259564500007
control_change channel=0 control=0 value=0 time=188.35160204500062
control_change channel=0 control=32 value=0 time=188.35260672999993
program_change channel=0 program=26 time=188.35270143100024
control_change channel=0 control=7 value=104 time=188.44763048000004
note_on channel=0 note=60 velocity=80 time=188.6595993660003
note_on channel=1 note=60 velocity=80 time=188.66058372800035
note_on channel=0 note=60 velocity=0 time=188.80362833900017
note_on channel=1 note=60 velocity=0 time=188.80458148400066
control_change channel=0 control=0 value=0 time=189.0715826250007
control_change channel=0 control=32 value=32 time=189.0725682930006
program_change channel=0 program=26 time=189.07354100300017
control_change channel=0 control=7 value=85 time=189.16661682300037
note_on channel=0 note=60 velocity=80 time=189.3905841650003
note_on channel=1 note=60 velocity=80 time=189.39156458100024
note_on channel=0 note=60 velocity=0 time=189.53556110200043
note_on channel=1 note=60 velocity=0 time=189.53655967800023
control_change channel=0 control=0 value=0 time=189.7815662840003
control_change channel=0 control=32 value=0 time=189.7825751549999
program_change channel=0 program=27 time=189.7826631530006
control_change channel=0 control=7 value=104 time=189.87659996500042
note_on channel=0 note=60 velocity=80 time=190.1135538490007
note_on channel=1 note=60 velocity=80 time=190.11456468699998
note_on channel=0 note=60 velocity=0 time=190.2325953440004
note_on channel=1 note=60 velocity=0 time=190.23270581199995
control_change channel=0 control=0 value=0 time=190.48157918700053
control_change channel=0 control=32 value=32 time=190.48255493500073
program_change channel=0 program=27 time=190.4826468480005
note_on channel=0 note=60 velocity=80 time=190.81154892700033
note_on channel=1 note=60 velocity=80 time=190.81253190500047
note_on channel=0 note=60 velocity=0 time=190.9415315920005
note_on channel=1 note=60 velocity=0 time=190.942540473
control_change channel=0 control=0 value=0 time=191.2315315169999
control_change channel=0 control=32 value=0 time=191.23251582300054
program_change channel=0 program=28 time=191.23348352599987
note_on channel=0 note=60 velocity=80 time=191.5365156100006
note_on channel=1 note=60 velocity=80 time=191.53750723800022
note_on channel=0 note=60 velocity=0 time=191.67456146600034
note_on channel=1 note=60 velocity=0 time=191.67549885300014
control_change channel=0 control=0 value=0 time=191.9215063520005
control_change channel=0 control=32 value=40 time=191.92251813800067
program_change channel=0 program=28 time=191.92347626399987
note_on channel=0 note=60 velocity=80 time=192.25350875599997
note_on channel=1 note=60 velocity=80 time=192.25361924500066
note_on channel=0 note=60 velocity=0 time=192.3855004320003
note_on channel=1 note=60 velocity=0 time=192.3864968200005
control_change channel=0 control=0 value=0 time=192.6414960940001
control_change channel=0 control=32 value=41 time=192.64249493600073
program_change channel=0 program=28 time=192.64259122100066
note_on channel=0 note=60 velocity=80 time=192.98649198900057
note_on channel=1 note=60 velocity=80 time=192.987466476
note_on channel=0 note=60 velocity=0 time=193.11048945099992
note_on channel=1 note=60 velocity=0 time=193.11147471000004
control_change channel=0 control=0 value=0 time=193.35146790999988
control_change channel=0 control=32 value=45 time=193.35157415100002
program_change channel=0 program=28 time=193.35245743700034
control_change channel=0 control=7 value=99 time=193.4475139770002
note_on channel=0 note=60 velocity=80 time=193.676480438
note_on channel=1 note=60 velocity=80 time=193.67745092800033
note_on channel=0 note=60 velocity=0 time=193.8134993650001
note_on channel=1 note=60 velocity=0 time=193.8144527960003
control_change channel=0 control=0 value=0 time=194.06149744699997
control_change channel=0 control=32 value=0 time=194.06160401500074
program_change channel=0 program=29 time=194.06241777100058
control_change channel=0 control=7 value=104 time=194.156493126
note_on channel=0 note=60 velocity=80 time=194.37145185400004
note_on channel=1 note=60 velocity=80 time=194.37244279100014
note_on channel=0 note=60 velocity=0 time=194.5224418130001
note_on channel=1 note=60 velocity=0 time=194.5234214910006
control_change channel=0 control=0 value=0 time=194.75144169400028
control_change channel=0 control=32 value=43 time=194.75243242600027
program_change channel=0 program=29 time=194.75252706500032
note_on channel=0 note=60 velocity=80 time=195.1164256709999
note_on channel=1 note=60 velocity=80 time=195.1174224180004
note_on channel=0 note=60 velocity=0 time=195.24546560399995
note_on channel=1 note=60 velocity=0 time=195.24641636600063
control_change channel=0 control=0 value=0 time=195.491446
control_change channel=0 control=32 value=0 time=195.491551395
program_change channel=0 program=30 time=195.49239076699996
note_on channel=0 note=60 velocity=80 time=195.8414197480006
note_on channel=1 note=60 velocity=80 time=195.84239737700045
note_on channel=0 note=60 velocity=0 time=195.9694020320003
note_on channel=1 note=60 velocity=0 time=195.97039649900034
control_change channel=0 control=0 value=0 time=196.21142661500016
control_change channel=0 control=32 value=40 time=196.21153406600024
program_change channel=0 program=30 time=196.21237574299994
note_on channel=0 note=60 velocity=80 time=196.53139263000048
note_on channel=1 note=60 velocity=80 time=196.53238606700052
note_on channel=0 note=60 velocity=0 time=196.6814279730006
note_on channel=1 note=60 velocity=0 time=196.68237754200072
control_change channel=0 control=0 value=0 time=196.93139014700046
control_change channel=0 control=32 value=41 time=196.93149932400047
program_change channel=0 program=30 time=196.93238241000017
note_on channel=0 note=60 velocity=80 time=197.2383867389999
note_on channel=1 note=60 velocity=80 time=197.23937459100034
note_on channel=0 note=60 velocity=0 time=197.37937506800063
note_on channel=1 note=60 velocity=0 time=197.38036430300053
control_change channel=0 control=0 value=0 time=197.62037284100006
control_change channel=0 control=32 value=0 time=197.62135796100029
program_change channel=0 program=31 time=197.62233363199994
note_on channel=0 note=60 velocity=80 time=197.9613560990001
note_on channel=1 note=60 velocity=80 time=197.96234722400004
note_on channel=0 note=60 velocity=0 time=198.10935058999985
note_on channel=1 note=60 velocity=0 time=198.11035423500016
control_change channel=0 control=0 value=0 time=198.3703475100001
control_change channel=0 control=32 value=65 time=198.37157192700033
program_change channel=0 program=31 time=198.37229984600071
control_change channel=0 control=7 value=80 time=198.4653907560005
note_on channel=0 note=60 velocity=80 time=198.68437743699997
note_on channel=1 note=60 velocity=80 time=198.68533798200042
note_on channel=0 note=60 velocity=0 time=198.84637183300038
note_on channel=1 note=60 velocity=0 time=198.8473230620002
control_change channel=0 control=0 value=0 time=199.0603332820001
control_change channel=0 control=32 value=66 time=199.06131206900045
program_change channel=0 program=31 time=199.06228567500057
control_change channel=0 control=7 value=104 time=199.15536754999994
note_on channel=0 note=60 velocity=80 time=199.3653201090001
note_on channel=1 note=60 velocity=80 time=199.36631036900053
note_on channel=0 note=60 velocity=0 time=199.53831694200016
note_on channel=1 note=60 velocity=0 time=199.53930468100043
control_change channel=0 control=0 value=0 time=199.7803153089999
control_change channel=0 control=32 value=0 time=199.78130009600045
program_change channel=0 program=32 time=199.7813986760002
control_change channel=0 control=7 value=90 time=199.87535418900006
note_on channel=0 note=60 velocity=80 time=200.08834034100073
note_on channel=1 note=60 velocity=80 time=200.0892932910001
note_on channel=0 note=60 velocity=0 time=200.22334295900055
note_on channel=1 note=60 velocity=0 time=200.22428796700024
control_change channel=0 control=0 value=0 time=200.4603430670004
control_change channel=0 control=32 value=40 time=200.46129113900042
program_change channel=0 program=32 time=200.46226040500005
control_change channel=0 control=7 value=104 time=200.55533379999997
note_on channel=0 note=60 velocity=80 time=200.78028401900065
note_on channel=1 note=60 velocity=80 time=200.78126945800068
note_on channel=0 note=60 velocity=0 time=200.91827797099995
note_on channel=1 note=60 velocity=0 time=200.91928732399992
control_change channel=0 control=0 value=0 time=201.15030241900058
control_change channel=0 control=32 value=45 time=201.15127201799987
program_change channel=0 program=32 time=201.15137490300003
control_change channel=0 control=7 value=100 time=201.2463617050007
note_on channel=0 note=60 velocity=80 time=201.4743136040006
note_on channel=1 note=60 velocity=80 time=201.47629946800043
note_on channel=0 note=60 velocity=0 time=201.62629783100056
note_on channel=1 note=60 velocity=0 time=201.62724702600008
control_change channel=0 control=0 value=0 time=201.88026203400022
control_change channel=0 control=32 value=0 time=201.88125090500034
program_change channel=0 program=33 time=201.88134619599987
note_on channel=0 note=60 velocity=80 time=202.20025522800006
note_on channel=1 note=60 velocity=80 time=202.20124535000014
note_on channel=0 note=60 velocity=0 time=202.34824146500068
note_on channel=1 note=60 velocity=0 time=202.34922744600044
control_change channel=0 control=0 value=0 time=202.56024298300053
control_change channel=0 control=32 value=18 time=202.56123039900012
program_change channel=0 program=33 time=202.56131958100013
control_change channel=0 control=7 value=104 time=202.655278876
note_on channel=0 note=60 velocity=80 time=202.8652644140002
note_on channel=1 note=60 velocity=80 time=202.86623181400046
note_on channel=0 note=60 velocity=0 time=202.98925669300024
note_on channel=1 note=60 velocity=0 time=202.99021513700063
control_change channel=0 control=0 value=0 time=203.25023087099999
control_change channel=0 control=32 value=40 time=203.25121287100046
program_change channel=0 program=33 time=203.25217976400018
note_on channel=0 note=60 velocity=80 time=203.5552201270002
note_on channel=1 note=60 velocity=80 time=203.55620127100065
note_on channel=0 note=60 velocity=0 time=203.69325237200064
note_on channel=1 note=60 velocity=0 time=203.69421028800025
control_change channel=0 control=0 value=0 time=203.94020446800005
control_change channel=0 control=32 value=43 time=203.94119779300036
program_change channel=0 program=33 time=203.94217456000024
control_change channel=0 control=7 value=95 time=204.03524223100067
note_on channel=0 note=60 velocity=80 time=204.24821869800053
note_on channel=1 note=60 velocity=80 time=204.24918395200075
note_on channel=0 note=60 velocity=0 time=204.39519792300052
note_on channel=1 note=60 velocity=0 time=204.3961866870004
control_change channel=0 control=0 value=0 time=204.6101951770006
control_change channel=0 control=32 value=45 time=204.61118368900043
program_change channel=0 program=33 time=204.61127246700016
control_change channel=0 control=7 value=104 time=204.70518274300048
note_on channel=0 note=60 velocity=80 time=204.9701785440002
note_on channel=1 note=60 velocity=80 time=204.9711722940001
note_on channel=0 note=60 velocity=0 time=205.106172668
note_on channel=1 note=60 velocity=0 time=205.10716653000054
control_change channel=0 control=0 value=0 time=205.31016861100034
control_change channel=0 control=32 value=65 time=205.31116321100035
program_change channel=0 program=33 time=205.31125023100049
control_change channel=0 control=7 value=66 time=205.4052077790002
note_on channel=0 note=60 velocity=80 time=205.65318549699987
note_on channel=1 note=60 velocity=80 time=205.65414999200038
note_on channel=0 note=60 velocity=0 time=205.78818978100026
note_on channel=1 note=60 velocity=0 time=205.78915201100062
control_change channel=0 control=0 value=0 time=206.0121614180007
control_change channel=0 control=32 value=0 time=206.01313398399998
program_change channel=0 program=34 time=206.01412909200008
note_on channel=0 note=60 velocity=80 time=206.35514543600038
note_on channel=1 note=60 velocity=80 time=206.35612629800016
note_on channel=0 note=60 velocity=0 time=206.4871826360004
note_on channel=1 note=60 velocity=0 time=206.48814061800022
control_change channel=0 control=0 value=0 time=206.70217893600056
control_change channel=0 control=32 value=28 time=206.7031442360003
program_change channel=0 program=34 time=206.70324186300058
control_change channel=0 control=7 value=90 time=206.79517123000005
note_on channel=0 note=60 velocity=80 time=207.00312853200012
note_on channel=1 note=60 velocity=80 time=207.00411818200064
note_on channel=0 note=60 velocity=0 time=207.11912553300044
note_on channel=1 note=60 velocity=0 time=207.12011642400012
control_change channel=0 control=0 value=0 time=207.4121222670001
control_change channel=0 control=32 value=0 time=207.4131100880004
program_change channel=0 program=35 time=207.41408103499998
control_change channel=0 control=7 value=70 time=207.50511189100052
note_on channel=0 note=60 velocity=80 time=207.72310707500037
note_on channel=1 note=60 velocity=80 time=207.7241096480002
note_on channel=0 note=60 velocity=0 time=207.83914854500017
note_on channel=1 note=60 velocity=0 time=207.8400964120001
control_change channel=0 control=0 value=0 time=208.10213695600032
control_change channel=0 control=32 value=32 time=208.10307116200056
program_change channel=0 program=35 time=208.10315529200034
control_change channel=0 control=7 value=65 time=208.19614112399995
note_on channel=0 note=60 velocity=80 time=208.39710433800064
note_on channel=1 note=60 velocity=80 time=208.39808067500053
note_on channel=0 note=60 velocity=0 time=208.5320872100001
note_on channel=1 note=60 velocity=0 time=208.5347555160006
control_change channel=0 control=0 value=0 time=208.79209538300074
control_change channel=0 control=32 value=33 time=208.79308268100067
program_change channel=0 program=35 time=208.79317731100036
control_change channel=0 control=7 value=104 time=208.88512139000068
note_on channel=0 note=60 velocity=80 time=209.1340660650003
note_on channel=1 note=60 velocity=80 time=209.13417032300003
note_on channel=0 note=60 velocity=0 time=209.27110760899996
note_on channel=1 note=60 velocity=0 time=209.2730930180005
control_change channel=0 control=0 value=0 time=209.5220608440004
control_change channel=0 control=32 value=34 time=209.5230527800004
program_change channel=0 program=35 time=209.5240241520005
note_on channel=0 note=60 velocity=80 time=209.84407288000057
note_on channel=1 note=60 velocity=80 time=209.8441806840001
note_on channel=0 note=60 velocity=0 time=209.99204638300034
note_on channel=1 note=60 velocity=0 time=209.99303215500004
control_change channel=0 control=0 value=0 time=210.23204982900006
control_change channel=0 control=32 value=0 time=210.2330399450002
program_change channel=0 program=36 time=210.23400864700034
note_on channel=0 note=60 velocity=80 time=210.5130364530005
note_on channel=1 note=60 velocity=80 time=210.5140329800006
note_on channel=0 note=60 velocity=0 time=210.65607611900032
note_on channel=1 note=60 velocity=0 time=210.65702659999988
control_change channel=0 control=0 value=0 time=210.89206283500062
control_change channel=0 control=32 value=32 time=210.89302617700014
program_change channel=0 program=36 time=210.8939934959999
control_change channel=0 control=7 value=75 time=210.98505741600002
note_on channel=0 note=60 velocity=80 time=211.20302736300073
note_on channel=1 note=60 velocity=80 time=211.20402080500025
note_on channel=0 note=60 velocity=0 time=211.35501674700026
note_on channel=1 note=60 velocity=0 time=211.35600067399992
control_change channel=0 control=0 value=0 time=211.55201679699985
control_change channel=0 control=32 value=0 time=211.55300064200037
program_change channel=0 program=37 time=211.55309077200036
control_change channel=0 control=7 value=104 time=211.6450455210006
note_on channel=0 note=60 velocity=80 time=211.89001876900056
note_on channel=1 note=60 velocity=80 time=211.89099031000023
note_on channel=0 note=60 velocity=0 time=212.1030378360001
note_on channel=1 note=60 velocity=0 time=212.10399941600008
control_change channel=0 control=0 value=0 time=212.2220379650007
control_change channel=0 control=32 value=43 time=212.22214712700043
program_change channel=0 program=37 time=212.22296382900004
note_on channel=0 note=60 velocity=80 time=212.58198367600016
note_on channel=1 note=60 velocity=80 time=212.58297146099994
note_on channel=0 note=60 velocity=0 time=212.72598257200025
note_on channel=1 note=60 velocity=0 time=212.72697690099994
control_change channel=0 control=0 value=0 time=212.9419807330005
control_change channel=0 control=32 value=0 time=212.94208566700036
program_change channel=0 program=38 time=212.9429618160002
control_change channel=0 control=7 value=95 time=213.03400899000007
note_on channel=0 note=60 velocity=80 time=213.29997901800016
note_on channel=1 note=60 velocity=80 time=213.30008875400017
note_on channel=0 note=60 velocity=0 time=213.4329989200005
note_on channel=1 note=60 velocity=0 time=213.43394763300057
control_change channel=0 control=0 value=0 time=213.67197220700018
control_change channel=0 control=32 value=40 time=213.67294824200053
program_change channel=0 program=38 time=213.67303740900024
control_change channel=0 control=7 value=104 time=213.7639949459999
note_on channel=0 note=60 velocity=80 time=213.97894930000075
note_on channel=1 note=60 velocity=80 time=213.97994558100072
note_on channel=0 note=60 velocity=0 time=214.12494560200048
note_on channel=1 note=60 velocity=0 time=214.1259388190001
control_change channel=0 control=0 value=0 time=214.36194410999997
control_change channel=0 control=32 value=0 time=214.36205456800053
program_change channel=0 program=39 time=214.3629234300006
note_on channel=0 note=60 velocity=80 time=214.689946642
note_on channel=1 note=60 velocity=80 time=214.6909198530002
note_on channel=0 note=60 velocity=0 time=214.83597168699998
note_on channel=1 note=60 velocity=0 time=214.83692498100027
control_change channel=0 control=0 value=0 time=215.05094155799998
control_change channel=0 control=32 value=6 time=215.051923086
program_change channel=0 program=39 time=215.052887285
note_on channel=0 note=60 velocity=80 time=215.37591672899998
note_on channel=1 note=60 velocity=80 time=215.37689924200004
note_on channel=0 note=60 velocity=0 time=215.51990941700024
note_on channel=1 note=60 velocity=0 time=215.52090113300073
control_change channel=0 control=0 value=0 time=215.75190678200033
control_change channel=0 control=32 value=12 time=215.75201490400013
program_change channel=0 program=39 time=215.75290465200032
note_on channel=0 note=60 velocity=80 time=216.07190690900006
note_on channel=1 note=60 velocity=80 time=216.07291743600035
note_on channel=0 note=60 velocity=0 time=216.2349333050006
note_on channel=1 note=60 velocity=0 time=216.23589803100003
control_change channel=0 control=0 value=0 time=216.48092884500056
control_change channel=0 control=32 value=18 time=216.48188251200008
program_change channel=0 program=39 time=216.48285784100062
control_change channel=0 control=7 value=80 time=216.57392626799992
note_on channel=0 note=60 velocity=80 time=216.76488395400065
note_on channel=1 note=60 velocity=80 time=216.76587139100047
note_on channel=0 note=60 velocity=0 time=216.89291577200038
note_on channel=1 note=60 velocity=0 time=216.89386572000058
control_change channel=0 control=0 value=0 time=217.14087071599988
control_change channel=0 control=32 value=19 time=217.14186443000017
program_change channel=0 program=39 time=217.14283981500012
control_change channel=0 control=7 value=70 time=217.2339127360001
note_on channel=0 note=60 velocity=80 time=217.50485954300075
note_on channel=1 note=60 velocity=80 time=217.50585030599996
note_on channel=0 note=60 velocity=0 time=217.6238961650006
note_on channel=1 note=60 velocity=0 time=217.62587127000006
control_change channel=0 control=0 value=0 time=217.87085644499984
control_change channel=0 control=32 value=40 time=217.8718370100005
program_change channel=0 program=39 time=217.8728106060007
control_change channel=0 control=7 value=90 time=217.96490335
note_on channel=0 note=60 velocity=80 time=218.15384813800028
note_on channel=1 note=60 velocity=80 time=218.15483865900023
note_on channel=0 note=60 velocity=0 time=218.287883469
note_on channel=1 note=60 velocity=0 time=218.28883507200044
control_change channel=0 control=0 value=0 time=218.54083897000055
control_change channel=0 control=32 value=41 time=218.54182580199995
program_change channel=0 program=39 time=218.54279422800028
control_change channel=0 control=7 value=104 time=218.63387814100042
note_on channel=0 note=60 velocity=80 time=218.87984711100034
note_on channel=1 note=60 velocity=80 time=218.88081732499995
note_on channel=0 note=60 velocity=0 time=219.02985452700068
note_on channel=1 note=60 velocity=0 time=219.03081969400046
control_change channel=0 control=0 value=0 time=219.23183144300037
control_change channel=0 control=32 value=0 time=219.23194215700005
program_change channel=0 program=40 time=219.23279942299996
note_on channel=0 note=60 velocity=80 time=219.547809013
note_on channel=1 note=60 velocity=80 time=219.54881655700046
note_on channel=0 note=60 velocity=0 time=219.68084361100045
note_on channel=1 note=60 velocity=0 time=219.68179894900004
control_change channel=0 control=0 value=0 time=219.93180563600072
control_change channel=0 control=32 value=8 time=219.9319120050004
program_change channel=0 program=40 time=219.93277884300005
note_on channel=0 note=60 velocity=80 time=220.2778011320006
note_on channel=1 note=60 velocity=80 time=220.27878925000005
note_on channel=0 note=60 velocity=0 time=220.40482883599998
note_on channel=1 note=60 velocity=0 time=220.40494113300065
control_change channel=0 control=0 value=0 time=220.6407887129999
control_change channel=0 control=32 value=0 time=220.6417715130001
program_change channel=0 program=41 time=220.6418587070002
note_on channel=0 note=60 velocity=80 time=220.90577343800032
note_on channel=1 note=60 velocity=80 time=220.90676743400036
note_on channel=0 note=60 velocity=0 time=221.05079780600045
note_on channel=1 note=60 velocity=0 time=221.05176052800016
control_change channel=0 control=0 value=0 time=221.32076505400073
control_change channel=0 control=32 value=0 time=221.3216906560001
program_change channel=0 program=42 time=221.3217450709999
note_on channel=0 note=60 velocity=80 time=221.6317630980002
note_on channel=1 note=60 velocity=80 time=221.63274824400014
note_on channel=0 note=60 velocity=0 time=221.74775689200033
note_on channel=1 note=60 velocity=0 time=221.74874436400023
control_change channel=0 control=0 value=0 time=222.03075039500072
control_change channel=0 control=32 value=0 time=222.03085902400016
program_change channel=0 program=43 time=222.03175415700025
note_on channel=0 note=60 velocity=80 time=222.35174123400066
note_on channel=1 note=60 velocity=80 time=222.35273296500054
note_on channel=0 note=60 velocity=0 time=222.4757750380004
note_on channel=1 note=60 velocity=0 time=222.47775983700012
control_change channel=0 control=0 value=0 time=222.75073548
control_change channel=0 control=32 value=0 time=222.7517302440001
program_change channel=0 program=44 time=222.75181911900017
note_on channel=0 note=60 velocity=80 time=223.08472190700013
note_on channel=1 note=60 velocity=80 time=223.0857061710003
note_on channel=0 note=60 velocity=0 time=223.22775794600057
note_on channel=1 note=60 velocity=0 time=223.22871198300072
control_change channel=0 control=0 value=0 time=223.4607324540002
control_change channel=0 control=32 value=8 time=223.4617069420001
program_change channel=0 program=44 time=223.4617947350007
note_on channel=0 note=60 velocity=80 time=223.80171098400024
note_on channel=1 note=60 velocity=80 time=223.80269449000025
note_on channel=0 note=60 velocity=0 time=223.91369839900017
note_on channel=1 note=60 velocity=0 time=223.9146932040003
control_change channel=0 control=0 value=0 time=224.23070647900022
control_change channel=0 control=32 value=40 time=224.23081367800023
program_change channel=0 program=44 time=224.23167677499987
note_on channel=0 note=60 velocity=80 time=224.59068823899997
note_on channel=1 note=60 velocity=80 time=224.59079832299994
note_on channel=0 note=60 velocity=0 time=224.71767911900042
note_on channel=1 note=60 velocity=0 time=224.71867138200014
control_change channel=0 control=0 value=0 time=224.9706764850007
control_change channel=0 control=32 value=0 time=224.97166421400016
program_change channel=0 program=45 time=224.97175128000072
note_on channel=0 note=60 velocity=80 time=225.3036641180006
note_on channel=1 note=60 velocity=80 time=225.30466525200063
note_on channel=0 note=60 velocity=0 time=225.4356939240006
note_on channel=1 note=60 velocity=0 time=225.43664579300003
control_change channel=0 control=0 value=0 time=225.69067063700004
control_change channel=0 control=32 value=0 time=225.69165777700073
program_change channel=0 program=46 time=225.69174866000048
control_change channel=0 control=7 value=80 time=225.7837031980007
note_on channel=0 note=60 velocity=80 time=225.98564596300002
note_on channel=1 note=60 velocity=80 time=225.98663579200002
note_on channel=0 note=60 velocity=0 time=226.120651663
note_on channel=1 note=60 velocity=0 time=226.1216360819999
control_change channel=0 control=0 value=0 time=226.35964177700043
control_change channel=0 control=32 value=40 time=226.360647169
program_change channel=0 program=46 time=226.36160677600037
control_change channel=0 control=7 value=104 time=226.45268065500022
note_on channel=0 note=60 velocity=80 time=226.69867149000038
note_on channel=1 note=60 velocity=80 time=226.69878208200043
note_on channel=0 note=60 velocity=0 time=226.84467030999986
note_on channel=1 note=60 velocity=0 time=226.84562277900022
control_change channel=0 control=0 value=0 time=227.06963969800017
control_change channel=0 control=32 value=0 time=227.07062623300044
program_change channel=0 program=47 time=227.071590861
note_on channel=0 note=60 velocity=80 time=227.41261835100067
note_on channel=1 note=60 velocity=80 time=227.41360805800014
note_on channel=0 note=60 velocity=0 time=227.61661440199987
note_on channel=1 note=60 velocity=0 time=227.61863180100045
control_change channel=0 control=0 value=0 time=227.77960857800008
control_change channel=0 control=32 value=0 time=227.78059097700043
program_change channel=0 program=48 time=227.78156794999995
note_on channel=0 note=60 velocity=80 time=228.119603954
note_on channel=1 note=60 velocity=80 time=228.12058634300047
note_on channel=0 note=60 velocity=0 time=228.28263424000033
note_on channel=1 note=60 velocity=0 time=228.2836009600005
control_change channel=0 control=0 value=0 time=228.54958220800017
control_change channel=0 control=32 value=3 time=228.55059736100065
program_change channel=0 program=48 time=228.5515422819999
note_on channel=0 note=60 velocity=80 time=228.83159034000073
note_on channel=1 note=60 velocity=80 time=228.8325705470006
note_on channel=0 note=60 velocity=0 time=228.97557281199988
note_on channel=1 note=60 velocity=0 time=228.97655705700072
control_change channel=0 control=0 value=0 time=229.21957437400033
control_change channel=0 control=32 value=8 time=229.22054979400036
program_change channel=0 program=48 time=229.22152614200058
note_on channel=0 note=60 velocity=80 time=229.52355993499987
note_on channel=1 note=60 velocity=80 time=229.52454871400005
note_on channel=0 note=60 velocity=0 time=229.63959848300055
note_on channel=1 note=60 velocity=0 time=229.64054119499997
control_change channel=0 control=0 value=0 time=229.89956753000024
control_change channel=0 control=32 value=35 time=229.90053597099995
program_change channel=0 program=48 time=229.90150868599994
control_change channel=0 control=7 value=88 time=229.9925797900005
note_on channel=0 note=60 velocity=80 time=230.25457256500067
note_on channel=1 note=60 velocity=80 time=230.25553591300013
note_on channel=0 note=60 velocity=0 time=230.380573122
note_on channel=1 note=60 velocity=0 time=230.38153101199987
control_change channel=0 control=0 value=0 time=230.67953848800062
control_change channel=0 control=32 value=40 time=230.68051928300065
program_change channel=0 program=48 time=230.68061078200026
control_change channel=0 control=7 value=104 time=230.77256859099998
note_on channel=0 note=60 velocity=80 time=231.01752789800048
note_on channel=1 note=60 velocity=80 time=231.018534371
note_on channel=0 note=60 velocity=0 time=231.1515435930005
note_on channel=1 note=60 velocity=0 time=231.15251413500027
control_change channel=0 control=0 value=0 time=231.4095163689999
control_change channel=0 control=32 value=41 time=231.41052748000038
program_change channel=0 program=48 time=231.41061993200037
note_on channel=0 note=60 velocity=80 time=231.68851761400038
note_on channel=1 note=60 velocity=80 time=231.6894937370007
note_on channel=0 note=60 velocity=0 time=231.82054127599986
note_on channel=1 note=60 velocity=0 time=231.82149296600073
control_change channel=0 control=0 value=0 time=232.07950206900023
control_change channel=0 control=32 value=42 time=232.0804757830001
program_change channel=0 program=48 time=232.08056237300025
note_on channel=0 note=60 velocity=80 time=232.40250602800006
note_on channel=1 note=60 velocity=80 time=232.40347531499992
note_on channel=0 note=60 velocity=0 time=232.52748251600042
note_on channel=1 note=60 velocity=0 time=232.52847318100066
control_change channel=0 control=0 value=0 time=232.79948347700065
control_change channel=0 control=32 value=45 time=232.80047385500075
program_change channel=0 program=48 time=232.8014421530006
note_on channel=0 note=60 velocity=80 time=233.12446378700042
note_on channel=1 note=60 velocity=80 time=233.12546174900035
note_on channel=0 note=60 velocity=0 time=233.24550682400059
note_on channel=1 note=60 velocity=0 time=233.24645917999987
control_change channel=0 control=0 value=0 time=233.49948475200017
control_change channel=0 control=32 value=0 time=233.50045869099995
program_change channel=0 program=49 time=233.50142682500064
note_on channel=0 note=60 velocity=80 time=233.80745871
note_on channel=1 note=60 velocity=80 time=233.80844717200034
note_on channel=0 note=60 velocity=0 time=233.940450092
note_on channel=1 note=60 velocity=0 time=233.94143807199998
control_change channel=0 control=0 value=0 time=234.22946936800054
control_change channel=0 control=32 value=3 time=234.2295780530003
program_change channel=0 program=49 time=234.23043958700055
note_on channel=0 note=60 velocity=80 time=234.53843456100003
note_on channel=1 note=60 velocity=80 time=234.53942764400017
note_on channel=0 note=60 velocity=0 time=234.67547444400043
note_on channel=1 note=60 velocity=0 time=234.67642349000016
control_change channel=0 control=0 value=0 time=234.93943291800042
control_change channel=0 control=32 value=8 time=234.93954033699993
program_change channel=0 program=49 time=234.94039458499992
control_change channel=0 control=7 value=88 time=235.03145827200024
note_on channel=0 note=60 velocity=80 time=235.2284287930006
note_on channel=1 note=60 velocity=80 time=235.2294112540003
note_on channel=0 note=60 velocity=0 time=235.36742074300037
note_on channel=1 note=60 velocity=0 time=235.36840327100072
control_change channel=0 control=0 value=0 time=235.6294205510003
control_change channel=0 control=32 value=40 time=235.63040572299997
program_change channel=0 program=49 time=235.63051358300072
control_change channel=0 control=7 value=96 time=235.7214086670001
note_on channel=0 note=60 velocity=80 time=235.9554075599999
note_on channel=1 note=60 velocity=80 time=235.9564034620007
note_on channel=0 note=60 velocity=0 time=236.08143737000046
note_on channel=1 note=60 velocity=0 time=236.08239350300028
control_change channel=0 control=0 value=0 time=236.30939989800027
control_change channel=0 control=32 value=41 time=236.31038412199996
program_change channel=0 program=49 time=236.31047263300024
control_change channel=0 control=7 value=88 time=236.4014349930003
note_on channel=0 note=60 velocity=80 time=236.64239869799985
note_on channel=1 note=60 velocity=80 time=236.64338368500012
note_on channel=0 note=60 velocity=0 time=236.755386025
note_on channel=1 note=60 velocity=0 time=236.7563686399999
control_change channel=0 control=0 value=0 time=237.04942341800052
control_change channel=0 control=32 value=0 time=237.04953439900055
program_change channel=0 program=50 time=237.0503473910003
control_change channel=0 control=7 value=104 time=237.1424116799999
note_on channel=0 note=60 velocity=80 time=237.3643700749999
note_on channel=1 note=60 velocity=80 time=237.36536054000044
note_on channel=0 note=60 velocity=0 time=237.50636211300025
note_on channel=1 note=60 velocity=0 time=237.507354028
control_change channel=0 control=0 value=0 time=237.7383564340007
control_change channel=0 control=32 value=0 time=237.73935067000002
program_change channel=0 program=51 time=237.7403148430003
note_on channel=0 note=60 velocity=80 time=238.09536463400036
note_on channel=1 note=60 velocity=80 time=238.0963343000003
note_on channel=0 note=60 velocity=0 time=238.2313889980005
note_on channel=1 note=60 velocity=0 time=238.23233861800054
control_change channel=0 control=0 value=0 time=238.4583720240007
control_change channel=0 control=32 value=0 time=238.459336678
program_change channel=0 program=52 time=238.46037733000048
note_on channel=0 note=60 velocity=80 time=238.7833545170006
note_on channel=1 note=60 velocity=80 time=238.78431388800072
note_on channel=0 note=60 velocity=0 time=238.92132241000036
note_on channel=1 note=60 velocity=0 time=238.92231856299986
control_change channel=0 control=0 value=0 time=239.16831667299994
control_change channel=0 control=32 value=3 time=239.16930084500018
program_change channel=0 program=52 time=239.17027386300015
control_change channel=0 control=7 value=88 time=239.26135838200025
note_on channel=0 note=60 velocity=80 time=239.4713566800001
note_on channel=1 note=60 velocity=80 time=239.47230083700015
note_on channel=0 note=60 velocity=0 time=239.61035168700073
note_on channel=1 note=60 velocity=0 time=239.61130355600017
control_change channel=0 control=0 value=0 time=239.85831309100013
control_change channel=0 control=32 value=32 time=239.8592899660007
program_change channel=0 program=52 time=239.86026158999994
control_change channel=0 control=7 value=104 time=239.95134087299994
note_on channel=0 note=60 velocity=80 time=240.20533641800012
note_on channel=1 note=60 velocity=80 time=240.20628447499985
note_on channel=0 note=60 velocity=0 time=240.33228728300037
note_on channel=1 note=60 velocity=0 time=240.33327099000053
control_change channel=0 control=0 value=0 time=240.6192877399999
control_change channel=0 control=32 value=40 time=240.61939810100012
program_change channel=0 program=52 time=240.62026520500058
control_change channel=0 control=7 value=75 time=240.71127923600034
note_on channel=0 note=60 velocity=80 time=240.93327389500064
note_on channel=1 note=60 velocity=80 time=240.93425674100035
note_on channel=0 note=60 velocity=0 time=241.07130426999993
note_on channel=1 note=60 velocity=0 time=241.07225681100044
control_change channel=0 control=0 value=0 time=241.30926659299985
control_change channel=0 control=32 value=0 time=241.3093793320004
program_change channel=0 program=53 time=241.31025075600064
control_change channel=0 control=7 value=104 time=241.40130502300053
note_on channel=0 note=60 velocity=80 time=241.57425880000028
note_on channel=1 note=60 velocity=80 time=241.57525178700052
note_on channel=0 note=60 velocity=0 time=241.7172535180007
note_on channel=1 note=60 velocity=0 time=241.71823967399996
control_change channel=0 control=0 value=0 time=242.02928222399987
control_change channel=0 control=32 value=0 time=242.02939366100054
program_change channel=0 program=54 time=242.0302219640007
note_on channel=0 note=60 velocity=80 time=242.31923945000017
note_on channel=1 note=60 velocity=80 time=242.32022283900005
note_on channel=0 note=60 velocity=0 time=242.46427666199997
note_on channel=1 note=60 velocity=0 time=242.46523447000072
control_change channel=0 control=0 value=0 time=242.7282318360003
control_change channel=0 control=32 value=40 time=242.72921900600068
program_change channel=0 program=54 time=242.73019384800045
control_change channel=0 control=7 value=95 time=242.82127160500022
note_on channel=0 note=60 velocity=80 time=243.05722222400072
note_on channel=1 note=60 velocity=80 time=243.05820672000027
note_on channel=0 note=60 velocity=0 time=243.2052567870005
note_on channel=1 note=60 velocity=0 time=243.2062198070007
control_change channel=0 control=0 value=0 time=243.4582659610005
control_change channel=0 control=32 value=41 time=243.45924408700012
program_change channel=0 program=54 time=243.45934414800013
control_change channel=0 control=7 value=104 time=243.5512512840005
note_on channel=0 note=60 velocity=80 time=243.7502055390005
note_on channel=1 note=60 velocity=80 time=243.75118931700035
note_on channel=0 note=60 velocity=0 time=243.89924319300007
note_on channel=1 note=60 velocity=0 time=243.90019724000013
control_change channel=0 control=0 value=0 time=244.16823291000037
control_change channel=0 control=32 value=64 time=244.16918666000038
program_change channel=0 program=54 time=244.16927616500016
control_change channel=0 control=7 value=100 time=244.26123453000037
note_on channel=0 note=60 velocity=80 time=244.48522979000063
note_on channel=1 note=60 velocity=80 time=244.48617682700024
note_on channel=0 note=60 velocity=0 time=244.608219791
note_on channel=1 note=60 velocity=0 time=244.6091710870005
control_change channel=0 control=0 value=0 time=244.908172251
control_change channel=0 control=32 value=0 time=244.90916334200028
program_change channel=0 program=55 time=244.91013460700015
control_change channel=0 control=7 value=88 time=245.0012070720004
note_on channel=0 note=60 velocity=80 time=245.22918354400008
note_on channel=1 note=60 velocity=80 time=245.23015543300062
note_on channel=0 note=60 velocity=0 time=245.33416354700057
note_on channel=1 note=60 velocity=0 time=245.3342737490002
control_change channel=0 control=0 value=0 time=245.60816034900017
control_change channel=0 control=32 value=35 time=245.60914923100063
program_change channel=0 program=55 time=245.60923593799998
control_change channel=0 control=7 value=104 time=245.70015363099992
note_on channel=0 note=60 velocity=80 time=245.95716310199987
note_on channel=1 note=60 velocity=80 time=245.95814280100058
note_on channel=0 note=60 velocity=0 time=246.1001855200002
note_on channel=1 note=60 velocity=0 time=246.10113382300005
control_change channel=0 control=0 value=0 time=246.32813884200004
control_change channel=0 control=32 value=64 time=246.32914658700065
program_change channel=0 program=55 time=246.3292386180001
note_on channel=0 note=60 velocity=80 time=246.6521371660001
note_on channel=1 note=60 velocity=80 time=246.6531348819999
note_on channel=0 note=60 velocity=0 time=246.78916870800003
note_on channel=1 note=60 velocity=0 time=246.79010823299996
control_change channel=0 control=0 value=0 time=247.0581285340004
control_change channel=0 control=32 value=0 time=247.0582321920001
program_change channel=0 program=56 time=247.05911324499993
note_on channel=0 note=60 velocity=80 time=247.39211460800016
note_on channel=1 note=60 velocity=80 time=247.39309803200013
note_on channel=0 note=60 velocity=0 time=247.53310608300035
note_on channel=1 note=60 velocity=0 time=247.53410196999994
control_change channel=0 control=0 value=0 time=247.75810425600048
control_change channel=0 control=32 value=32 time=247.7590984770004
program_change channel=0 program=56 time=247.75918824900054
note_on channel=0 note=60 velocity=80 time=248.10908932700022
note_on channel=1 note=60 velocity=80 time=248.10919980000017
note_on channel=0 note=60 velocity=0 time=248.2411295060001
note_on channel=1 note=60 velocity=0 time=248.2420836450001
control_change channel=0 control=0 value=0 time=248.5080833560005
control_change channel=0 control=32 value=0 time=248.5090745790003
program_change channel=0 program=57 time=248.50916340300046
note_on channel=0 note=60 velocity=80 time=248.83809497499988
note_on channel=1 note=60 velocity=80 time=248.83906825900067
note_on channel=0 note=60 velocity=0 time=248.96507246300007
note_on channel=1 note=60 velocity=0 time=248.96606427500046
control_change channel=0 control=0 value=0 time=249.22807885200018
control_change channel=0 control=32 value=18 time=249.22906347000026
program_change channel=0 program=57 time=249.22916041100052
note_on channel=0 note=60 velocity=80 time=249.57506326300063
note_on channel=1 note=60 velocity=80 time=249.57604811700003
note_on channel=0 note=60 velocity=0 time=249.6970950750001
note_on channel=1 note=60 velocity=0 time=249.6980453920005
control_change channel=0 control=0 value=0 time=249.9680536900005
control_change channel=0 control=32 value=0 time=249.96815918300035
program_change channel=0 program=58 time=249.96904019000067
note_on channel=0 note=60 velocity=80 time=250.27307336600006
note_on channel=1 note=60 velocity=80 time=250.27401157400072
note_on channel=0 note=60 velocity=0 time=250.378079178
note_on channel=1 note=60 velocity=0 time=250.3790295510007
control_change channel=0 control=0 value=0 time=250.6770374200005
control_change channel=0 control=32 value=0 time=250.678018093
program_change channel=0 program=59 time=250.67899215500074
note_on channel=0 note=60 velocity=80 time=250.96703185300066
note_on channel=1 note=60 velocity=80 time=250.96801315599987
note_on channel=0 note=60 velocity=0 time=251.0970619260006
note_on channel=1 note=60 velocity=0 time=251.09800809700027
control_change channel=0 control=0 value=0 time=251.35701338200033
control_change channel=0 control=32 value=0 time=251.35800706999999
program_change channel=0 program=60 time=251.3589825220006
control_change channel=0 control=7 value=75 time=251.45005541000046
note_on channel=0 note=60 velocity=80 time=251.70300883300024
note_on channel=1 note=60 velocity=80 time=251.70311915799994
note_on channel=0 note=60 velocity=0 time=251.82704567700057
note_on channel=1 note=60 velocity=0 time=251.82800593000047
control_change channel=0 control=0 value=0 time=252.08700166500057
control_change channel=0 control=32 value=6 time=252.08798126700003
program_change channel=0 program=60 time=252.0889551650007
control_change channel=0 control=7 value=85 time=252.1800329480002
note_on channel=0 note=60 velocity=80 time=252.4459981680002
note_on channel=1 note=60 velocity=80 time=252.4469753050007
note_on channel=0 note=60 velocity=0 time=252.54799917000037
note_on channel=1 note=60 velocity=0 time=252.54897144900042
control_change channel=0 control=0 value=0 time=252.8269859840002
control_change channel=0 control=32 value=32 time=252.82797114500045
program_change channel=0 program=60 time=252.82806113300012
control_change channel=0 control=7 value=90 time=252.9199769300003
note_on channel=0 note=60 velocity=80 time=253.1779701430005
note_on channel=1 note=60 velocity=80 time=253.1780779720002
note_on channel=0 note=60 velocity=0 time=253.31996461200015
note_on channel=1 note=60 velocity=0 time=253.32095530800052
control_change channel=0 control=0 value=0 time=253.57796343600057
control_change channel=0 control=32 value=37 time=253.57807346400023
program_change channel=0 program=60 time=253.57896761900065
control_change channel=0 control=7 value=104 time=253.66999779300022
note_on channel=0 note=60 velocity=80 time=253.9369499200002
note_on channel=1 note=60 velocity=80 time=253.93794287000037
note_on channel=0 note=60 velocity=0 time=254.07998148600018
note_on channel=1 note=60 velocity=0 time=254.0800918620007
control_change channel=0 control=0 value=0 time=254.31693831200027
control_change channel=0 control=32 value=0 time=254.3179288700003
program_change channel=0 program=61 time=254.31890337300047
note_on channel=0 note=60 velocity=80 time=254.66693968800064
note_on channel=1 note=60 velocity=80 time=254.66792388200065
note_on channel=0 note=60 velocity=0 time=254.80596669400074
note_on channel=1 note=60 velocity=0 time=254.80691989000024
control_change channel=0 control=0 value=0 time=255.07692236900039
control_change channel=0 control=32 value=35 time=255.0779081820001
program_change channel=0 program=61 time=255.07799565799996
control_change channel=0 control=7 value=75 time=255.16995956700066
note_on channel=0 note=60 velocity=80 time=255.34591242100032
note_on channel=1 note=60 velocity=80 time=255.34690483800023
note_on channel=0 note=60 velocity=0 time=255.4849560700004
note_on channel=1 note=60 velocity=0 time=255.48506257200006
control_change channel=0 control=0 value=0 time=255.76690838100058
control_change channel=0 control=32 value=0 time=255.7679003940002
program_change channel=0 program=62 time=255.76798898200013
control_change channel=0 control=7 value=104 time=255.8599412650001
note_on channel=0 note=60 velocity=80 time=256.08693138499984
note_on channel=1 note=60 velocity=80 time=256.08788327
note_on channel=0 note=60 velocity=0 time=256.2239357030003
note_on channel=1 note=60 velocity=0 time=256.22488722400067
control_change channel=0 control=0 value=0 time=256.48692394299997
control_change channel=0 control=32 value=20 time=256.4878739880005
program_change channel=0 program=62 time=256.4879569650002
note_on channel=0 note=60 velocity=80 time=256.82190130900017
note_on channel=1 note=60 velocity=80 time=256.8228485670006
note_on channel=0 note=60 velocity=0 time=256.94887470699996
note_on channel=1 note=60 velocity=0 time=256.9498589570003
control_change channel=0 control=0 value=0 time=257.1568679510001
control_change channel=0 control=32 value=0 time=257.1569741560006
program_change channel=0 program=63 time=257.15786125500017
note_on channel=0 note=60 velocity=80 time=257.50586338300036
note_on channel=1 note=60 velocity=80 time=257.5059733950002
note_on channel=0 note=60 velocity=0 time=257.6388986560005
note_on channel=1 note=60 velocity=0 time=257.63986754800044
control_change channel=0 control=0 value=0 time=257.8768677300004
control_change channel=0 control=32 value=18 time=257.87717561000045
program_change channel=0 program=63 time=257.8778542030004
note_on channel=0 note=60 velocity=80 time=258.19988366600046
note_on channel=1 note=60 velocity=80 time=258.2009605210005
note_on channel=0 note=60 velocity=0 time=258.33183991700025
note_on channel=1 note=60 velocity=0 time=258.3328278660001
control_change channel=0 control=0 value=0 time=258.58683882600053
control_change channel=0 control=32 value=41 time=258.58782803099984
program_change channel=0 program=63 time=258.5879154710001
note_on channel=0 note=60 velocity=80 time=258.9078256339999
note_on channel=1 note=60 velocity=80 time=258.90881675000037
note_on channel=0 note=60 velocity=0 time=259.02686019000066
note_on channel=1 note=60 velocity=0 time=259.0271700630001
control_change channel=0 control=0 value=0 time=259.2668283160001
control_change channel=0 control=32 value=0 time=259.26781347700035
program_change channel=0 program=64 time=259.2679030899999
control_change channel=0 control=7 value=95 time=259.35885422499996
note_on channel=0 note=60 velocity=80 time=259.55081064300066
note_on channel=1 note=60 velocity=80 time=259.5518064020007
note_on channel=0 note=60 velocity=0 time=259.70180401000016
note_on channel=1 note=60 velocity=0 time=259.702798538
control_change channel=0 control=0 value=0 time=259.97680680100075
control_change channel=0 control=32 value=0 time=259.977796098
program_change channel=0 program=65 time=259.9778830109999
control_change channel=0 control=7 value=104 time=260.06883962400025
note_on channel=0 note=60 velocity=80 time=260.25783319400034
note_on channel=1 note=60 velocity=80 time=260.25876152300043
note_on channel=0 note=60 velocity=0 time=260.4148260890006
note_on channel=1 note=60 velocity=0 time=260.4157817760006
control_change channel=0 control=0 value=0 time=260.66678572900037
control_change channel=0 control=32 value=40 time=260.66777211000044
program_change channel=0 program=65 time=260.667862927
note_on channel=0 note=60 velocity=80 time=260.99277994300064
note_on channel=1 note=60 velocity=80 time=260.99376760500036
note_on channel=0 note=60 velocity=0 time=261.12879519299986
note_on channel=1 note=60 velocity=0 time=261.12976565900044
control_change channel=0 control=0 value=0 time=261.3557661450004
control_change channel=0 control=32 value=0 time=261.356745307
program_change channel=0 program=66 time=261.35772255100073
note_on channel=0 note=60 velocity=80 time=261.66976990200055
note_on channel=1 note=60 velocity=80 time=261.6707451940001
note_on channel=0 note=60 velocity=0 time=261.803789695
note_on channel=1 note=60 velocity=0 time=261.80474117500034
control_change channel=0 control=0 value=0 time=262.0567637080003
control_change channel=0 control=32 value=40 time=262.0568711320002
program_change channel=0 program=66 time=262.0577261180006
note_on channel=0 note=60 velocity=80 time=262.3757516660007
note_on channel=1 note=60 velocity=80 time=262.37673637700027
note_on channel=0 note=60 velocity=0 time=262.5087329850003
note_on channel=1 note=60 velocity=0 time=262.50972181
control_change channel=0 control=0 value=0 time=262.7357305530004
control_change channel=0 control=32 value=0 time=262.7367153820005
program_change channel=0 program=67 time=262.7376874970005
note_on channel=0 note=60 velocity=80 time=263.0937272000001
note_on channel=1 note=60 velocity=80 time=263.0947142320001
note_on channel=0 note=60 velocity=0 time=263.2287558810003
note_on channel=1 note=60 velocity=0 time=263.22970792900014
control_change channel=0 control=0 value=0 time=263.4457180770005
control_change channel=0 control=32 value=0 time=263.4466999390006
program_change channel=0 program=68 time=263.4476692970002
note_on channel=0 note=60 velocity=80 time=263.7937098709999
note_on channel=1 note=60 velocity=80 time=263.794692081
note_on channel=0 note=60 velocity=0 time=263.923700497
note_on channel=1 note=60 velocity=0 time=263.92468837400065
control_change channel=0 control=0 value=0 time=264.1857334860006
control_change channel=0 control=32 value=0 time=264.1866904590006
program_change channel=0 program=69 time=264.18765713799985
control_change channel=0 control=7 value=65 time=264.2797342520007
note_on channel=0 note=60 velocity=80 time=264.50068610500057
note_on channel=1 note=60 velocity=80 time=264.5016787120003
note_on channel=0 note=60 velocity=0 time=264.64972485700036
note_on channel=1 note=60 velocity=0 time=264.6506525499999
control_change channel=0 control=0 value=0 time=264.8757165040006
control_change channel=0 control=32 value=0 time=264.8766462470003
program_change channel=0 program=70 time=264.87765177800065
control_change channel=0 control=7 value=90 time=264.96871448599995
note_on channel=0 note=60 velocity=80 time=265.1936746430001
note_on channel=1 note=60 velocity=80 time=265.19378164200043
note_on channel=0 note=60 velocity=0 time=265.33866316200056
note_on channel=1 note=60 velocity=0 time=265.33965313000044
control_change channel=0 control=0 value=0 time=265.59566442100004
control_change channel=0 control=32 value=0 time=265.5966499410006
program_change channel=0 program=71 time=265.5976183110006
note_on channel=0 note=60 velocity=80 time=265.8866919460006
note_on channel=1 note=60 velocity=80 time=265.8876238769999
note_on channel=0 note=60 velocity=0 time=266.04667787200015
note_on channel=1 note=60 velocity=0 time=266.04764060900015
control_change channel=0 control=0 value=0 time=266.29568312599986
control_change channel=0 control=32 value=0 time=266.29663527200046
program_change channel=0 program=72 time=266.29760404100034
note_on channel=0 note=60 velocity=80 time=266.60964278200026
note_on channel=1 note=60 velocity=80 time=266.610626273
note_on channel=0 note=60 velocity=0 time=266.7516303960001
note_on channel=1 note=60 velocity=0 time=266.75262978699993
control_change channel=0 control=0 value=0 time=266.9556253970004
control_change channel=0 control=32 value=0 time=266.956614617
program_change channel=0 program=73 time=266.95758923799985
note_on channel=0 note=60 velocity=80 time=267.2886181210006
note_on channel=1 note=60 velocity=80 time=267.28961594500015
note_on channel=0 note=60 velocity=0 time=267.4276577970004
note_on channel=1 note=60 velocity=0 time=267.42860707900036
control_change channel=0 control=0 value=0 time=267.6856337930003
control_change channel=0 control=32 value=0 time=267.686619006
program_change channel=0 program=74 time=267.68670942800054
control_change channel=0 control=7 value=95 time=267.77864803100056
note_on channel=0 note=60 velocity=80 time=267.99460958000054
note_on channel=1 note=60 velocity=80 time=267.99558842900024
note_on channel=0 note=60 velocity=0 time=268.1466347000005
note_on channel=1 note=60 velocity=0 time=268.1475825990001
control_change channel=0 control=0 value=0 time=268.3655883850006
control_change channel=0 control=32 value=0 time=268.365697577
program_change channel=0 program=75 time=268.36664857600044
control_change channel=0 control=7 value=104 time=268.45863482799996
note_on channel=0 note=60 velocity=80 time=268.680618632
note_on channel=1 note=60 velocity=80 time=268.6815684110006
note_on channel=0 note=60 velocity=0 time=268.82062009499987
note_on channel=1 note=60 velocity=0 time=268.8215496590001
control_change channel=0 control=0 value=0 time=269.07558789500035
control_change channel=0 control=32 value=0 time=269.0765671120007
program_change channel=0 program=76 time=269.07753483600027
note_on channel=0 note=60 velocity=80 time=269.4095691720004
note_on channel=1 note=60 velocity=80 time=269.410570901
note_on channel=0 note=60 velocity=0 time=269.5535559660002
note_on channel=1 note=60 velocity=0 time=269.5545701310002
control_change channel=0 control=0 value=0 time=269.8155646590003
control_change channel=0 control=32 value=0 time=269.81654399499985
program_change channel=0 program=77 time=269.8166332640003
note_on channel=0 note=60 velocity=80 time=270.1025530400002
note_on channel=1 note=60 velocity=80 time=270.1035324680006
note_on channel=0 note=60 velocity=0 time=270.24659318400063
note_on channel=1 note=60 velocity=0 time=270.24754265499996
control_change channel=0 control=0 value=0 time=270.51553717000024
control_change channel=0 control=32 value=0 time=270.51564277000034
program_change channel=0 program=78 time=270.5165019370006
control_change channel=0 control=7 value=75 time=270.6075760020003
note_on channel=0 note=60 velocity=80 time=270.8165469730002
note_on channel=1 note=60 velocity=80 time=270.81752101000075
note_on channel=0 note=60 velocity=0 time=270.98253925600056
note_on channel=1 note=60 velocity=0 time=270.98351133100005
control_change channel=0 control=0 value=0 time=271.2455285120004
control_change channel=0 control=32 value=0 time=271.245636869
program_change channel=0 program=79 time=271.2465289290003
control_change channel=0 control=7 value=85 time=271.3375561130006
note_on channel=0 note=60 velocity=80 time=271.55853189000027
note_on channel=1 note=60 velocity=80 time=271.5595100370001
note_on channel=0 note=60 velocity=0 time=271.69852182500017
note_on channel=1 note=60 velocity=0 time=271.69950418400003
control_change channel=0 control=0 value=0 time=271.9355046290002
control_change channel=0 control=32 value=0 time=271.9356120020002
program_change channel=0 program=80 time=271.93650497399994
control_change channel=0 control=7 value=104 time=272.0275411780003
note_on channel=0 note=60 velocity=80 time=272.23152389700044
note_on channel=1 note=60 velocity=80 time=272.23249364500043
note_on channel=0 note=60 velocity=0 time=272.3774891080002
note_on channel=1 note=60 velocity=0 time=272.37852636200023
control_change channel=0 control=0 value=0 time=272.58449280400055
control_change channel=0 control=32 value=6 time=272.5854777459999
program_change channel=0 program=80 time=272.58644872400055
note_on channel=0 note=60 velocity=80 time=272.92648351500065
note_on channel=1 note=60 velocity=80 time=272.92746527500003
note_on channel=0 note=60 velocity=0 time=273.06251896899994
note_on channel=1 note=60 velocity=0 time=273.06346698500056
control_change channel=0 control=0 value=0 time=273.3244655819999
control_change channel=0 control=32 value=8 time=273.32545267000023
program_change channel=0 program=80 time=273.3264251650007
control_change channel=0 control=7 value=75 time=273.41851753800074
note_on channel=0 note=60 velocity=80 time=273.6545282010002
note_on channel=1 note=60 velocity=80 time=273.655446451
note_on channel=0 note=60 velocity=0 time=273.7944998970006
note_on channel=1 note=60 velocity=0 time=273.79544478700063
control_change channel=0 control=0 value=0 time=274.00445899400074
control_change channel=0 control=32 value=18 time=274.00544701000035
program_change channel=0 program=80 time=274.0064195820005
control_change channel=0 control=7 value=85 time=274.09744900700025
note_on channel=0 note=60 velocity=80 time=274.3114447910002
note_on channel=1 note=60 velocity=80 time=274.3124485590006
note_on channel=0 note=60 velocity=0 time=274.4404780200002
note_on channel=1 note=60 velocity=0 time=274.44058385100016
control_change channel=0 control=0 value=0 time=274.71443552300025
control_change channel=0 control=32 value=19 time=274.71544087000075
program_change channel=0 program=80 time=274.7163997540001
control_change channel=0 control=7 value=104 time=274.8074770200001
note_on channel=0 note=60 velocity=80 time=275.0404370900005
note_on channel=1 note=60 velocity=80 time=275.04142429700005
note_on channel=0 note=60 velocity=0 time=275.1804291850003
note_on channel=1 note=60 velocity=0 time=275.18244738000067
control_change channel=0 control=0 value=0 time=275.39441905200056
control_change channel=0 control=32 value=64 time=275.395418782
program_change channel=0 program=80 time=275.39637765600037
note_on channel=0 note=60 velocity=80 time=275.7274107200001
note_on channel=1 note=60 velocity=80 time=275.72841367900037
note_on channel=0 note=60 velocity=0 time=275.86144743800014
note_on channel=1 note=60 velocity=0 time=275.86239773500074
control_change channel=0 control=0 value=0 time=276.0844285480007
control_change channel=0 control=32 value=65 time=276.0854020370007
program_change channel=0 program=80 time=276.0854883860002
control_change channel=0 control=7 value=85 time=276.1774387310006
note_on channel=0 note=60 velocity=80 time=276.4354107320005
note_on channel=1 note=60 velocity=80 time=276.43551859200034
note_on channel=0 note=60 velocity=0 time=276.58539069000017
note_on channel=1 note=60 velocity=0 time=276.58638829900065
control_change channel=0 control=0 value=0 time=276.82440095400034
control_change channel=0 control=32 value=66 time=276.8253827340004
program_change channel=0 program=80 time=276.8254706450007
control_change channel=0 control=7 value=75 time=276.91738230900046
note_on channel=0 note=60 velocity=80 time=277.14137582700005
note_on channel=1 note=60 velocity=80 time=277.14236937199985
note_on channel=0 note=60 velocity=0 time=277.28441516900057
note_on channel=1 note=60 velocity=0 time=277.28536054600045
control_change channel=0 control=0 value=0 time=277.505367838
control_change channel=0 control=32 value=0 time=277.5056673400004
program_change channel=0 program=81 time=277.5063453640005
control_change channel=0 control=7 value=104 time=277.59740650000003
note_on channel=0 note=60 velocity=80 time=277.8263657110001
note_on channel=1 note=60 velocity=80 time=277.8273586100004
note_on channel=0 note=60 velocity=0 time=277.96835510100027
note_on channel=1 note=60 velocity=0 time=277.9693445060002
control_change channel=0 control=0 value=0 time=278.19438820400046
control_change channel=0 control=32 value=6 time=278.1953542780002
program_change channel=0 program=81 time=278.1954511980002
note_on channel=0 note=60 velocity=80 time=278.52234261600006
note_on channel=1 note=60 velocity=80 time=278.5233443490006
note_on channel=0 note=60 velocity=0 time=278.637380487
note_on channel=1 note=60 velocity=0 time=278.6383281140006
control_change channel=0 control=0 value=0 time=278.8743494800001
control_change channel=0 control=32 value=8 time=278.87532119000025
program_change channel=0 program=81 time=278.8762894370002
note_on channel=0 note=60 velocity=80 time=279.1823227880004
note_on channel=1 note=60 velocity=80 time=279.1833063869999
note_on channel=0 note=60 velocity=0 time=279.3123167970007
note_on channel=1 note=60 velocity=0 time=279.3133084460005
control_change channel=0 control=0 value=0 time=279.574315803
control_change channel=0 control=32 value=18 time=279.57530218900047
program_change channel=0 program=81 time=279.57541502500044
note_on channel=0 note=60 velocity=80 time=279.91030594699987
note_on channel=1 note=60 velocity=80 time=279.9112967460005
note_on channel=0 note=60 velocity=0 time=280.0263420330002
note_on channel=1 note=60 velocity=0 time=280.0272802670006
control_change channel=0 control=0 value=0 time=280.26433824300057
control_change channel=0 control=32 value=19 time=280.26528934900034
program_change channel=0 program=81 time=280.26538182700006
control_change channel=0 control=7 value=70 time=280.35733961500046
note_on channel=0 note=60 velocity=80 time=280.6132912230005
note_on channel=1 note=60 velocity=80 time=280.6142732440003
note_on channel=0 note=60 velocity=0 time=280.75528458700046
note_on channel=1 note=60 velocity=0 time=280.75626603399996
control_change channel=0 control=0 value=0 time=280.9842929430006
control_change channel=0 control=32 value=20 time=280.9844048570003
program_change channel=0 program=81 time=280.98527670600015
control_change channel=0 control=7 value=85 time=281.07731584700014
note_on channel=0 note=60 velocity=80 time=281.33726910400037
note_on channel=1 note=60 velocity=80 time=281.3382504320007
note_on channel=0 note=60 velocity=0 time=281.49330463800015
note_on channel=1 note=60 velocity=0 time=281.4942578710006
control_change channel=0 control=0 value=0 time=281.7042558440007
control_change channel=0 control=32 value=96 time=281.70436168000015
program_change channel=0 program=81 time=281.70525180300046
control_change channel=0 control=7 value=127 time=281.79629992599985
note_on channel=0 note=60 velocity=80 time=282.02425913500065
note_on channel=1 note=60 velocity=80 time=282.0252328030001
note_on channel=0 note=60 velocity=0 time=282.18428057000074
note_on channel=1 note=60 velocity=0 time=282.1852327310007
control_change channel=0 control=0 value=0 time=282.4142524230001
control_change channel=0 control=32 value=0 time=282.4143646850007
program_change channel=0 program=82 time=282.41522859199995
note_on channel=0 note=60 velocity=80 time=282.72823151300054
note_on channel=1 note=60 velocity=80 time=282.7292369200004
note_on channel=0 note=60 velocity=0 time=282.86726622100014
note_on channel=1 note=60 velocity=0 time=282.8682148000007
control_change channel=0 control=0 value=0 time=283.0742610850002
control_change channel=0 control=32 value=65 time=283.07437500800006
program_change channel=0 program=82 time=283.0751916429999
control_change channel=0 control=7 value=70 time=283.1662604940002
note_on channel=0 note=60 velocity=80 time=283.3912173110002
note_on channel=1 note=60 velocity=80 time=283.39219619600044
note_on channel=0 note=60 velocity=0 time=283.52021418000004
note_on channel=1 note=60 velocity=0 time=283.5212003000006
control_change channel=0 control=0 value=0 time=283.7442109140002
control_change channel=0 control=32 value=0 time=283.74431986499985
program_change channel=0 program=83 time=283.7451997190001
control_change channel=0 control=7 value=104 time=283.83624577200044
note_on channel=0 note=60 velocity=80 time=284.1151905280003
note_on channel=1 note=60 velocity=80 time=284.11617982000007
note_on channel=0 note=60 velocity=0 time=284.2562372470002
note_on channel=1 note=60 velocity=0 time=284.2572281270004
control_change channel=0 control=0 value=0 time=284.4642301829999
control_change channel=0 control=32 value=0 time=284.4643416859999
program_change channel=0 program=84 time=284.46518555200055
note_on channel=0 note=60 velocity=80 time=284.77118429800066
note_on channel=1 note=60 velocity=80 time=284.77217073000065
note_on channel=0 note=60 velocity=0 time=284.91817836500013
note_on channel=1 note=60 velocity=0 time=284.92019897299997
control_change channel=0 control=0 value=0 time=285.1641737959999
control_change channel=0 control=32 value=64 time=285.16428361900034
program_change channel=0 program=84 time=285.16515558599986
note_on channel=0 note=60 velocity=80 time=285.4691731090006
note_on channel=1 note=60 velocity=80 time=285.46928349100017
note_on channel=0 note=60 velocity=0 time=285.60620289100007
note_on channel=1 note=60 velocity=0 time=285.6071506920007
control_change channel=0 control=0 value=0 time=285.8441644230006
control_change channel=0 control=32 value=0 time=285.84427287200015
program_change channel=0 program=85 time=285.84513961300036
control_change channel=0 control=7 value=90 time=285.9371933709999
note_on channel=0 note=60 velocity=80 time=286.144145108
note_on channel=1 note=60 velocity=80 time=286.1451323450001
note_on channel=0 note=60 velocity=0 time=286.2991423000003
note_on channel=1 note=60 velocity=0 time=286.30013253000016
control_change channel=0 control=0 value=0 time=286.5431399630006
control_change channel=0 control=32 value=0 time=286.54412560200035
program_change channel=0 program=86 time=286.5450984090003
control_change channel=0 control=7 value=104 time=286.63717715300027
note_on channel=0 note=60 velocity=80 time=286.86514369500037
note_on channel=1 note=60 velocity=80 time=286.8661180500003
note_on channel=0 note=60 velocity=0 time=286.99315644500075
note_on channel=1 note=60 velocity=0 time=286.994119127
control_change channel=0 control=0 value=0 time=287.2331314430003
control_change channel=0 control=32 value=35 time=287.23411539600056
program_change channel=0 program=86 time=287.23420355300004
note_on channel=0 note=60 velocity=80 time=287.5601146980007
note_on channel=1 note=60 velocity=80 time=287.5611185730004
note_on channel=0 note=60 velocity=0 time=287.70410808999986
note_on channel=1 note=60 velocity=0 time=287.7051036900002
control_change channel=0 control=0 value=0 time=287.903111955
control_change channel=0 control=32 value=0 time=287.9041002270005
program_change channel=0 program=87 time=287.9041994680001
control_change channel=0 control=7 value=70 time=287.9961439630006
note_on channel=0 note=60 velocity=80 time=288.22113608700056
note_on channel=1 note=60 velocity=80 time=288.2220857130005
note_on channel=0 note=60 velocity=0 time=288.3740946050002
note_on channel=1 note=60 velocity=0 time=288.3750872170003
control_change channel=0 control=0 value=0 time=288.6230969369999
control_change channel=0 control=32 value=16 time=288.6240787220004
program_change channel=0 program=87 time=288.6241650810007
control_change channel=0 control=7 value=74 time=288.7160870400003
note_on channel=0 note=60 velocity=80 time=288.9420808929999
note_on channel=1 note=60 velocity=80 time=288.94308399000056
note_on channel=0 note=60 velocity=0 time=289.07311309099987
note_on channel=1 note=60 velocity=0 time=289.0740565770002
control_change channel=0 control=0 value=0 time=289.293109317
control_change channel=0 control=32 value=64 time=289.2940653530004
program_change channel=0 program=87 time=289.29415450500073
control_change channel=0 control=7 value=104 time=289.3861093860005
note_on channel=0 note=60 velocity=80 time=289.6100708820004
note_on channel=1 note=60 velocity=80 time=289.6110447860001
note_on channel=0 note=60 velocity=0 time=289.75606264
note_on channel=1 note=60 velocity=0 time=289.75704614700044
control_change channel=0 control=0 value=0 time=289.98306214900003
control_change channel=0 control=32 value=65 time=289.98405277300026
program_change channel=0 program=87 time=289.98414068500006
control_change channel=0 control=7 value=70 time=290.07609138099997
note_on channel=0 note=60 velocity=80 time=290.3420463100001
note_on channel=1 note=60 velocity=80 time=290.3430284440001
note_on channel=0 note=60 velocity=0 time=290.4490824180002
note_on channel=1 note=60 velocity=0 time=290.45003600900054
control_change channel=0 control=0 value=0 time=290.6930745469999
control_change channel=0 control=32 value=0 time=290.6940375210006
program_change channel=0 program=88 time=290.69413052100026
control_change channel=0 control=7 value=104 time=290.78707753900017
note_on channel=0 note=60 velocity=80 time=291.03404154800046
note_on channel=1 note=60 velocity=80 time=291.03501328400034
note_on channel=0 note=60 velocity=0 time=291.1570509760004
note_on channel=1 note=60 velocity=0 time=291.1580107010004
control_change channel=0 control=0 value=0 time=291.43302656500055
control_change channel=0 control=32 value=64 time=291.4331360080005
program_change channel=0 program=88 time=291.43400290800037
control_change channel=0 control=7 value=90 time=291.5260153770005
note_on channel=0 note=60 velocity=80 time=291.723010961
note_on channel=1 note=60 velocity=80 time=291.7239948310007
note_on channel=0 note=60 velocity=0 time=291.85904492700047
note_on channel=1 note=60 velocity=0 time=291.8599965100002
control_change channel=0 control=0 value=0 time=292.0830325699999
control_change channel=0 control=32 value=0 time=292.08314200400036
program_change channel=0 program=89 time=292.08399104
control_change channel=0 control=7 value=104 time=292.17604093800037
note_on channel=0 note=60 velocity=80 time=292.43200168300064
note_on channel=1 note=60 velocity=80 time=292.43297503400026
note_on channel=0 note=60 velocity=0 time=292.56003546600004
note_on channel=1 note=60 velocity=0 time=292.5609808070003
control_change channel=0 control=0 value=0 time=292.8229904079999
control_change channel=0 control=32 value=0 time=292.8239725780004
program_change channel=0 program=90 time=292.8240574250003
note_on channel=0 note=60 velocity=80 time=293.16697370900056
note_on channel=1 note=60 velocity=80 time=293.16796129500017
note_on channel=0 note=60 velocity=0 time=293.3106224590001
note_on channel=1 note=60 velocity=0 time=293.31095106700013
control_change channel=0 control=0 value=0 time=293.54296635599985
control_change channel=0 control=32 value=0 time=293.5439630010005
program_change channel=0 program=91 time=293.54404963700017
control_change channel=0 control=7 value=75 time=293.63600729300015
note_on channel=0 note=60 velocity=80 time=293.8649655190002
note_on channel=1 note=60 velocity=80 time=293.86595883800055
note_on channel=0 note=60 velocity=0 time=293.99499827599993
note_on channel=1 note=60 velocity=0 time=293.9959378020003
control_change channel=0 control=0 value=0 time=294.212990041
control_change channel=0 control=32 value=66 time=294.21395015100006
program_change channel=0 program=91 time=294.21403803700014
control_change channel=0 control=7 value=104 time=294.30494814400026
note_on channel=0 note=60 velocity=80 time=294.5749388940003
note_on channel=1 note=60 velocity=80 time=294.57593792700027
note_on channel=0 note=60 velocity=0 time=294.7039377330002
note_on channel=1 note=60 velocity=0 time=294.70492465200005
control_change channel=0 control=0 value=0 time=294.9529362310004
control_change channel=0 control=32 value=0 time=294.9530445420005
program_change channel=0 program=92 time=294.95389420300035
note_on channel=0 note=60 velocity=80 time=295.30492053800026
note_on channel=1 note=60 velocity=80 time=295.3059135450003
note_on channel=0 note=60 velocity=0 time=295.4249618970007
note_on channel=1 note=60 velocity=0 time=295.42590969899993
control_change channel=0 control=0 value=0 time=295.6729398820007
control_change channel=0 control=32 value=0 time=295.67304921699997
program_change channel=0 program=93 time=295.6738875130004
note_on channel=0 note=60 velocity=80 time=296.0239198070003
note_on channel=1 note=60 velocity=80 time=296.0259183400003
note_on channel=0 note=60 velocity=0 time=296.15790499000013
note_on channel=1 note=60 velocity=0 time=296.1588918990001
control_change channel=0 control=0 value=0 time=296.38290645899997
control_change channel=0 control=32 value=0 time=296.38301427400074
program_change channel=0 program=94 time=296.38386342300055
control_change channel=0 control=7 value=80 time=296.47493783900063
note_on channel=0 note=60 velocity=80 time=296.7608879750005
note_on channel=1 note=60 velocity=80 time=296.76187022700014
note_on channel=0 note=60 velocity=0 time=296.89688097199996
note_on channel=1 note=60 velocity=0 time=296.89787025900023
control_change channel=0 control=0 value=0 time=297.1518738570003
control_change channel=0 control=32 value=0 time=297.1528654600006
program_change channel=0 program=95 time=297.153836341
control_change channel=0 control=7 value=104 time=297.24492194899995
note_on channel=0 note=60 velocity=80 time=297.4829081170001
note_on channel=1 note=60 velocity=80 time=297.48386073500023
note_on channel=0 note=60 velocity=0 time=297.6329025929999
note_on channel=1 note=60 velocity=0 time=297.63385218200074
control_change channel=0 control=0 value=0 time=297.83286890399995
control_change channel=0 control=32 value=0 time=297.8329777839999
program_change channel=0 program=96 time=297.83385604400064
note_on channel=0 note=60 velocity=80 time=298.18488754900045
note_on channel=1 note=60 velocity=80 time=298.185855447
note_on channel=0 note=60 velocity=0 time=298.29784670000026
note_on channel=1 note=60 velocity=0 time=298.2998636380007
control_change channel=0 control=0 value=0 time=298.55184764500063
control_change channel=0 control=32 value=65 time=298.55284037
program_change channel=0 program=96 time=298.5538146429999
control_change channel=0 control=7 value=80 time=298.6458819090003
note_on channel=0 note=60 velocity=80 time=298.88286589900054
note_on channel=1 note=60 velocity=80 time=298.884849561
note_on channel=0 note=60 velocity=0 time=299.0068778300001
note_on channel=1 note=60 velocity=0 time=299.0078182269999
control_change channel=0 control=0 value=0 time=299.24183826100034
control_change channel=0 control=32 value=66 time=299.24280851599997
program_change channel=0 program=96 time=299.24289545900047
control_change channel=0 control=7 value=104 time=299.33484101400063
note_on channel=0 note=60 velocity=80 time=299.54588765300014
note_on channel=1 note=60 velocity=80 time=299.54683366100016
note_on channel=0 note=60 velocity=0 time=299.70081262500025
note_on channel=1 note=60 velocity=0 time=299.70180333700046
control_change channel=0 control=0 value=0 time=299.9528112430007
control_change channel=0 control=32 value=0 time=299.95291986100074
program_change channel=0 program=97 time=299.9538031330003
note_on channel=0 note=60 velocity=80 time=300.28683939000075
note_on channel=1 note=60 velocity=80 time=300.2877926580004
note_on channel=0 note=60 velocity=0 time=300.45683707100034
note_on channel=1 note=60 velocity=0 time=300.45778065000013
control_change channel=0 control=0 value=0 time=300.65182904300036
control_change channel=0 control=32 value=27 time=300.6527781909999
program_change channel=0 program=97 time=300.6537506710001
note_on channel=0 note=60 velocity=80 time=301.0017822529999
note_on channel=1 note=60 velocity=80 time=301.0018891910004
note_on channel=0 note=60 velocity=0 time=301.15177314500033
note_on channel=1 note=60 velocity=0 time=301.15275559100064
control_change channel=0 control=0 value=0 time=301.40177443500033
control_change channel=0 control=32 value=0 time=301.4027575220007
program_change channel=0 program=98 time=301.40284542800055
note_on channel=0 note=60 velocity=80 time=301.7717602930006
note_on channel=1 note=60 velocity=80 time=301.7727447320003
note_on channel=0 note=60 velocity=0 time=301.9147573270002
note_on channel=1 note=60 velocity=0 time=301.9157461069999
control_change channel=0 control=0 value=0 time=302.16174926200074
control_change channel=0 control=32 value=12 time=302.1627494840004
program_change channel=0 program=98 time=302.16283808700064
note_on channel=0 note=60 velocity=80 time=302.4907540410004
note_on channel=1 note=60 velocity=80 time=302.4917709380006
note_on channel=0 note=60 velocity=0 time=302.6567835700007
note_on channel=1 note=60 velocity=0 time=302.6577284499999
control_change channel=0 control=0 value=0 time=302.8817680760003
control_change channel=0 control=32 value=14 time=302.882721252
program_change channel=0 program=98 time=302.88369575100023
control_change channel=0 control=7 value=80 time=302.9747737830003
note_on channel=0 note=60 velocity=80 time=303.21173292599997
note_on channel=1 note=60 velocity=80 time=303.2127116270003
note_on channel=0 note=60 velocity=0 time=303.3427245800003
note_on channel=1 note=60 velocity=0 time=303.34370966500046
control_change channel=0 control=0 value=0 time=303.57172790999994
control_change channel=0 control=32 value=18 time=303.57271931300056
program_change channel=0 program=98 time=303.5728073730006
control_change channel=0 control=7 value=85 time=303.66476338900065
note_on channel=0 note=60 velocity=80 time=303.91370763800023
note_on channel=1 note=60 velocity=80 time=303.91469381000024
note_on channel=0 note=60 velocity=0 time=304.05174531100056
note_on channel=1 note=60 velocity=0 time=304.05185429300036
control_change channel=0 control=0 value=0 time=304.2917399150001
control_change channel=0 control=32 value=35 time=304.2926918410003
program_change channel=0 program=98 time=304.2927789590003
control_change channel=0 control=7 value=90 time=304.38473903400063
note_on channel=0 note=60 velocity=80 time=304.63870230200064
note_on channel=1 note=60 velocity=80 time=304.63967502800006
note_on channel=0 note=60 velocity=0 time=304.76269063900054
note_on channel=1 note=60 velocity=0 time=304.76367680100066
control_change channel=0 control=0 value=0 time=305.00169125400043
control_change channel=0 control=32 value=40 time=305.00267215700023
program_change channel=0 program=98 time=305.0027604380002
control_change channel=0 control=7 value=127 time=305.09467644400047
note_on channel=0 note=60 velocity=80 time=305.3216779180002
note_on channel=1 note=60 velocity=80 time=305.3226783200007
note_on channel=0 note=60 velocity=0 time=305.46071386099993
note_on channel=1 note=60 velocity=0 time=305.46165669699985
control_change channel=0 control=0 value=0 time=305.71166464900034
control_change channel=0 control=32 value=41 time=305.7125910100003
program_change channel=0 program=98 time=305.71264621299997
note_on channel=0 note=60 velocity=80 time=306.0456683330003
note_on channel=1 note=60 velocity=80 time=306.04664551099995
note_on channel=0 note=60 velocity=0 time=306.1956922090003
note_on channel=1 note=60 velocity=0 time=306.19665240999984
control_change channel=0 control=0 value=0 time=306.3816602900006
control_change channel=0 control=32 value=42 time=306.3817641380001
program_change channel=0 program=98 time=306.38262913200015
control_change channel=0 control=7 value=104 time=306.4746825560005
note_on channel=0 note=60 velocity=80 time=306.769646103
note_on channel=1 note=60 velocity=80 time=306.7706230920003
note_on channel=0 note=60 velocity=0 time=306.91663437600073
note_on channel=1 note=60 velocity=0 time=306.91762457500045
control_change channel=0 control=0 value=0 time=307.1816380320006
control_change channel=0 control=32 value=65 time=307.1817440270006
program_change channel=0 program=98 time=307.18261934100065
note_on channel=0 note=60 velocity=80 time=307.499636863
note_on channel=1 note=60 velocity=80 time=307.50061611100045
note_on channel=0 note=60 velocity=0 time=307.625659024
note_on channel=1 note=60 velocity=0 time=307.62661195000055
control_change channel=0 control=0 value=0 time=307.85162420899997
control_change channel=0 control=32 value=70 time=307.8517330170007
program_change channel=0 program=98 time=307.8526064610005
note_on channel=0 note=60 velocity=80 time=308.16160014600064
note_on channel=1 note=60 velocity=80 time=308.1626035449999
note_on channel=0 note=60 velocity=0 time=308.2946024030007
note_on channel=1 note=60 velocity=0 time=308.2955866279999
control_change channel=0 control=0 value=0 time=308.56161314700057
control_change channel=0 control=32 value=71 time=308.5625972630005
program_change channel=0 program=98 time=308.5626871069999
note_on channel=0 note=60 velocity=80 time=308.8516016170006
note_on channel=1 note=60 velocity=80 time=308.85257501900014
note_on channel=0 note=60 velocity=0 time=308.99161786200057
note_on channel=1 note=60 velocity=0 time=308.9917265470003
control_change channel=0 control=0 value=0 time=309.23059810700033
control_change channel=0 control=32 value=72 time=309.23155937000047
program_change channel=0 program=98 time=309.232538409
control_change channel=0 control=7 value=100 time=309.32457711700044
note_on channel=0 note=60 velocity=80 time=309.56959064000057
note_on channel=1 note=60 velocity=80 time=309.57058138200046
note_on channel=0 note=60 velocity=0 time=309.67862603899994
note_on channel=1 note=60 velocity=0 time=309.6795622640002
control_change channel=0 control=0 value=0 time=309.920565722
control_change channel=0 control=32 value=0 time=309.92155339000055
program_change channel=0 program=99 time=309.9225437470004
control_change channel=0 control=7 value=90 time=310.01360066100005
note_on channel=0 note=60 velocity=80 time=310.2475914080005
note_on channel=1 note=60 velocity=80 time=310.2485538280007
note_on channel=0 note=60 velocity=0 time=310.3835859710007
note_on channel=1 note=60 velocity=0 time=310.38453649800067
control_change channel=0 control=0 value=0 time=310.6115731660002
control_change channel=0 control=32 value=18 time=310.6116790690003
program_change channel=0 program=99 time=310.61254102300063
note_on channel=0 note=60 velocity=80 time=310.9125368170007
note_on channel=1 note=60 velocity=80 time=310.91353058300047
note_on channel=0 note=60 velocity=0 time=311.03458551899985
note_on channel=1 note=60 velocity=0 time=311.03552630500053
control_change channel=0 control=0 value=0 time=311.2905496250005
control_change channel=0 control=32 value=19 time=311.291510821
program_change channel=0 program=99 time=311.29159932200037
control_change channel=0 control=7 value=104 time=311.38357275399994
note_on channel=0 note=60 velocity=80 time=311.5995413159999
note_on channel=1 note=60 velocity=80 time=311.60050661600053
note_on channel=0 note=60 velocity=0 time=311.73853001299995
note_on channel=1 note=60 velocity=0 time=311.73950905699985
control_change channel=0 control=0 value=0 time=311.97056094800064
control_change channel=0 control=32 value=40 time=311.971494591
program_change channel=0 program=99 time=311.9724764319999
note_on channel=0 note=60 velocity=80 time=312.30251346300065
note_on channel=1 note=60 velocity=80 time=312.30347960900053
note_on channel=0 note=60 velocity=0 time=312.42753799300044
note_on channel=1 note=60 velocity=0 time=312.4284866400003
control_change channel=0 control=0 value=0 time=312.660515818
control_change channel=0 control=32 value=64 time=312.6614818200005
program_change channel=0 program=99 time=312.6615689370001
note_on channel=0 note=60 velocity=80 time=312.9745025560005
note_on channel=1 note=60 velocity=80 time=312.975472268
note_on channel=0 note=60 velocity=0 time=313.09152153300056
note_on channel=1 note=60 velocity=0 time=313.09246769499987
control_change channel=0 control=0 value=0 time=313.3504889370006
control_change channel=0 control=32 value=65 time=313.351471553
program_change channel=0 program=99 time=313.3524471990004
control_change channel=0 control=7 value=90 time=313.443519077
note_on channel=0 note=60 velocity=80 time=313.6745187330007
note_on channel=1 note=60 velocity=80 time=313.6754540360007
note_on channel=0 note=60 velocity=0 time=313.8135065910001
note_on channel=1 note=60 velocity=0 time=313.8144490430004
control_change channel=0 control=0 value=0 time=314.02347718000055
control_change channel=0 control=32 value=66 time=314.0235844100007
program_change channel=0 program=99 time=314.0244466670001
control_change channel=0 control=7 value=85 time=314.11445801100035
note_on channel=0 note=60 velocity=80 time=314.334453036
note_on channel=1 note=60 velocity=80 time=314.3354378080003
note_on channel=0 note=60 velocity=0 time=314.4534890550003
note_on channel=1 note=60 velocity=0 time=314.4544447020007
control_change channel=0 control=0 value=0 time=314.69348500900014
control_change channel=0 control=32 value=0 time=314.693589339
program_change channel=0 program=100 time=314.69442269000047
control_change channel=0 control=7 value=104 time=314.78448460100026
note_on channel=0 note=60 velocity=80 time=315.0254511330004
note_on channel=1 note=60 velocity=80 time=315.0264262770006
note_on channel=0 note=60 velocity=0 time=315.1704364060006
note_on channel=1 note=60 velocity=0 time=315.17141992800043
control_change channel=0 control=0 value=0 time=315.4034393060001
control_change channel=0 control=32 value=0 time=315.40354736600057
program_change channel=0 program=101 time=315.4044009580002
control_change channel=0 control=7 value=90 time=315.493426213
note_on channel=0 note=60 velocity=80 time=315.70441971499986
note_on channel=1 note=60 velocity=80 time=315.70541399800004
note_on channel=0 note=60 velocity=0 time=315.85545835300036
note_on channel=1 note=60 velocity=0 time=315.85640506800064
control_change channel=0 control=0 value=0 time=316.09244698600014
control_change channel=0 control=32 value=64 time=316.09334185900025
program_change channel=0 program=101 time=316.0943905410004
control_change channel=0 control=7 value=95 time=316.1834510150002
note_on channel=0 note=60 velocity=80 time=316.3984180240004
note_on channel=1 note=60 velocity=80 time=316.3993865680004
note_on channel=0 note=60 velocity=0 time=316.5354229280001
note_on channel=1 note=60 velocity=0 time=316.5363877770005
control_change channel=0 control=0 value=0 time=316.7623989370004
control_change channel=0 control=32 value=65 time=316.7633894740002
program_change channel=0 program=101 time=316.763477898
control_change channel=0 control=7 value=90 time=316.85343231800016
note_on channel=0 note=60 velocity=80 time=317.0764182610001
note_on channel=1 note=60 velocity=80 time=317.07738086600057
note_on channel=0 note=60 velocity=0 time=317.21442626800035
note_on channel=1 note=60 velocity=0 time=317.21537355200053
control_change channel=0 control=0 value=0 time=317.4523900869999
control_change channel=0 control=32 value=67 time=317.4533706170005
program_change channel=0 program=101 time=317.45345641699987
control_change channel=0 control=7 value=104 time=317.5424223760001
note_on channel=0 note=60 velocity=80 time=317.7683733210006
note_on channel=1 note=60 velocity=80 time=317.7693629969999
note_on channel=0 note=60 velocity=0 time=317.90336922500046
note_on channel=1 note=60 velocity=0 time=317.9043589940002
control_change channel=0 control=0 value=0 time=318.12236046
control_change channel=0 control=32 value=68 time=318.12335425699985
program_change channel=0 program=101 time=318.12344025699986
note_on channel=0 note=60 velocity=80 time=318.42137188200013
note_on channel=1 note=60 velocity=80 time=318.4223428080004
note_on channel=0 note=60 velocity=0 time=318.5723669750005
note_on channel=1 note=60 velocity=0 time=318.5733424830005
control_change channel=0 control=0 value=0 time=318.8323589390002
control_change channel=0 control=32 value=70 time=318.8333330590003
program_change channel=0 program=101 time=318.8343067579999
note_on channel=0 note=60 velocity=80 time=319.1523404720001
note_on channel=1 note=60 velocity=80 time=319.1533187360001
note_on channel=0 note=60 velocity=0 time=319.27437979000024
note_on channel=1 note=60 velocity=0 time=319.2753185770007
control_change channel=0 control=0 value=0 time=319.5333458800005
control_change channel=0 control=32 value=71 time=319.53345275599986
program_change channel=0 program=101 time=319.5342993390004
note_on channel=0 note=60 velocity=80 time=319.87132693500007
note_on channel=1 note=60 velocity=80 time=319.87230221700065
note_on channel=0 note=60 velocity=0 time=320.00335880200055
note_on channel=1 note=60 velocity=0 time=320.0043078380004
control_change channel=0 control=0 value=0 time=320.21234935400025
control_change channel=0 control=32 value=96 time=320.2132973030002
program_change channel=0 program=101 time=320.2133917380006
control_change channel=0 control=7 value=85 time=320.30230898100035
note_on channel=0 note=60 velocity=80 time=320.5683180730002
note_on channel=1 note=60 velocity=80 time=320.5692844089999
note_on channel=0 note=60 velocity=0 time=320.70030068600045
note_on channel=1 note=60 velocity=0 time=320.70127801299986
control_change channel=0 control=0 value=0 time=320.9422940990007
control_change channel=0 control=32 value=0 time=320.9432755000007
program_change channel=0 program=102 time=320.9433687870005
control_change channel=0 control=7 value=104 time=321.0323330250003
note_on channel=0 note=60 velocity=80 time=321.2573210260007
note_on channel=1 note=60 velocity=80 time=321.25826222200067
note_on channel=0 note=60 velocity=0 time=321.4013147300002
note_on channel=1 note=60 velocity=0 time=321.4022639820005
control_change channel=0 control=0 value=0 time=321.62230557300063
control_change channel=0 control=32 value=0 time=321.6224128849999
program_change channel=0 program=103 time=321.62323657100023
note_on channel=0 note=60 velocity=80 time=321.9642695550001
note_on channel=1 note=60 velocity=80 time=321.9652445040001
note_on channel=0 note=60 velocity=0 time=322.091296304
note_on channel=1 note=60 velocity=0 time=322.0914077870002
control_change channel=0 control=0 value=0 time=322.3122768530002
control_change channel=0 control=32 value=0 time=322.3132481850007
program_change channel=0 program=104 time=322.31334771799993
control_change channel=0 control=7 value=88 time=322.4022993510007
note_on channel=0 note=60 velocity=80 time=322.6512761670001
note_on channel=1 note=60 velocity=80 time=322.6513872400001
note_on channel=0 note=60 velocity=0 time=322.78828142400016
note_on channel=1 note=60 velocity=0 time=322.7892304910001
control_change channel=0 control=0 value=0 time=322.9922519390002
control_change channel=0 control=32 value=32 time=322.99236279700017
program_change channel=0 program=104 time=322.9932075650004
control_change channel=0 control=7 value=104 time=323.0832747880004
note_on channel=0 note=60 velocity=80 time=323.3582350209999
note_on channel=1 note=60 velocity=80 time=323.35921475600026
note_on channel=0 note=60 velocity=0 time=323.49822652500006
note_on channel=1 note=60 velocity=0 time=323.49921841000014
control_change channel=0 control=0 value=0 time=323.7222210300006
control_change channel=0 control=32 value=35 time=323.723212203
program_change channel=0 program=104 time=323.7233025380001
note_on channel=0 note=60 velocity=80 time=324.0222246990006
note_on channel=1 note=60 velocity=80 time=324.02319697300027
note_on channel=0 note=60 velocity=0 time=324.1732066180002
note_on channel=1 note=60 velocity=0 time=324.17425785700016
control_change channel=0 control=0 value=0 time=324.3822114499999
control_change channel=0 control=32 value=97 time=324.38318806999996
program_change channel=0 program=104 time=324.3832765040006
note_on channel=0 note=60 velocity=80 time=324.71019762800006
note_on channel=1 note=60 velocity=80 time=324.71118699100043
note_on channel=0 note=60 velocity=0 time=324.8522364340006
note_on channel=1 note=60 velocity=0 time=324.85316247800074
control_change channel=0 control=0 value=0 time=325.0822221080007
control_change channel=0 control=32 value=0 time=325.0823309670004
program_change channel=0 program=105 time=325.0831637090005
note_on channel=0 note=60 velocity=80 time=325.3971875289999
note_on channel=1 note=60 velocity=80 time=325.39729731600073
note_on channel=0 note=60 velocity=0 time=325.5581882010001
note_on channel=1 note=60 velocity=0 time=325.55916827000055
control_change channel=0 control=0 value=0 time=325.7411724120002
control_change channel=0 control=32 value=28 time=325.742152414
program_change channel=0 program=105 time=325.7431347010006
control_change channel=0 control=7 value=90 time=325.8322090669999
note_on channel=0 note=60 velocity=80 time=326.06917940699987
note_on channel=1 note=60 velocity=80 time=326.0701463579999
note_on channel=0 note=60 velocity=0 time=326.24019680499987
note_on channel=1 note=60 velocity=0 time=326.24114651200034
control_change channel=0 control=0 value=0 time=326.44119100100033
control_change channel=0 control=32 value=96 time=326.4421624460001
program_change channel=0 program=105 time=326.4431264250006
control_change channel=0 control=7 value=104 time=326.53319680000004
note_on channel=0 note=60 velocity=80 time=326.8201588640004
note_on channel=1 note=60 velocity=80 time=326.82113664700046
note_on channel=0 note=60 velocity=0 time=326.9471455560006
note_on channel=1 note=60 velocity=0 time=326.94725562500025
control_change channel=0 control=0 value=0 time=327.17213719100073
control_change channel=0 control=32 value=97 time=327.17224530800013
program_change channel=0 program=105 time=327.17312539700015
control_change channel=0 control=7 value=85 time=327.26118093900004
note_on channel=0 note=60 velocity=80 time=327.4571715460006
note_on channel=1 note=60 velocity=80 time=327.4572812810002
note_on channel=0 note=60 velocity=0 time=327.61016572800054
note_on channel=1 note=60 velocity=0 time=327.61111547100063
control_change channel=0 control=0 value=0 time=327.80113368599996
control_change channel=0 control=32 value=98 time=327.80210401300064
program_change channel=0 program=105 time=327.80308327700004
control_change channel=0 control=7 value=104 time=327.89211935500043
note_on channel=0 note=60 velocity=80 time=328.1471099680002
note_on channel=1 note=60 velocity=80 time=328.14809593000064
note_on channel=0 note=60 velocity=0 time=328.28514716600057
note_on channel=1 note=60 velocity=0 time=328.28610067499994
control_change channel=0 control=0 value=0 time=328.50110330000007
control_change channel=0 control=32 value=0 time=328.50209482599985
program_change channel=0 program=106 time=328.503074403
note_on channel=0 note=60 velocity=80 time=328.8001046010004
note_on channel=1 note=60 velocity=80 time=328.80110613000033
note_on channel=0 note=60 velocity=0 time=328.92810002700026
note_on channel=1 note=60 velocity=0 time=328.9282084920005
control_change channel=0 control=0 value=0 time=329.1820909730004
control_change channel=0 control=32 value=0 time=329.1830777690002
program_change channel=0 program=107 time=329.1840480609999
note_on channel=0 note=60 velocity=80 time=329.47309477
note_on channel=1 note=60 velocity=80 time=329.4740742240001
note_on channel=0 note=60 velocity=0 time=329.59512072100006
note_on channel=1 note=60 velocity=0 time=329.59606865500064
control_change channel=0 control=0 value=0 time=329.8110850140001
control_change channel=0 control=32 value=96 time=329.81206033800026
program_change channel=0 program=107 time=329.8130366860005
note_on channel=0 note=60 velocity=80 time=330.14305982299993
note_on channel=1 note=60 velocity=80 time=330.14405659600015
note_on channel=0 note=60 velocity=0 time=330.2501050990004
note_on channel=1 note=60 velocity=0 time=330.2510767020003
control_change channel=0 control=0 value=0 time=330.50105444100063
control_change channel=0 control=32 value=97 time=330.5020459269999
program_change channel=0 program=107 time=330.50213217300006
note_on channel=0 note=60 velocity=80 time=330.79805561800003
note_on channel=1 note=60 velocity=80 time=330.799050009
note_on channel=0 note=60 velocity=0 time=330.94804560100056
note_on channel=1 note=60 velocity=0 time=330.94904128800044
control_change channel=0 control=0 value=0 time=331.15103986300073
control_change channel=0 control=32 value=0 time=331.1520345449999
program_change channel=0 program=108 time=331.1521234410002
control_change channel=0 control=7 value=80 time=331.2410839009999
note_on channel=0 note=60 velocity=80 time=331.44606352700066
note_on channel=1 note=60 velocity=80 time=331.44701313099995
note_on channel=0 note=60 velocity=0 time=331.5860744020001
note_on channel=1 note=60 velocity=0 time=331.58700742900055
control_change channel=0 control=0 value=0 time=331.81103640400033
control_change channel=0 control=32 value=0 time=331.8120263110004
program_change channel=0 program=109 time=331.81211832200006
control_change channel=0 control=7 value=104 time=331.901021914
note_on channel=0 note=60 velocity=80 time=332.10501212500003
note_on channel=1 note=60 velocity=80 time=332.1051220090003
note_on channel=0 note=60 velocity=0 time=332.25205073600046
note_on channel=1 note=60 velocity=0 time=332.25300733600034
control_change channel=0 control=0 value=0 time=332.45104673400056
control_change channel=0 control=32 value=0 time=332.45200205200035
program_change channel=0 program=110 time=332.4529767140002
note_on channel=0 note=60 velocity=80 time=332.77800184399985
note_on channel=1 note=60 velocity=80 time=332.77900150700043
note_on channel=0 note=60 velocity=0 time=332.90599613999984
note_on channel=1 note=60 velocity=0 time=332.9069871440006
control_change channel=0 control=0 value=0 time=333.1109862880003
control_change channel=0 control=32 value=0 time=333.11365269
program_change channel=0 program=111 time=333.1137655570001
note_on channel=0 note=60 velocity=80 time=333.4279890450007
note_on channel=1 note=60 velocity=80 time=333.4289746170007
note_on channel=0 note=60 velocity=0 time=333.55199853200065
note_on channel=1 note=60 velocity=0 time=333.5529691669999
control_change channel=0 control=0 value=0 time=333.7609811250004
control_change channel=0 control=32 value=0 time=333.7619643759999
program_change channel=0 program=112 time=333.76205193900023
note_on channel=0 note=60 velocity=80 time=334.078977096
note_on channel=1 note=60 velocity=80 time=334.07995801500056
note_on channel=0 note=60 velocity=0 time=334.2080034569999
note_on channel=1 note=60 velocity=0 time=334.2089577510005
control_change channel=0 control=0 value=0 time=334.41100495200044
control_change channel=0 control=32 value=96 time=334.4111179060001
program_change channel=0 program=112 time=334.4119246370001
control_change channel=0 control=7 value=84 time=334.5009570170005
note_on channel=0 note=60 velocity=80 time=334.7429457170001
note_on channel=1 note=60 velocity=80 time=334.7439302030007
note_on channel=0 note=60 velocity=0 time=334.89495110900043
note_on channel=1 note=60 velocity=0 time=334.8959392430006
control_change channel=0 control=0 value=0 time=335.09097516900056
control_change channel=0 control=32 value=97 time=335.09194134100017
program_change channel=0 program=112 time=335.09203046200037
control_change channel=0 control=7 value=80 time=335.1809838830004
note_on channel=0 note=60 velocity=80 time=335.3719389560001
note_on channel=1 note=60 velocity=80 time=335.37292326199986
note_on channel=0 note=60 velocity=0 time=335.5369508350004
note_on channel=1 note=60 velocity=0 time=335.53792478500054
control_change channel=0 control=0 value=0 time=335.750932635
control_change channel=0 control=32 value=98 time=335.7510407160007
program_change channel=0 program=112 time=335.75189669500014
control_change channel=0 control=7 value=75 time=335.84097073200064
note_on channel=0 note=60 velocity=80 time=336.03496778299996
note_on channel=1 note=60 velocity=80 time=336.03591604100075
note_on channel=0 note=60 velocity=0 time=336.20092203400054
note_on channel=1 note=60 velocity=0 time=336.20190988600007
control_change channel=0 control=0 value=0 time=336.37091683500057
control_change channel=0 control=32 value=99 time=336.37190774600003
program_change channel=0 program=112 time=336.371994956
control_change channel=0 control=7 value=80 time=336.460952851
note_on channel=0 note=60 velocity=80 time=336.67494580200037
note_on channel=1 note=60 velocity=80 time=336.67589608400067
note_on channel=0 note=60 velocity=0 time=336.85093528700054
note_on channel=1 note=60 velocity=0 time=336.8518853270007
control_change channel=0 control=0 value=0 time=337.07093393800005
control_change channel=0 control=32 value=100 time=337.07188882599985
program_change channel=0 program=112 time=337.0719762460003
control_change channel=0 control=7 value=104 time=337.16093577599986
note_on channel=0 note=60 velocity=80 time=337.33089058899986
note_on channel=1 note=60 velocity=80 time=337.3318764120004
note_on channel=0 note=60 velocity=0 time=337.4938850440003
note_on channel=1 note=60 velocity=0 time=337.4948747360004
control_change channel=0 control=0 value=0 time=337.7208849340004
control_change channel=0 control=32 value=0 time=337.7209943830003
program_change channel=0 program=113 time=337.72186417800003
note_on channel=0 note=60 velocity=80 time=337.97387415699995
note_on channel=1 note=60 velocity=80 time=337.97486110800037
note_on channel=0 note=60 velocity=0 time=338.1388658599999
note_on channel=1 note=60 velocity=0 time=338.1398580109999
control_change channel=0 control=0 value=0 time=338.30086656000003
control_change channel=0 control=32 value=0 time=338.3009766490004
program_change channel=0 program=114 time=338.3018528700004
note_on channel=0 note=60 velocity=80 time=338.6348862120003
note_on channel=1 note=60 velocity=80 time=338.63585582199994
note_on channel=0 note=60 velocity=0 time=338.7798634360006
note_on channel=1 note=60 velocity=0 time=338.780835562
control_change channel=0 control=0 value=0 time=338.97085460200014
control_change channel=0 control=32 value=97 time=338.9718321340006
program_change channel=0 program=114 time=338.9719173450003
control_change channel=0 control=7 value=63 time=339.05989100700026
note_on channel=0 note=60 velocity=80 time=339.27288020300057
note_on channel=1 note=60 velocity=80 time=339.2738252830004
note_on channel=0 note=60 velocity=0 time=339.4258800000007
note_on channel=1 note=60 velocity=0 time=339.42683189499985
control_change channel=0 control=0 value=0 time=339.620859357
control_change channel=0 control=32 value=98 time=339.6211673400003
program_change channel=0 program=114 time=339.6218222490006
control_change channel=0 control=7 value=104 time=339.71083215199997
note_on channel=0 note=60 velocity=80 time=339.9168273720006
note_on channel=1 note=60 velocity=80 time=339.9178177090007
note_on channel=0 note=60 velocity=0 time=340.06586150300063
note_on channel=1 note=60 velocity=0 time=340.06681782600026
control_change channel=0 control=0 value=0 time=340.2698564270004
control_change channel=0 control=32 value=0 time=340.27080278799986
program_change channel=0 program=115 time=340.27178498800004
note_on channel=0 note=60 velocity=80 time=340.54083043800074
note_on channel=1 note=60 velocity=80 time=340.5409378630002
note_on channel=0 note=60 velocity=0 time=340.69680516300014
note_on channel=1 note=60 velocity=0 time=340.6977969720001
control_change channel=0 control=0 value=0 time=340.8898409370004
control_change channel=0 control=32 value=96 time=340.890798208
program_change channel=0 program=115 time=340.89088735899986
note_on channel=0 note=60 velocity=80 time=341.1797955820002
note_on channel=1 note=60 velocity=80 time=341.1807826760005
note_on channel=0 note=60 velocity=0 time=341.3487924910005
note_on channel=1 note=60 velocity=0 time=341.34977782199985
control_change channel=0 control=0 value=0 time=341.5097862070006
control_change channel=0 control=32 value=0 time=341.510782632
program_change channel=0 program=116 time=341.5117504489999
note_on channel=0 note=60 velocity=80 time=341.79878566700063
note_on channel=1 note=60 velocity=80 time=341.7997761080005
note_on channel=0 note=60 velocity=0 time=341.95878243600055
note_on channel=1 note=60 velocity=0 time=341.9597655540001
control_change channel=0 control=0 value=0 time=342.17077057700044
control_change channel=0 control=32 value=96 time=342.1708794320002
program_change channel=0 program=116 time=342.1717706770005
note_on channel=0 note=60 velocity=80 time=342.4287703610007
note_on channel=1 note=60 velocity=80 time=342.42976519700005
note_on channel=0 note=60 velocity=0 time=342.572778791
note_on channel=1 note=60 velocity=0 time=342.57374780200007
control_change channel=0 control=0 value=0 time=342.7797606820004
control_change channel=0 control=32 value=0 time=342.7807413500004
program_change channel=0 program=117 time=342.7817525540004
note_on channel=0 note=60 velocity=80 time=343.0987472550005
note_on channel=1 note=60 velocity=80 time=343.09973626600004
note_on channel=0 note=60 velocity=0 time=343.21878877200015
note_on channel=1 note=60 velocity=0 time=343.2188983740007
control_change channel=0 control=0 value=0 time=343.43974708899987
control_change channel=0 control=32 value=64 time=343.44072196100024
program_change channel=0 program=117 time=343.4408084330007
note_on channel=0 note=60 velocity=80 time=343.7337320910001
note_on channel=1 note=60 velocity=80 time=343.7347210910002
note_on channel=0 note=60 velocity=0 time=343.8587687500003
note_on channel=1 note=60 velocity=0 time=343.85972274100004
control_change channel=0 control=0 value=0 time=344.08975675700003
control_change channel=0 control=32 value=65 time=344.0907143300001
program_change channel=0 program=117 time=344.09080630600056
note_on channel=0 note=60 velocity=80 time=344.3917205980006
note_on channel=1 note=60 velocity=80 time=344.3927004770003
note_on channel=0 note=60 velocity=0 time=344.5257229830004
note_on channel=1 note=60 velocity=0 time=344.5267119370001
control_change channel=0 control=0 value=0 time=344.7397092910005
control_change channel=0 control=32 value=66 time=344.7406929830004
program_change channel=0 program=117 time=344.7416638170007
note_on channel=0 note=60 velocity=80 time=345.02771012799985
note_on channel=1 note=60 velocity=80 time=345.02868092600056
note_on channel=0 note=60 velocity=0 time=345.1456927580002
note_on channel=1 note=60 velocity=0 time=345.14668785699996
control_change channel=0 control=0 value=0 time=345.38969580699995
control_change channel=0 control=32 value=0 time=345.38980488700054
program_change channel=0 program=118 time=345.39059648000057
note_on channel=0 note=60 velocity=80 time=345.69168182700014
note_on channel=1 note=60 velocity=80 time=345.6926750490002
note_on channel=0 note=60 velocity=0 time=345.8417204130001
note_on channel=1 note=60 velocity=0 time=345.8426672200003
control_change channel=0 control=0 value=0 time=346.01971441300066
control_change channel=0 control=32 value=64 time=346.02067069500026
program_change channel=0 program=118 time=346.0207595340007
control_change channel=0 control=7 value=95 time=346.10967014700054
note_on channel=0 note=60 velocity=80 time=346.3306705980003
note_on channel=1 note=60 velocity=80 time=346.3316532500003
note_on channel=0 note=60 velocity=0 time=346.483698686
note_on channel=1 note=60 velocity=0 time=346.48465128299995
control_change channel=0 control=0 value=0 time=346.6696977190004
control_change channel=0 control=32 value=65 time=346.67065114100023
program_change channel=0 program=118 time=346.6707398369999
control_change channel=0 control=7 value=104 time=346.75969143400016
note_on channel=0 note=60 velocity=80 time=346.94665245299984
note_on channel=1 note=60 velocity=80 time=346.9476486220001
note_on channel=0 note=60 velocity=0 time=347.1126424080003
note_on channel=1 note=60 velocity=0 time=347.11363208500006
control_change channel=0 control=0 value=0 time=347.32964755600005
control_change channel=0 control=32 value=0 time=347.33063411700005
program_change channel=0 program=119 time=347.33072008199997
note_on channel=0 note=60 velocity=80 time=347.6116671480004
note_on channel=1 note=60 velocity=80 time=347.61263332
note_on channel=0 note=60 velocity=0 time=347.73963610900046
note_on channel=1 note=60 velocity=0 time=347.740622757
control_change channel=0 control=0 value=0 time=347.89963034599987
control_change channel=0 control=32 value=0 time=347.8997352390006
program_change channel=0 program=120 time=347.9006196170003
note_on channel=0 note=60 velocity=80 time=348.19262398699993
note_on channel=1 note=60 velocity=80 time=348.19362361500043
note_on channel=0 note=60 velocity=0 time=348.3546239770003
note_on channel=1 note=60 velocity=0 time=348.35663189300067
control_change channel=0 control=0 value=0 time=348.5896384580001
control_change channel=0 control=32 value=0 time=348.58974469400073
program_change channel=0 program=121 time=348.59060414300075
note_on channel=0 note=60 velocity=80 time=348.8796206830002
note_on channel=1 note=60 velocity=80 time=348.88059843500014
note_on channel=0 note=60 velocity=0 time=349.0066471200007
note_on channel=1 note=60 velocity=0 time=349.00759217999985
control_change channel=0 control=0 value=0 time=349.16860375500073
control_change channel=0 control=32 value=0 time=349.16958434700064
program_change channel=0 program=122 time=349.1705861010005
note_on channel=0 note=60 velocity=80 time=349.4776056130004
note_on channel=1 note=60 velocity=80 time=349.4777144160007
note_on channel=0 note=60 velocity=0 time=349.6306311870003
note_on channel=1 note=60 velocity=0 time=349.6315704050003
control_change channel=0 control=0 value=0 time=349.82959642400056
control_change channel=0 control=32 value=0 time=349.82970464400023
program_change channel=0 program=123 time=349.8305809050007
note_on channel=0 note=60 velocity=80 time=350.11557123200055
note_on channel=1 note=60 velocity=80 time=350.11655973600045
note_on channel=0 note=60 velocity=0 time=350.2696130680006
note_on channel=1 note=60 velocity=0 time=350.27058228400074
control_change channel=0 control=0 value=0 time=350.46960722400036
control_change channel=0 control=32 value=0 time=350.4697188300006
program_change channel=0 program=124 time=350.470573734
note_on channel=0 note=60 velocity=80 time=350.7795610000003
note_on channel=1 note=60 velocity=80 time=350.78053500700025
note_on channel=0 note=60 velocity=0 time=351.00955986200006
note_on channel=1 note=60 velocity=0 time=351.0105646390002
control_change channel=0 control=0 value=0 time=351.10854907200064
control_change channel=0 control=32 value=0 time=351.10953746799987
program_change channel=0 program=125 time=351.1105328170006
note_on channel=0 note=60 velocity=80 time=351.46754865300045
note_on channel=1 note=60 velocity=80 time=351.4685282190003
note_on channel=0 note=60 velocity=0 time=351.5965706480001
note_on channel=1 note=60 velocity=0 time=351.5975286920002
control_change channel=0 control=0 value=0 time=351.8485511380004
control_change channel=0 control=32 value=0 time=351.8495179400006
program_change channel=0 program=126 time=351.85051937200024
note_on channel=0 note=60 velocity=80 time=352.15053752099993
note_on channel=1 note=60 velocity=80 time=352.1515223760007
note_on channel=0 note=60 velocity=0 time=352.28756474000056
note_on channel=1 note=60 velocity=0 time=352.28851703000055
control_change channel=0 control=0 value=0 time=352.4895643079999
control_change channel=0 control=32 value=0 time=352.4896738739999
program_change channel=0 program=127 time=352.4905256060001
note_on channel=0 note=60 velocity=80 time=352.79351527200015
note_on channel=1 note=60 velocity=80 time=352.79452855100044
note_on channel=0 note=60 velocity=0 time=352.92652743800045
note_on channel=1 note=60 velocity=0 time=352.92749822099995
control_change channel=0 control=0 value=64 time=353.11850785800016
control_change channel=0 control=32 value=0 time=353.119487598
program_change channel=0 program=0 time=353.1195719690004
note_on channel=0 note=60 velocity=80 time=353.4385081500004
note_on channel=1 note=60 velocity=80 time=353.43947966199994
note_on channel=0 note=60 velocity=0 time=353.60052877
note_on channel=1 note=60 velocity=0 time=353.6014869790006
control_change channel=0 control=0 value=64 time=353.7385046110003
control_change channel=0 control=32 value=0 time=353.7394877280003
program_change channel=0 program=1 time=353.7395750610003
note_on channel=0 note=60 velocity=80 time=354.06249822100017
note_on channel=1 note=60 velocity=80 time=354.0634735600006
note_on channel=0 note=60 velocity=0 time=354.20451612500074
note_on channel=1 note=60 velocity=0 time=354.2054660070007
control_change channel=0 control=0 value=64 time=354.4084750940001
control_change channel=0 control=32 value=0 time=354.40946066700053
program_change channel=0 program=3 time=354.4095489320007
note_on channel=0 note=60 velocity=80 time=354.6764818920001
note_on channel=1 note=60 velocity=80 time=354.677454787
note_on channel=0 note=60 velocity=0 time=354.82950466700004
note_on channel=1 note=60 velocity=0 time=354.83045198700074
control_change channel=0 control=0 value=64 time=354.99846595800045
control_change channel=0 control=32 value=0 time=354.99944084600065
program_change channel=0 program=16 time=355.00041685700035
note_on channel=0 note=60 velocity=80 time=355.2844618700001
note_on channel=1 note=60 velocity=80 time=355.2854350360003
note_on channel=0 note=60 velocity=0 time=355.44848693699987
note_on channel=1 note=60 velocity=0 time=355.4494377260007
control_change channel=0 control=0 value=64 time=355.6084837420003
control_change channel=0 control=32 value=0 time=355.6094394340007
program_change channel=0 program=32 time=355.61040724099985
note_on channel=0 note=60 velocity=80 time=355.88843544500014
note_on channel=1 note=60 velocity=80 time=355.8894277190002
note_on channel=0 note=60 velocity=0 time=356.0324741740005
note_on channel=1 note=60 velocity=0 time=356.03342273900034
control_change channel=0 control=0 value=64 time=356.2484646789999
control_change channel=0 control=32 value=0 time=356.2494194640003
program_change channel=0 program=33 time=356.2495055520003
note_on channel=0 note=60 velocity=80 time=356.5324388449999
note_on channel=1 note=60 velocity=80 time=356.5334159110007
note_on channel=0 note=60 velocity=0 time=356.7174173930007
note_on channel=1 note=60 velocity=0 time=356.7183936190004
control_change channel=0 control=0 value=64 time=356.83845539400045
control_change channel=0 control=32 value=0 time=356.83941266000056
program_change channel=0 program=34 time=356.83950314899994
note_on channel=0 note=60 velocity=80 time=357.14640073100054
note_on channel=1 note=60 velocity=80 time=357.14740378700026
note_on channel=0 note=60 velocity=0 time=357.35439690900057
note_on channel=1 note=60 velocity=0 time=357.3554128320002
control_change channel=0 control=0 value=64 time=357.46844093600066
control_change channel=0 control=32 value=0 time=357.4693901210003
program_change channel=0 program=35 time=357.46947755600013
note_on channel=0 note=60 velocity=80 time=357.7883982580006
note_on channel=1 note=60 velocity=80 time=357.789374555
note_on channel=0 note=60 velocity=0 time=357.98639152099986
note_on channel=1 note=60 velocity=0 time=357.98738086899994
control_change channel=0 control=0 value=64 time=358.11838017800073
control_change channel=0 control=32 value=0 time=358.1185062960003
program_change channel=0 program=36 time=358.11936734900064
note_on channel=0 note=60 velocity=80 time=358.3993933520005
note_on channel=1 note=60 velocity=80 time=358.4003677890005
note_on channel=0 note=60 velocity=0 time=358.63039830400066
note_on channel=1 note=60 velocity=0 time=358.6313649370004
control_change channel=0 control=0 value=64 time=358.7783739330007
control_change channel=0 control=32 value=0 time=358.77937472400026
program_change channel=0 program=37 time=358.77947998200034
note_on channel=0 note=60 velocity=80 time=359.0113709390007
note_on channel=1 note=60 velocity=80 time=359.01236256799984
note_on channel=0 note=60 velocity=0 time=359.19836197600034
note_on channel=1 note=60 velocity=0 time=359.1993487770005
control_change channel=0 control=0 value=64 time=359.3983634160004
control_change channel=0 control=32 value=0 time=359.3984741260001
program_change channel=0 program=48 time=359.3993329600007
note_on channel=0 note=60 velocity=80 time=359.6813884740004
note_on channel=1 note=60 velocity=80 time=359.6823489369999
note_on channel=0 note=60 velocity=0 time=359.82538352100073
note_on channel=1 note=60 velocity=0 time=359.8273534560003
control_change channel=0 control=0 value=64 time=360.0183487610002
control_change channel=0 control=32 value=0 time=360.01933145300063
program_change channel=0 program=49 time=360.01942289
note_on channel=0 note=60 velocity=80 time=360.2823701360003
note_on channel=1 note=60 velocity=80 time=360.28248788100063
note_on channel=0 note=60 velocity=0 time=360.4373712740007
note_on channel=1 note=60 velocity=0 time=360.43831375100035
control_change channel=0 control=0 value=64 time=360.68835778300036
control_change channel=0 control=32 value=0 time=360.68931641200015
program_change channel=0 program=50 time=360.6894047280002
note_on channel=0 note=60 velocity=80 time=360.9653122330001
note_on channel=1 note=60 velocity=80 time=360.9663019710006
note_on channel=0 note=60 velocity=0 time=361.12530222199985
note_on channel=1 note=60 velocity=0 time=361.1262938910004
control_change channel=0 control=0 value=64 time=361.31730278099985
control_change channel=0 control=32 value=0 time=361.318290014
program_change channel=0 program=55 time=361.31926378500066
note_on channel=0 note=60 velocity=80 time=361.63232775899996
note_on channel=1 note=60 velocity=80 time=361.6324355940005
note_on channel=0 note=60 velocity=0 time=361.7842995760002
note_on channel=1 note=60 velocity=0 time=361.78527276300065
control_change channel=0 control=0 value=64 time=361.9782939659999
control_change channel=0 control=32 value=0 time=361.97840214900043
program_change channel=0 program=64 time=361.97928060899994
note_on channel=0 note=60 velocity=80 time=362.2603125220003
note_on channel=1 note=60 velocity=80 time=362.26126841400037
note_on channel=0 note=60 velocity=0 time=362.43031692600016
note_on channel=1 note=60 velocity=0 time=362.4312703129999
control_change channel=0 control=0 value=64 time=362.66729410100015
control_change channel=0 control=32 value=0 time=362.6682524430007
program_change channel=0 program=65 time=362.6692307600006
note_on channel=0 note=60 velocity=80 time=363.0272698510007
note_on channel=1 note=60 velocity=80 time=363.02824065000004
note_on channel=0 note=60 velocity=0 time=363.1812691740006
note_on channel=1 note=60 velocity=0 time=363.1813804580006
control_change channel=0 control=0 value=64 time=363.337254477
control_change channel=0 control=32 value=0 time=363.3382384870001
program_change channel=0 program=66 time=363.3392184889999
note_on channel=0 note=60 velocity=80 time=363.67227264900066
note_on channel=1 note=60 velocity=80 time=363.6732312620006
note_on channel=0 note=60 velocity=0 time=363.89724113600005
note_on channel=1 note=60 velocity=0 time=363.89821325699995
control_change channel=0 control=0 value=64 time=363.9772817140001
control_change channel=0 control=32 value=0 time=363.97822217700013
program_change channel=0 program=67 time=363.9791979930005
note_on channel=0 note=60 velocity=80 time=364.33222829199985
note_on channel=1 note=60 velocity=80 time=364.33319645700067
note_on channel=0 note=60 velocity=0 time=364.5652489560007
note_on channel=1 note=60 velocity=0 time=364.56621110500055
control_change channel=0 control=0 value=64 time=364.75822240900015
control_change channel=0 control=32 value=0 time=364.75833456800046
program_change channel=0 program=68 time=364.7592038870007
note_on channel=0 note=60 velocity=80 time=365.0582270120003
note_on channel=1 note=60 velocity=80 time=365.0591989080003
note_on channel=0 note=60 velocity=0 time=365.19124335700053
note_on channel=1 note=60 velocity=0 time=365.1921944330006
control_change channel=0 control=0 value=64 time=365.4172073380005
control_change channel=0 control=32 value=0 time=365.41819049600053
program_change channel=0 program=69 time=365.4182822460007
note_on channel=0 note=60 velocity=80 time=365.74719540800015
note_on channel=1 note=60 velocity=80 time=365.74819605500034
note_on channel=0 note=60 velocity=0 time=365.8692350400006
note_on channel=1 note=60 velocity=0 time=365.87017140399985
control_change channel=0 control=0 value=64 time=366.0872212540007
control_change channel=0 control=32 value=0 time=366.0881855200005
program_change channel=0 program=70 time=366.08827773600024
note_on channel=0 note=60 velocity=80 time=366.427194076
note_on channel=1 note=60 velocity=80 time=366.4292084640001
note_on channel=0 note=60 velocity=0 time=366.5711954460003
note_on channel=1 note=60 velocity=0 time=366.5721650000005
control_change channel=0 control=0 value=64 time=366.79717575999985
control_change channel=0 control=32 value=0 time=366.7998810400004
program_change channel=0 program=80 time=366.80000690199995
note_on channel=0 note=60 velocity=80 time=367.10516182300034
note_on channel=1 note=60 velocity=80 time=367.10615297000004
note_on channel=0 note=60 velocity=0 time=367.275198411
note_on channel=1 note=60 velocity=0 time=367.27614357900075
control_change channel=0 control=0 value=64 time=367.478196258
control_change channel=0 control=32 value=0 time=367.4783027809999
program_change channel=0 program=81 time=367.4791273340006
note_on channel=0 note=60 velocity=80 time=367.8121538760006
note_on channel=1 note=60 velocity=80 time=367.8131353540002
note_on channel=0 note=60 velocity=0 time=367.9861468039999
note_on channel=1 note=60 velocity=0 time=367.9871464980006
control_change channel=0 control=0 value=64 time=368.19713996000064
control_change channel=0 control=32 value=0 time=368.1972488500005
program_change channel=0 program=82 time=368.1982597410006
note_on channel=0 note=60 velocity=80 time=368.48015212500013
note_on channel=1 note=60 velocity=80 time=368.48112467100054
note_on channel=0 note=60 velocity=0 time=368.65115505500034
note_on channel=1 note=60 velocity=0 time=368.6521209500006
control_change channel=0 control=0 value=64 time=368.86715931600065
control_change channel=0 control=32 value=0 time=368.8672630310002
program_change channel=0 program=83 time=368.8680899970004
note_on channel=0 note=60 velocity=80 time=369.1821148250001
note_on channel=1 note=60 velocity=80 time=369.1822267440002
note_on channel=0 note=60 velocity=0 time=369.3571103439999
note_on channel=1 note=60 velocity=0 time=369.3580903259999
control_change channel=0 control=0 value=64 time=369.55712128899995
control_change channel=0 control=32 value=0 time=369.5572274590004
program_change channel=0 program=84 time=369.55808106099994
note_on channel=0 note=60 velocity=80 time=369.8741399500004
note_on channel=1 note=60 velocity=80 time=369.87508674200035
note_on channel=0 note=60 velocity=0 time=370.05112988900055
note_on channel=1 note=60 velocity=0 time=370.0520775370005
control_change channel=0 control=0 value=64 time=370.24712809300036
control_change channel=0 control=32 value=0 time=370.24723640400043
program_change channel=0 program=85 time=370.24804755700006
note_on channel=0 note=60 velocity=80 time=370.538093268
note_on channel=1 note=60 velocity=80 time=370.5390720149999
note_on channel=0 note=60 velocity=0 time=370.7020744629999
note_on channel=1 note=60 velocity=0 time=370.70306623500073
control_change channel=0 control=0 value=64 time=370.90707139000006
control_change channel=0 control=32 value=0 time=370.9071756120002
program_change channel=0 program=86 time=370.90805371400074
note_on channel=0 note=60 velocity=80 time=371.1950624020001
note_on channel=1 note=60 velocity=80 time=371.1960551480006
note_on channel=0 note=60 velocity=0 time=371.3810610260007
note_on channel=1 note=60 velocity=0 time=371.3820381690002
control_change channel=0 control=0 value=64 time=371.55706924100014
control_change channel=0 control=32 value=0 time=371.55717501100025
program_change channel=0 program=87 time=371.5580609620001
note_on channel=0 note=60 velocity=80 time=371.8830632250001
note_on channel=1 note=60 velocity=80 time=371.8840339010003
note_on channel=0 note=60 velocity=0 time=372.13504097199984
note_on channel=1 note=60 velocity=0 time=372.13515210600053
control_change channel=0 control=0 value=64 time=372.2270772230004
control_change channel=0 control=32 value=0 time=372.2280209139999
program_change channel=0 program=88 time=372.22810635099995
note_on channel=0 note=60 velocity=80 time=372.5680428149999
note_on channel=1 note=60 velocity=80 time=372.56903739000063
note_on channel=0 note=60 velocity=0 time=372.75102625
note_on channel=1 note=60 velocity=0 time=372.7520041460002
control_change channel=0 control=0 value=64 time=372.9360233010002
control_change channel=0 control=32 value=0 time=372.9369980300007
program_change channel=0 program=89 time=372.93797957900006
note_on channel=0 note=60 velocity=80 time=373.2320188820004
note_on channel=1 note=60 velocity=80 time=373.2330104400007
note_on channel=0 note=60 velocity=0 time=373.4520223970003
note_on channel=1 note=60 velocity=0 time=373.45300087300075
control_change channel=0 control=0 value=64 time=373.54704939100066
control_change channel=0 control=32 value=0 time=373.5471560160004
program_change channel=0 program=90 time=373.5480640430005
control_change channel=0 control=7 value=90 time=373.6370493530003
note_on channel=0 note=60 velocity=80 time=373.8850350090006
note_on channel=1 note=60 velocity=80 time=373.8859912500002
note_on channel=0 note=60 velocity=0 time=374.13599260699993
note_on channel=1 note=60 velocity=0 time=374.1369802600002
control_change channel=0 control=0 value=64 time=374.19603253600053
control_change channel=0 control=32 value=0 time=374.1969769140005
program_change channel=0 program=96 time=374.1979515210005
control_change channel=0 control=7 value=104 time=374.28598272199997
note_on channel=0 note=60 velocity=80 time=374.54899465700055
note_on channel=1 note=60 velocity=80 time=374.5499801060005
note_on channel=0 note=60 velocity=0 time=374.738979447
note_on channel=1 note=60 velocity=0 time=374.7399614630003
control_change channel=0 control=0 value=64 time=374.9269728980007
control_change channel=0 control=32 value=0 time=374.9270804610005
program_change channel=0 program=97 time=374.92794899
note_on channel=0 note=60 velocity=80 time=375.24097191800047
note_on channel=1 note=60 velocity=80 time=375.2419618920003
note_on channel=0 note=60 velocity=0 time=375.3970005710007
note_on channel=1 note=60 velocity=0 time=375.397949356
control_change channel=0 control=0 value=64 time=375.64598044000013
control_change channel=0 control=32 value=0 time=375.6465834310002
program_change channel=0 program=98 time=375.6469015540006
note_on channel=0 note=60 velocity=80 time=375.9479445090001
note_on channel=1 note=60 velocity=80 time=375.9489353700001
note_on channel=0 note=60 velocity=0 time=376.09194197600027
note_on channel=1 note=60 velocity=0 time=376.0929322110005
control_change channel=0 control=0 value=64 time=376.32694044300024
control_change channel=0 control=32 value=0 time=376.32725283200034
program_change channel=0 program=99 time=376.3279029920004
note_on channel=0 note=60 velocity=80 time=376.6619599100004
note_on channel=1 note=60 velocity=80 time=376.66230717000053
note_on channel=0 note=60 velocity=0 time=376.7859599930007
note_on channel=1 note=60 velocity=0 time=376.7869147370002
control_change channel=0 control=0 value=64 time=377.01594114100044
control_change channel=0 control=32 value=0 time=377.01691743800075
program_change channel=0 program=100 time=377.0170048220007
note_on channel=0 note=60 velocity=80 time=377.3479103790005
note_on channel=1 note=60 velocity=80 time=377.3488990570004
note_on channel=0 note=60 velocity=0 time=377.5129078050004
note_on channel=1 note=60 velocity=0 time=377.5138928030001
control_change channel=0 control=0 value=64 time=377.69590345100005
control_change channel=0 control=32 value=0 time=377.69689137500063
program_change channel=0 program=112 time=377.6969804240007
note_on channel=0 note=60 velocity=80 time=378.02090313400004
note_on channel=1 note=60 velocity=80 time=378.0218956910003
note_on channel=0 note=60 velocity=0 time=378.1568885070001
note_on channel=1 note=60 velocity=0 time=378.15787361799994
control_change channel=0 control=0 value=64 time=378.4058992999999
control_change channel=0 control=32 value=0 time=378.4068852870005
program_change channel=0 program=113 time=378.4078579050001
note_on channel=0 note=60 velocity=80 time=378.7068805360004
note_on channel=1 note=60 velocity=80 time=378.70786463200056
note_on channel=0 note=60 velocity=0 time=378.8849065020004
note_on channel=1 note=60 velocity=0 time=378.8858600780004
control_change channel=0 control=0 value=64 time=379.0859119030001
control_change channel=0 control=32 value=0 time=379.08686957900045
program_change channel=0 program=114 time=379.0878408240005
note_on channel=0 note=60 velocity=80 time=379.407864193
note_on channel=1 note=60 velocity=80 time=379.4088527220001
note_on channel=0 note=60 velocity=0 time=379.5408725570005
note_on channel=1 note=60 velocity=0 time=379.5418508120001
control_change channel=0 control=0 value=64 time=379.7768565290007
control_change channel=0 control=32 value=0 time=379.77696194500004
program_change channel=0 program=115 time=379.7778613370001
note_on channel=0 note=60 velocity=80 time=380.0998477150006
note_on channel=1 note=60 velocity=80 time=380.1008362800003
note_on channel=0 note=60 velocity=0 time=380.32083933600006
note_on channel=1 note=60 velocity=0 time=380.32182830000056
control_change channel=0 control=0 value=0 time=380.4558780770003
control_change channel=0 control=32 value=113 time=380.4568333440002
program_change channel=0 program=0 time=380.4569210610007
control_change channel=0 control=7 value=110 time=380.5458759970006
control_change channel=0 control=91 value=20 time=380.54682237900033
control_change channel=1 control=7 value=36 time=380.5478044820002
control_change channel=1 control=91 value=50 time=380.5478905640002
note_on channel=0 note=60 velocity=80 time=381.323810502
note_on channel=1 note=60 velocity=80 time=381.3248000910007
note_on channel=0 note=60 velocity=0 time=381.87580628400065
note_on channel=1 note=60 velocity=0 time=381.87678478900034
note_on channel=0 note=60 velocity=80 time=383.0887717660007
note_on channel=1 note=60 velocity=80 time=383.0897566930007
note_on channel=0 note=60 velocity=0 time=383.2418095390003
note_on channel=1 note=60 velocity=0 time=383.2419184600003
